<svg xmlns="http://www.w3.org/2000/svg" width="24" height="24" viewBox="0 0 24 24"><title>Icon-Architecture/16/Arch_AWS-Neuron_16</title><g fill="none" fill-rule="evenodd"><path fill="#01a88d" d="M0 0h24v24H0z"/><path fill="#fff" d="M12 8.502a.501.501 0 1 1-.002 1.001A.501.501 0 0 1 12 8.502m3.5 5.503a.501.501 0 1 1-1.002-.002.501.501 0 0 1 1.002.002m-3.805-1.933-1.443 1.11c-.03-.046-.066-.086-.1-.127l1.549-2.582a1.55 1.55 0 0 0 .598 0l1.549 2.582q-.053.06-.1.126l-1.443-1.11a.504.504 0 0 0-.61 0M9 14.505a.501.501 0 1 1 .002-1.002A.501.501 0 0 1 9 14.505m1.5-5.503c0 .362.134.69.348.95l-1.549 2.582a1.502 1.502 0 0 0-1.799 1.47c0 .828.673 1.501 1.5 1.501a1.5 1.5 0 0 0 1.473-1.232L12 13.099l1.527 1.174A1.5 1.5 0 0 0 15 15.505c.827 0 1.5-.673 1.5-1.5a1.502 1.502 0 0 0-1.799-1.471L13.152 9.95c.214-.26.348-.587.348-.95 0-.827-.673-1.5-1.5-1.5s-1.5.673-1.5 1.5m7.5 6.705-6.002 3.225L6 15.707V8.3l5.998-3.231L18 8.3zm.737-8.146L12.235 4.06a.5.5 0 0 0-.474 0L5.263 7.561a.5.5 0 0 0-.263.44v8.005a.5.5 0 0 0 .264.44l6.498 3.495a.5.5 0 0 0 .472 0l6.502-3.495a.5.5 0 0 0 .264-.44V8a.5.5 0 0 0-.263-.44"/></g></svg>