<svg xmlns="http://www.w3.org/2000/svg" width="24" height="24" fill="none" viewBox="0 0 24 24"><path fill="#01a88d" d="M0 0h24v24H0z"/><path fill="#fff" d="m7.428 13.709-3.113-1.237a.5.5 0 0 1 0-.93L8.983 9.69 6.147 6.855l.707-.708 3.375 3.374a.5.5 0 0 1-.17.819l-4.205 1.667 2.344.932zm3.634-5.49.94-2.364 1.668 4.204a.502.502 0 0 0 .818.169l3.374-3.374-.707-.707-2.836 2.836-1.851-4.668a.5.5 0 0 0-.93 0L10.292 7.45zm1.881 7.571-.94 2.364-1.667-4.204a.502.502 0 0 0-.818-.169l-3.374 3.374.707.707 2.836-2.836 1.851 4.668a.5.5 0 0 0 .93 0l1.245-3.133zm6.747-4.249-3.135-1.247-.77.77 2.366.941-4.204 1.668a.498.498 0 0 0-.169.818l3.374 3.374.707-.707-2.836-2.836 4.667-1.851a.5.5 0 0 0 0-.93"/></svg>