<svg xmlns="http://www.w3.org/2000/svg" width="24" height="24" viewBox="0 0 24 24"><title>Icon-Architecture/16/Arch_Amazon-Rekognition_16</title><g fill="none" fill-rule="evenodd"><path fill="#01a88d" d="M0 0h24v24H0z"/><path fill="#fff" d="M19 18.254a.35.35 0 0 0-.097-.312l-3.288-3.202a6 6 0 0 1-.879.88l3.21 3.287c.209.21.556.062.785-.167.15-.149.248-.326.27-.486m-8.025-2.292a4.987 4.987 0 0 0 4.98-4.984 4.986 4.986 0 0 0-4.98-4.982 4.987 4.987 0 0 0-4.98 4.982 4.987 4.987 0 0 0 4.98 4.984m9.011 2.424c-.05.378-.246.754-.55 1.058-.368.368-.817.556-1.244.556-.353 0-.691-.129-.954-.393l-3.34-3.42a5.93 5.93 0 0 1-2.923.771A5.984 5.984 0 0 1 5 10.978 5.984 5.984 0 0 1 10.975 5a5.984 5.984 0 0 1 5.976 5.978c0 1.063-.28 2.06-.769 2.925l3.42 3.33c.309.309.444.716.384 1.153M9.064 11.97h-.996v1.993h1.992v-.997h-.996zm-.996-1.993h.996v-.996h.996v-.997H8.068zm3.983-.996h.996v.996h.996V7.984h-1.992zm.996 2.989h.996v1.993h-1.992v-.997h.996z"/></g></svg>