<svg xmlns="http://www.w3.org/2000/svg" width="24" height="24" fill="none" viewBox="0 0 24 24"><g clip-path="url(#a)"><path fill="#01a88d" d="M0 0h24v24H0z"/><path fill="#fff" fill-rule="evenodd" d="M12 5 6 8.43v6.838l6 3.429 6-3.429V8.43zm7 3.43a1 1 0 0 0-.504-.87l-6-3.428a1 1 0 0 0-.992 0l-6 3.429A1 1 0 0 0 5 8.429v6.84a1 1 0 0 0 .504.868l6 3.428a1 1 0 0 0 .992 0l6-3.428a1 1 0 0 0 .504-.869z" clip-rule="evenodd"/><path fill="#fff" fill-rule="evenodd" d="M8 9.454V10.6l4 2.25 3-1.688v2.353L12 15.2l-3-1.687v-1.205l-1-.563v1.768a1 1 0 0 0 .51.872l3 1.687a1 1 0 0 0 .98 0l3-1.687a1 1 0 0 0 .51-.872v-4.06l-4 2.25zm4-.958 1.832 1.03 1.02-.573-2.362-1.328a1 1 0 0 0-.98 0L9.148 8.953l1.02.573z" clip-rule="evenodd"/></g><defs><clipPath id="a"><path fill="#fff" d="M0 0h24v24H0z"/></clipPath></defs></svg>