<svg xmlns="http://www.w3.org/2000/svg" width="24" height="24" viewBox="0 0 24 24"><title>Icon-Architecture/16/Arch_Amazon-SageMaker-Ground-Truth_16</title><g fill="none" fill-rule="evenodd"><path fill="#01a88d" d="M0 0h24v24H0z"/><path fill="#fff" d="M11 17.095h2v-1.009h-2zm3-1.735-2-1.277-2 1.277v3.631h4zm.767-.703a.5.5 0 0 1 .233.426v4.413c0 .28-.224.504-.5.504h-5a.5.5 0 0 1-.5-.504v-4.413c0-.173.088-.334.232-.426l2.5-1.596a.5.5 0 0 1 .535 0zM20 10.04v4.034a.5.5 0 0 1-.279.452l-1.74.87V17.1a.5.5 0 0 1-.22.418l-1.484 1.009-.558-.837 1.263-.859v-1.748c0-.192.107-.368.278-.452l1.315-.658-1.89-1.522.624-.788L19 13.026v-2.674l-1.727-.87a.5.5 0 0 1-.275-.45v-.946h-2V7.077h2V6.37l-4.001-1.335-1.028.332v3.42l2.339 1.866-.619.79-2.53-2.016a.5.5 0 0 1-.19-.395V5.36l-.949-.32-1.019.43v2.516h-.999V5.89l-1.077.452v2.373l1.537.746 1.262-.849.554.84L9 10.31v1.477l1.277.859-.554.84-1.222-.823-1.223.822-.553-.839 1.276-.86v-1.43l-1.568-.76-1.434.75v.707l.752-.441.502.873L5 12.22v1.541l1.74.87c.17.085.278.26.278.453v1.748l1.263.859-.558.837-1.484-1.009a.5.5 0 0 1-.22-.418v-1.704l-1.741-.87A.5.5 0 0 1 4 14.074V10.04c0-.189.104-.361.27-.448l1.655-.867V6.006c0-.204.121-.387.307-.465L9.809 4.04a.5.5 0 0 1 .35-.013l1.314.441 1.375-.443a.5.5 0 0 1 .308.002l4.498 1.501a.505.505 0 0 1 .343.479V8.72l1.726.87c.17.084.277.26.277.45"/></g></svg>