<svg xmlns="http://www.w3.org/2000/svg" width="24" height="24" viewBox="0 0 24 24"><title>Icon-Architecture/16/Arch_Amazon-Monitron_16</title><g fill="none" fill-rule="evenodd"><path fill="#01a88d" d="M0 0h24v24H0z"/><path fill="#fff" d="M12 19c-3.52 0-6.433-2.613-6.92-6h3.469l1.546 3.744a.5.5 0 0 0 .462.309l.018-.001a.5.5 0 0 0 .457-.344l2.536-7.747.999 2.712a.5.5 0 0 0 .469.327H19c0 3.86-3.141 7-7 7m0-14c3.52 0 6.433 2.613 6.92 6h-3.535L14.01 7.267a.52.52 0 0 0-.478-.328.5.5 0 0 0-.467.345l-2.563 7.828-1.157-2.803A.5.5 0 0 0 8.883 12H5c0-3.86 3.141-7 7-7m0-1c-4.411 0-8 3.589-8 8s3.589 8 8 8 8-3.589 8-8-3.589-8-8-8"/></g></svg>