<svg xmlns="http://www.w3.org/2000/svg" width="24" height="24" viewBox="0 0 24 24"><title>Icon-Architecture/16/Arch_Amazon-Translate_16</title><g fill="none" fill-rule="evenodd"><path fill="#01a88d" d="M0 0h24v24H0z"/><path fill="#fff" d="M15.98 15.452c.338-.364.602-.797.803-1.315h-1.636c.204.505.484.947.833 1.315m-2.09 1.181c.663-.189 1.202-.445 1.642-.78-.422-.465-.763-1.042-1.012-1.716h-.552a.14.14 0 0 1-.139-.141v-.29a.14.14 0 0 1 .14-.14h1.708v-.632q.001-.06.045-.102a.15.15 0 0 1 .105-.037l.392.026q.06.005.1.051c.024.031.035.07.03.108a.2.2 0 0 1-.087.138v.447h1.74a.14.14 0 0 1 .14.14v.29a.14.14 0 0 1-.14.142h-.5a.2.2 0 0 1-.125.092c-.24.646-.555 1.178-.964 1.618a4.3 4.3 0 0 0 1.673.762.14.14 0 0 1 .103.098.14.14 0 0 1-.036.138 1.3 1.3 0 0 0-.187.261.14.14 0 0 1-.158.07c-.725-.186-1.33-.485-1.848-.913-.486.385-1.082.682-1.818.907a.14.14 0 0 1-.17-.08 1.3 1.3 0 0 0-.152-.234.14.14 0 0 1-.025-.13.14.14 0 0 1 .095-.093m-4.172-6.597-.737-2.139-.732 2.14zM9.34 7.32l1.614 4.36h-.669l-.403-1.157H8.086l-.392 1.157h-.661l1.614-4.36zm3.647 11.68h6.012v-8.023h-6.012zM20 10.476V19.5a.5.5 0 0 1-.501.5h-7.014a.5.5 0 0 1-.5-.5v-9.024a.5.5 0 0 1 .5-.5H19.5a.5.5 0 0 1 .501.5M6.002 13.998h4.902v1H5.501a.5.5 0 0 1-.501-.5V4.5a.5.5 0 0 1 .501-.5h.001l6.984.018a.5.5 0 0 1 .5.5v4.477h-1.001V5.017l-5.983-.015z"/></g></svg>