<svg xmlns="http://www.w3.org/2000/svg" width="24" height="24" viewBox="0 0 24 24"><title>Icon-Architecture/16/Arch_Amazon-Forecast_16</title><g fill="none" fill-rule="evenodd"><path fill="#01a88d" d="M0 0h24v24H0z"/><path fill="#fff" d="M15 16h1v-6h-1zm-1 1h3V9h-3zm-3-1h1v-4h-1zm-1 1h3v-6h-3zm-3-1h1v-1H7zm-1 1h3v-3H6zM17 5v1h1.168l-1.199 1h-3.028a.5.5 0 0 0-.436.256L12.528 9H9.595a.5.5 0 0 0-.476.345L8.254 12H6v1h2.617a.5.5 0 0 0 .476-.345L9.958 10h2.863a.5.5 0 0 0 .437-.256L14.234 8h2.916a.5.5 0 0 0 .321-.116L19 6.607V8h1V5zm1 4h1v10H4V5h11v1H5v12h13z"/></g></svg>