<svg xmlns="http://www.w3.org/2000/svg" width="24" height="24" viewBox="0 0 24 24"><title>Icon-Architecture/16/Arch_Amazon-Polly_16</title><g fill="none" fill-rule="evenodd"><path fill="#01a88d" d="M0 0h24v24H0z"/><path fill="#fff" d="M6.01 12.01h5.022v-1.002H6.009zm6.057 3.003h1.005v-2.002h-1.005zm4.004 0h1.004v-2.002h-1.004zm-2.026 1.001h1.005V12.01h-1.005zm5.805 3.808a.59.59 0 0 1-.674.12l-2.43-1.21a5 5 0 0 1-2.349.587c-2.48 0-4.602-1.842-4.937-4.286l.994-.136c.268 1.95 1.964 3.421 3.943 3.421.727 0 1.445-.201 2.074-.582a.5.5 0 0 1 .486-.02l1.512.755-.756-1.477a.5.5 0 0 1 .027-.501 3.9 3.9 0 0 0 .633-2.138 3.976 3.976 0 0 0-3.976-3.965q-.534 0-1.045.137l-.26-.967a5 5 0 0 1 1.305-.172c2.745 0 4.98 2.228 4.98 4.967 0 .863-.22 1.698-.641 2.433l1.213 2.368c.097.19.05.512-.1.666M6.01 10.007h3.013V9.006H6.009zm4.017-4.298 1.3 1.295h-1.3zm-5.022-.707h4.018v2.502c0 .277.225.5.502.5h2.511v1.002h1.005V7.504a.5.5 0 0 0-.147-.353L9.881 4.147A.5.5 0 0 0 9.525 4l-5.023.001a.5.5 0 0 0-.502.5v12.014c0 .277.225.5.502.5h4.52v-1H5.006z"/></g></svg>