<svg xmlns="http://www.w3.org/2000/svg" width="24" height="24" viewBox="0 0 24 24"><title>Icon-Architecture/16/Arch_AWS-Deep-Learning-AMIs_16</title><g fill="none" fill-rule="evenodd"><path fill="#01a88d" d="M0 0h24v24H0z"/><path fill="#fff" d="M19 11.5c0-1.378-1.121-2.5-2.5-2.5a2.503 2.503 0 0 0-2.5 2.5c0 1.378 1.121 2.5 2.5 2.5s2.5-1.122 2.5-2.5m1 0c0 1.93-1.57 3.5-3.5 3.5S13 13.43 13 11.5 14.57 8 16.5 8 20 9.57 20 11.5M9.707 19H18v1H8.5a.5.5 0 0 1-.439-.28l-.008.004-4-8a.5.5 0 0 1 .012-.472l4-7 .013.007A.49.49 0 0 1 8.5 4H18v1H9.707l3.147 3.146-.708.708L9 5.707V10H8V6.383L5.361 11H12v1H5.309L8 17.382V13h1v5.293l3.646-3.647.708.708z"/></g></svg>