<svg xmlns="http://www.w3.org/2000/svg" width="24" height="24" viewBox="0 0 24 24"><title>Icon-Architecture/16/Arch_Amazon-Fraud-Detector_16</title><g fill="none" fill-rule="evenodd"><path fill="#01a88d" d="M0 0h24v24H0z"/><path fill="#fff" d="m18.818 6.044-.772-.64-1.487 1.665.773.641zm-1.083 5.346h2.038v-.983h-2.038zm.227-2.017L20 8.39l-.455-.88-2.038.983zm.727 8.596-3.178-2.984a6 6 0 0 1-.978.8l3.177 3.137c.214.206.57.06.804-.166.245-.237.384-.584.175-.787m-7.576-2.155c2.808 0 5.094-2.205 5.094-4.915s-2.286-4.916-5.094-4.916S6.019 8.19 6.019 10.9s2.285 4.915 5.094 4.915m8.291 1.456c.597.577.522 1.513-.17 2.181-.376.363-.836.549-1.273.549-.36 0-.707-.128-.976-.387l-3.376-3.335a6.25 6.25 0 0 1-2.496.52c-3.371 0-6.113-2.646-6.113-5.9C5 7.647 7.742 5 11.113 5c3.37 0 6.113 2.646 6.113 5.899a5.73 5.73 0 0 1-1.067 3.323zm-8.291-4.405a.5.5 0 0 0-.51.491.5.5 0 0 0 .51.492.5.5 0 0 0 .51-.492.5.5 0 0 0-.51-.491m-.51-.983h1.02V7.949h-1.02z"/></g></svg>