<svg xmlns="http://www.w3.org/2000/svg" width="24" height="24" viewBox="0 0 24 24"><title>Icon-Architecture/16/Arch_AWS-Deep-Learning-Containers_16</title><g fill="none" fill-rule="evenodd"><path fill="#01a88d" d="M0 0h24v24H0z"/><path fill="#fff" d="M5.809 7h1.69c.134 0 .26-.053.355-.146L8.707 6h.586l.854.854A.5.5 0 0 0 10.5 7h1.692l.75 1.5-.75 1.5H5.809l-.75-1.5zm-.756 3.724A.5.5 0 0 0 5.5 11h7c.19 0 .363-.107.448-.276l1-2a.5.5 0 0 0 0-.448l-1-2A.5.5 0 0 0 12.5 6h-1.793l-.853-.854A.5.5 0 0 0 9.5 5h-1a.5.5 0 0 0-.353.146L7.293 6H5.5a.5.5 0 0 0-.447.276l-1 2a.5.5 0 0 0 0 .448zm12.502 2.279a.505.505 0 0 0-.507.284C17.026 13.334 14.777 18 10.5 18c-2.278 0-5.282-.531-5.488-5H15.5a.5.5 0 0 0 .46-.695c-.531-1.252.207-1.974.585-2.244.255.144.652.507.467 1.33a.503.503 0 0 0 .483.609c.029 0 .648.022 1.36.592-.2.225-.579.491-1.3.411m2.298-.857c-.663-.662-1.338-.942-1.795-1.06a2.02 2.02 0 0 0-1.416-2.065.5.5 0 0 0-.371.035c-.69.357-1.75 1.386-1.447 2.944H4.5a.5.5 0 0 0-.5.5c0 4.313 2.187 6.5 6.5 6.5 4.272 0 6.68-3.849 7.296-4.983h.003c1.304 0 1.984-.851 2.168-1.341a.5.5 0 0 0-.114-.53"/></g></svg>