<svg xmlns="http://www.w3.org/2000/svg" width="24" height="24" viewBox="0 0 24 24"><title>Icon-Architecture/16/Arch_AWS-DeepRacer_16</title><g fill="none" fill-rule="evenodd"><path fill="#01a88d" d="M0 0h24v24H0z"/><path fill="#fff" d="M11.657 10.271c-1.026.147-1.968.935-2.798 2.343l.865.513c.654-1.108 1.367-1.75 2.062-1.857.674-.102 1.153.32 1.173.339l.685-.738c-.033-.03-.826-.762-1.987-.6m4.916 2.928a.425.425 0 0 0 .426-.377l.249-1.963a.43.43 0 0 0-.107-.343.43.43 0 0 0-.33-.142.43.43 0 0 0-.416.377l-.25 1.961a.43.43 0 0 0 .428.487m.032 1.007c-.44 0-.826-.173-1.099-.474a1.44 1.44 0 0 1-.357-1.147l.249-1.961c.09-.712.675-1.24 1.389-1.258.439.002.82.164 1.1.475s.41.728.358 1.145l-.249 1.963a1.43 1.43 0 0 1-1.39 1.257zm-4.135-1.032c-.038-.061-.094-.12-.24-.139l-.052-.003c-.426 0-1.031.589-1.367 1.733-.277.948-.19 1.743.007 2.081.027.047.083.127.144.142.12.025.337-.038.74-.497q.384-.436.63-1.278c.208-.622.383-1.648.138-2.039m.851-.535c.593.947.034 2.683-.031 2.879-.2.682-.482 1.239-.834 1.639-.193.22-.74.843-1.448.843q-.13 0-.266-.03c-.324-.073-.597-.285-.789-.613-.39-.665-.43-1.767-.105-2.876.466-1.59 1.459-2.569 2.506-2.445.418.051.752.26.967.603m6.657-1.917a2.8 2.8 0 0 0-.57-2.076 2.46 2.46 0 0 0-1.816-.946 1 1 0 0 0-.076-.008l-.644-.01a.5.5 0 0 0-.326-.267c-1.381-.332-2.547-.443-3.534-.41v-.002H6.607V8.01h2.976a4.8 4.8 0 0 0-1.061.973H4.855v1.008h3.039l-.19.341c-.26.313-.624.457-1.179.45-1.062.065-1.834.616-2.24 1.61a4.5 4.5 0 0 0-.176.59q-.008.026-.013.054a4.5 4.5 0 0 0-.08 1.142.5.5 0 0 0 .206.366 5 5 0 0 0-.16.727s-.042.458-.044.458c-.103 1.124.235 1.897.955 2.18q.221.086.463.086c.467 0 .969-.246 1.41-.706.128-.134.248-.29.361-.454H8.94v-1.007H7.733c.041-.107.085-.212.12-.321.334-1.072.303-2.115-.086-2.788l-.87.504c.199.344.274 1.09-.004 1.981-.173.556-.447 1.048-.773 1.387-.238.25-.572.463-.78.38-.383-.15-.342-.918-.32-1.152l.04-.427q.045-.3.143-.619c.108-.346.261-.68.443-.962a.506.506 0 0 0-.52-.768c.038-.132.097-.288.097-.288.25-.61.695-.927 1.318-.967 1.034.01 1.612-.424 1.987-.884l.535-.95c.598-.973 2.155-2.395 5.983-1.806a2.6 2.6 0 0 0-.533.511l.793.618c.489-.632 1.129-.598 1.19-.595l.95.016a1 1 0 0 0 .069.007c.425.01.828.217 1.108.569.289.362.42.844.358 1.32l-.281 2.202a6.5 6.5 0 0 1-.29 1.25l-1.643 1.788h-3.049v1.007h3.27c.14 0 .274-.059.37-.162l1.355-1.476c.204.459.326.867.178 1.215-.161.381-.488.57-.998.572l.006 1.007c.916-.005 1.597-.426 1.918-1.186.368-.872-.038-1.721-.395-2.47l-.036-.075c.141-.435.251-.884.31-1.342z"/></g></svg>