<svg xmlns="http://www.w3.org/2000/svg" width="24" height="24" viewBox="0 0 24 24"><title>Icon-Architecture/16/Arch_Amazon-Q_16</title><g fill="none" fill-rule="evenodd"><path fill="#01a88d" d="M0 0h24v24H0z"/><path fill="#fff" d="M12.714 11.525v.847l-.709.439-.719-.44v-.845l.719-.437zm-.475 7.275a.5.5 0 0 1-.478 0l-5.5-2.988a.5.5 0 0 1-.261-.44V8.635c0-.183.101-.351.262-.44l5.501-2.982a.49.49 0 0 1 .475 0l5.5 2.983a.5.5 0 0 1 .262.439v6.43l-4.286-2.69v-1.13a.5.5 0 0 0-.238-.425l-1.208-.743a.5.5 0 0 0-.522 0l-1.22.742a.5.5 0 0 0-.24.427v1.406a.5.5 0 0 0 .24.426l1.219.747a.497.497 0 0 0 .524-.001l.943-.584 4.298 2.698zm5.976-11.484-5.499-2.982a1.49 1.49 0 0 0-1.431-.001l-5.5 2.983A1.5 1.5 0 0 0 5 8.634v6.739c0 .55.301 1.056.784 1.318l5.5 2.988a1.5 1.5 0 0 0 1.432 0l5.5-2.988c.483-.262.784-.767.784-1.318v-6.74a1.5 1.5 0 0 0-.785-1.317"/></g></svg>