<svg xmlns="http://www.w3.org/2000/svg" width="24" height="24" viewBox="0 0 24 24"><title>Icon-Architecture/16/Arch_Amazon-Transcribe_16</title><g fill="none" fill-rule="evenodd"><path fill="#01a88d" d="M0 0h24v24H0z"/><path fill="#fff" d="M18.263 7.952 15.97 5.701v2.251zM20 16.512a.5.5 0 0 1-.505.5h-4.54V16.01h4.036l-.003-7.055h-3.523a.503.503 0 0 1-.504-.501V5.003h-3.1v2.978h-1.008V4.502c0-.276.226-.501.504-.501L15.465 4c.13 0 .257.05.354.144l4.028 3.953c.098.096.15.225.15.357zM6.93 15h1.008v-2.006H6.93zm1.988 1.003h1.01v-4.012h-1.01zM10.912 15h1.01v-2.006h-1.01zm2.266 1.457.841.554c-.992 1.49-2.504 2.346-4.15 2.346a5.7 5.7 0 0 1-2.56-.633l-2.46 1.227a.5.5 0 0 1-.233.048c-.168 0-.35-.06-.454-.166a.58.58 0 0 1-.092-.675l1.266-2.38c-.347-.589-.788-1.537-.788-2.574 0-2.814 2.292-4.936 5.332-4.936 1.124 0 1.93.397 2.632.826l-.53.855c-.683-.419-1.275-.678-2.102-.678-2.096 0-4.323 1.379-4.323 3.933 0 .689.285 1.52.784 2.281.1.153.108.347.023.509l-.784 1.47 1.518-.755a.51.51 0 0 1 .49.02c.635.386 1.509.625 2.28.625 1.78 0 2.838-1.188 3.31-1.897"/></g></svg>