<svg xmlns="http://www.w3.org/2000/svg" width="40" height="40" fill="none" viewBox="0 0 40 40"><g clip-path="url(#a)"><path fill="#dd344c" d="M0 0h40v40H0z"/><path fill="#fff" d="m30.667 12.003-9.5-5.014a2.5 2.5 0 0 0-2.334 0l-9.5 5.014A2.49 2.49 0 0 0 8 14.214v11.544c0 .928.51 1.774 1.33 2.21L18.827 33a2.5 2.5 0 0 0 2.344-.002l9.503-5.054A2.5 2.5 0 0 0 32 25.737V14.214c0-.93-.51-1.777-1.333-2.211M9.8 12.887l9.5-5.014a1.5 1.5 0 0 1 1.4 0l9.5 5.014c.493.26.8.77.8 1.327v2.438l-10.5 5.485v-5.175a.5.5 0 0 0-.732-.443L9 22.181v-7.967c0-.557.307-1.066.8-1.327m20.405 14.174-9.502 5.054a1.5 1.5 0 0 1-1.407.001l-9.498-5.033A1.5 1.5 0 0 1 9 25.758V23.31l10.5-5.52v5.172a.5.5 0 0 0 .731.443L31 17.78v7.957c0 .556-.305 1.063-.795 1.324"/></g><defs><clipPath id="a"><path fill="#fff" d="M0 0h40v40H0z"/></clipPath></defs></svg>