<svg xmlns="http://www.w3.org/2000/svg" width="40" height="40" fill="none" viewBox="0 0 40 40"><g clip-path="url(#a)"><path fill="#dd344c" d="M0 0h40v40H0z"/><path fill="#fff" d="M31.91 10H11.09C9.94 10 9 10.94 9 12.09v14.83c0 1.15.93 2.08 2.08 2.08H20v4.01a.5.5 0 0 0 .5.5c.11 0 .22-.04.31-.11l5.54-4.4h5.56c1.15 0 2.09-.94 2.09-2.09V12.09c0-1.15-.94-2.09-2.09-2.09M33 26.91c0 .6-.49 1.09-1.09 1.09h-5.73a.5.5 0 0 0-.31.11L21 31.97V28.5c0-.28-.22-.5-.5-.5h-9.42c-.6 0-1.08-.49-1.08-1.08V12.09c0-.6.49-1.09 1.09-1.09h20.82c.6 0 1.09.49 1.09 1.09zM7 8.09v15.12c0 .44.35.79.79.79H8v1h-.21C6.8 25 6 24.2 6 23.21V8.09C6 6.94 6.94 6 8.09 6h18.82C28.06 6 29 6.94 29 8.09V9h-1v-.91c0-.6-.49-1.09-1.09-1.09H8.09C7.49 7 7 7.49 7 8.09m16.85 11.74c-.26-.16-.53-.29-.81-.41.79-.57 1.31-1.49 1.31-2.54 0-1.73-1.41-3.14-3.13-3.14s-3.14 1.41-3.14 3.14c0 1.04.52 1.97 1.31 2.54-1.92.79-3.28 2.77-3.28 5.08 0 .28.22.5.5.5h9.22c.28 0 .5-.22.5-.5 0-1.93-.93-3.68-2.48-4.67m-2.63-5.08c1.18 0 2.13.96 2.13 2.14s-.96 2.14-2.13 2.14-2.14-.96-2.14-2.14.96-2.14 2.14-2.14M17.13 24c.23-2.22 1.98-3.95 4.09-3.95.74 0 1.46.21 2.09.62 1.11.71 1.85 1.96 1.99 3.33z"/></g><defs><clipPath id="a"><path fill="#fff" d="M0 0h40v40H0z"/></clipPath></defs></svg>