<svg xmlns="http://www.w3.org/2000/svg" width="24" height="24" viewBox="0 0 24 24"><title>Icon-Architecture/16/Arch_AWS-Migration-Hub_16</title><g fill="none" fill-rule="evenodd"><path fill="#01a88d" d="M0 0h24v24H0z"/><path fill="#fff" d="m11.646 11.026-3 3 .707.707L12 12.087l2.646 2.646.707-.707-3-3a.5.5 0 0 0-.707 0m-2.293.707L12 9.087l2.646 2.646.707-.707-3-3a.5.5 0 0 0-.707 0l-3 3zM12 17.82l-3.777-1.888-.447.895 4 2a.5.5 0 0 0 .447 0l4-2-.447-.895zM18.825 8l-3.5-3-.651.759L18 8.609v3.771h1v-4a.5.5 0 0 0-.175-.38m-9.5-2.241L6 8.609v3.771H5v-4A.5.5 0 0 1 5.174 8l3.5-3z"/></g></svg>