<svg xmlns="http://www.w3.org/2000/svg" width="24" height="24" fill="none" viewBox="0 0 24 24"><g clip-path="url(#a)"><path fill="#01a88d" d="M0 0h24v24H0z"/><path fill="#fff" d="M19 5.981v2.5a.5.5 0 0 1-.5.5H16v-1h1.546l-4.235-2.606a2.48 2.48 0 0 0-2.62 0L6.713 7.82A1.49 1.49 0 0 0 6 9.099v3.181l3-2.062V8.98c0-.167.084-.323.223-.416l1.5-1c.15-.1.34-.111.5-.031l.777.388.776-.388c.159-.08.351-.07.501.03l1.5 1a.5.5 0 0 1 .223.417v.69l.724.363a.5.5 0 0 1 .276.447v.15l-1 .7v-.541l-.724-.362A.5.5 0 0 1 14 9.981v-.732l-1.036-.69-.74.37a.5.5 0 0 1-.448 0l-.74-.37-1.036.69v1.232a.5.5 0 0 1-.217.412l-4 2.75A.501.501 0 0 1 5 13.231V9.099c0-.875.445-1.671 1.19-2.13l3.976-2.446a3.48 3.48 0 0 1 3.669 0L18 7.086V5.981zm-.268 4.308a.5.5 0 0 0-.515.03l-4 2.75a.5.5 0 0 0-.217.412v1.232l-1.036.69-.74-.37a.5.5 0 0 0-.448 0l-.74.37-1.036-.69v-.732a.5.5 0 0 0-.276-.447L9 13.172v-.541l-1 .7v.15c0 .19.107.362.276.447L9 14.29v.691c0 .167.084.323.223.416l1.5 1c.15.1.34.11.5.031L12 16.04l.776.388c.159.08.351.069.501-.031l1.5-1a.5.5 0 0 0 .223-.416v-1.237l3-2.062v3.181a1.49 1.49 0 0 1-.714 1.278l-3.976 2.446a2.48 2.48 0 0 1-2.62 0l-4.236-2.606H8v-1H5.5a.5.5 0 0 0-.5.5v2.5h1v-1.106l4.165 2.564c.567.349 1.2.523 1.835.523s1.268-.174 1.834-.523l3.976-2.446a2.49 2.49 0 0 0 1.19-2.13v-4.132a.5.5 0 0 0-.268-.442"/></g><defs><clipPath id="a"><path fill="#fff" d="M0 0h24v24H0z"/></clipPath></defs></svg>