<svg xmlns="http://www.w3.org/2000/svg" width="24" height="24" fill="none" viewBox="0 0 24 24"><g clip-path="url(#a)"><path fill="#01a88d" d="M0 0h24v24H0z"/><path fill="#fff" d="M16.86 13.996c-.011.041-.027.081-.039.122V14c.013 0 .025-.004.038-.004m.636-5.475q.004-.066.004-.132c0-1.195-.945-2.167-2.107-2.167-.41 0-.802.122-1.135.342C13.58 5.021 12.09 4 10.393 4c-2.344 0-4.25 1.969-4.25 4.389q0 .117.006.233C4.881 9.068 4 10.305 4 11.722 4 13.53 5.426 15 7.179 15H13c1.102 0 2-.897 2-2s-.898-2-2-2-2 .897-2 2h1a1 1 0 0 1 2 0 1 1 0 0 1-1 1H7.179C5.978 14 5 12.978 5 11.722c0-1.1.751-2.041 1.786-2.239a.5.5 0 0 0 .4-.565 4 4 0 0 1-.043-.53C7.143 6.52 8.6 5 10.393 5c1.511 0 2.811 1.072 3.16 2.607a.5.5 0 0 0 .913.15 1.09 1.09 0 0 1 .927-.535c.61 0 1.107.524 1.107 1.167q0 .187-.072.397a.5.5 0 0 0 .458.663C18.07 9.484 19 10.483 19 11.722c0 .83-.431 1.55-1.068 1.949-.057.42-.15.828-.306 1.21C18.988 14.51 20 13.24 20 11.721c0-1.578-1.061-2.886-2.504-3.201M13 9c-1.2 0-2.266.542-3 1.382V8.45l.334.338q.442-.284.94-.47L9.874 6.898a.5.5 0 0 0-.352-.148c-.172-.022-.261.05-.355.145L7.73 8.315a5 5 0 0 1 .948.468L9 8.465V13h1c0-1.654 1.346-3 3-3s3 1.346 3 3c0 1.603-1.616 3.824-3 5.668-.633-.844-1.305-1.764-1.854-2.668H9.99c.673 1.213 1.585 2.437 2.399 3.52l.21.28a.5.5 0 0 0 .8 0l.21-.28C15.121 17.51 17 15.01 17 13c0-2.206-1.794-4-4-4"/></g><defs><clipPath id="a"><path fill="#fff" d="M0 0h24v24H0z"/></clipPath></defs></svg>