<svg xmlns="http://www.w3.org/2000/svg" width="24" height="24" fill="none" viewBox="0 0 24 24"><path fill="#e7157b" d="M0 0h24v24H0z"/><path fill="#fff" d="M17.636 15.327c-.26-.242-.35-.34-.35-.485 0-2.124-.014-8.162-3.942-9.285A1.45 1.45 0 0 0 12 4.647c-.608 0-1.128.378-1.344.91-3.928 1.123-3.942 7.161-3.942 9.285 0 .146-.091.243-.35.485-.397.371-.999.932-.999 2.173a.5.5 0 0 0 .5.5h4.197A2.07 2.07 0 0 0 12 19.352c.889 0 1.643-.565 1.938-1.352h4.197a.5.5 0 0 0 .5-.5c0-1.241-.602-1.802-1-2.173M12 18.352c-.313 0-.589-.139-.785-.352h1.57a1.07 1.07 0 0 1-.785.352M6.418 17c.106-.455.362-.693.629-.942.297-.277.667-.623.667-1.216 0-3.641.444-8.483 4.286-8.483s4.286 4.842 4.286 8.483c0 .593.37.939.667 1.216.267.249.523.487.629.942z"/></svg>