<svg xmlns="http://www.w3.org/2000/svg" width="24" height="24" viewBox="0 0 24 24"><title>Icon-Architecture/16/Arch_AWS-Organizations_16</title><g fill="none" fill-rule="evenodd"><path fill="#e7157b" d="M0 0h24v24H0z"/><path fill="#fff" d="M19.001 19.003h-1.06v-1.06h1.061zm-5.994 0h-1.014v-1.06h1.014zm-5.993 0H5.999v-1.06h1.015zM19.5 16.945H19v-1.496a.5.5 0 0 0-.5-.498h-5.494v-.562h-.998v.562H6.514c-.275 0-.5.222-.5.498v1.496H5.5a.5.5 0 0 0-.499.5V19.5a.5.5 0 0 0 .5.499h2.013a.5.5 0 0 0 .5-.499v-2.056a.5.5 0 0 0-.5-.5h-.5v-.998h4.996v.998h-.516a.5.5 0 0 0-.5.5V19.5a.5.5 0 0 0 .5.499h2.014a.5.5 0 0 0 .5-.499v-2.056a.5.5 0 0 0-.5-.5h-.5v-.998h4.995v.998h-.561a.5.5 0 0 0-.5.5V19.5a.5.5 0 0 0 .5.499h2.06a.5.5 0 0 0 .499-.499v-2.056a.5.5 0 0 0-.5-.5M12.499 6.042l2.702 1.163-2.712 1.218-2.716-1.217zm.498 6.568L12.99 9.29l2.952-1.324v2.957zm-3.97-4.645 2.964 1.326.008 3.32-2.971-1.688zm-.746 3.681 3.972 2.258a.5.5 0 0 0 .496-.001l3.942-2.257a.5.5 0 0 0 .25-.433V7.196c0-.2-.12-.38-.301-.458L12.698 5.04a.5.5 0 0 0-.394 0L8.331 6.736a.5.5 0 0 0-.302.459v4.017c0 .18.096.346.252.433"/></g></svg>