<svg xmlns="http://www.w3.org/2000/svg" width="24" height="24" fill="none" viewBox="0 0 24 24"><g clip-path="url(#a)"><path fill="#e7157b" d="M0 0h24v24H0z"/><path fill="#fff" d="M18 13v-1c-.12-.996-.743-1.93-1.708-2.507A3.5 3.5 0 0 0 14.5 9c-.187 0-.367.027-.546.055.024-.183.046-.366.046-.555 0-.21-.034-.41-.062-.611A1.502 1.502 0 0 0 16 6.5c0-.827-.673-1.5-1.5-1.5-.604 0-1.122.36-1.36.876a4.5 4.5 0 0 0-.715-.768A2.499 2.499 0 0 1 17 6.5c0 .726-.316 1.376-.813 1.833.213.086.42.184.619.302 1.232.737 2.03 1.942 2.191 3.307L19 13zm-8.777 4H4.5a.5.5 0 0 1-.5-.5 5.505 5.505 0 0 1 3.515-5.123A3.5 3.5 0 0 1 6 8.5C6 6.57 7.57 5 9.5 5S13 6.57 13 8.5a3.5 3.5 0 0 1-1.517 2.879c.287.111.57.238.835.397a5.52 5.52 0 0 1 2.294 2.714l-.052-.05c-.35-.353-.835-.473-1.297-.398a4.5 4.5 0 0 0-1.458-1.408A4.5 4.5 0 0 0 9.5 12a4.507 4.507 0 0 0-4.473 4h5.446zm.277-6c1.379 0 2.5-1.122 2.5-2.5S10.879 6 9.5 6A2.503 2.503 0 0 0 7 8.5C7 9.878 8.121 11 9.5 11m10 3H17v1h1l-2.453 1.84-1.694-1.694a.5.5 0 0 0-.665-.037l-5 4 .624.782 4.65-3.721 1.685 1.683a.5.5 0 0 0 .653.047l3.2-2.4V17h1v-2.5a.5.5 0 0 0-.5-.5"/></g><defs><clipPath id="a"><path fill="#fff" d="M0 0h24v24H0z"/></clipPath></defs></svg>