<svg xmlns="http://www.w3.org/2000/svg" width="24" height="24" viewBox="0 0 24 24"><title>Icon-Architecture/16/Arch_AWS-Systems-Manager_16</title><g fill="none" fill-rule="evenodd"><path fill="#e7157b" d="M0 0h24v24H0z"/><path fill="#fff" d="M7.031 9.268q0 .207.024.406a.497.497 0 0 1-.398.551C6.028 10.39 5 10.882 5 12.35c0 1.132.811 1.921 1.54 1.921h3.497v1H6.54c-1.227 0-2.54-1.174-2.54-2.92 0-1.416.751-2.5 2.032-2.977l-.001-.106c0-1.62 1.1-3.299 2.559-3.907 1.7-.712 3.501-.359 4.817.943q.523.52.881 1.214a2 2 0 0 1 1.077-.31c.903 0 1.915.65 2.147 2.07 1.256.334 2.47 1.288 2.47 3.093h-1c0-1.67-1.411-2.087-2.017-2.189a.5.5 0 0 1-.409-.587c-.077-.999-.689-1.388-1.191-1.388a1.07 1.07 0 0 0-.857.45.501.501 0 0 1-.871-.13c-.219-.607-.534-1.115-.934-1.512-.489-.485-1.835-1.525-3.728-.73-1.09.453-1.944 1.764-1.944 2.983m8.674 6.836a.67.67 0 0 1-.473.207c-.208.028-.351-.064-.481-.188a.672.672 0 0 1 .454-1.161h.014a.67.67 0 0 1 .467.188c.13.125.204.293.207.473a.67.67 0 0 1-.188.481m-.52-2.142a1.66 1.66 0 0 0-1.174.514c-.31.322-.476.746-.467 1.193s.191.865.513 1.175c.315.302.726.467 1.161.467h.034a1.66 1.66 0 0 0 1.174-.514c.31-.322.476-.746.467-1.194a1.66 1.66 0 0 0-.513-1.174q-.485-.465-1.195-.467m2.942 3.39-.985-.199a.5.5 0 0 0-.393.087l-.504.37a.5.5 0 0 0-.202.344l-.116.992h-1.459l-.115-.986a.5.5 0 0 0-.2-.344l-.51-.377a.5.5 0 0 0-.394-.088l-.978.195-.449-1.388.915-.42a.5.5 0 0 0 .268-.299l.191-.587a.5.5 0 0 0-.04-.4l-.492-.877 1.18-.857.676.734a.5.5 0 0 0 .368.162h.003l.634-.004a.5.5 0 0 0 .364-.162l.672-.728 1.18.86-.49.872a.5.5 0 0 0-.041.397l.189.593a.5.5 0 0 0 .268.302l.912.42zm1.274-2.11-1.116-.515-.056-.175.602-1.07a.5.5 0 0 0-.142-.65L16.79 11.45a.5.5 0 0 0-.661.066l-.827.895-.196.001-.827-.898a.5.5 0 0 0-.662-.066l-1.901 1.38a.5.5 0 0 0-.142.65l.603 1.073-.055.17-1.121.513a.5.5 0 0 0-.268.61l.725 2.234a.5.5 0 0 0 .573.336l1.196-.239.158.116.14 1.211a.5.5 0 0 0 .497.443l2.35.002a.5.5 0 0 0 .497-.442l.142-1.218.15-.11 1.205.242a.5.5 0 0 0 .574-.336l.728-2.233a.5.5 0 0 0-.267-.609"/></g></svg>