<svg xmlns="http://www.w3.org/2000/svg" width="24" height="24" viewBox="0 0 24 24"><title>Icon-Architecture/16/Arch_AWS-Control-Tower_16</title><g fill="none" fill-rule="evenodd"><path fill="#e7157b" d="M0 0h24v24H0z"/><path fill="#fff" d="M13.82 14.006c-.27.272-.599.444-.945.529v-1.481h1.47c-.085.347-.255.68-.525.952m-2.854 0a2.03 2.03 0 0 1-.525-.952h1.469v1.48a2 2 0 0 1-.944-.528m0-2.877c.268-.271.597-.442.942-.528l.001 1.48h-1.467c.084-.348.254-.68.524-.952m2.854 0c.269.271.44.604.525.953h-1.472v-1.483c.345.085.676.257.947.53m2.766-.893-.666.702 1.183 1.144h-1.776a2.98 2.98 0 0 0-.826-1.64 2.9 2.9 0 0 0-1.63-.809l-.002-1.81 1.212 1.17.667-.701L12.375 6l-2.236 2.303.688.68 1.078-1.11.002 1.761a2.9 2.9 0 0 0-1.623.808 2.98 2.98 0 0 0-.826 1.64H7.755l1.063-1.167-.71-.657L6 12.57l2.11 2.283.706-.663-1.05-1.135h1.692c.1.617.38 1.188.826 1.64a2.95 2.95 0 0 0 1.628.832v1.658l-1.093-1.07-.671.7L12.388 19l2.353-2.178-.652-.716-1.212 1.121-.001-1.7a2.95 2.95 0 0 0 2.45-2.473h1.765l-1.17 1.113.663.706L19 12.569z"/></g></svg>