<svg xmlns="http://www.w3.org/2000/svg" width="24" height="24" viewBox="0 0 24 24"><title>Icon-Architecture/16/Arch_AWS-CloudFormation_16</title><g fill="none" fill-rule="evenodd"><path fill="#e7157b" d="M0 0h24v24H0z"/><path fill="#fff" d="M5.975 14.952h4.01v-1.01h-4.01zm0-4.05h3.007V9.89H5.975zm0 2.06h6.014v-1.01H5.975zm4.97 5.027H5.002V8.787h5.943v2.128h1.002V8.282a.503.503 0 0 0-.501-.505H4.5A.503.503 0 0 0 4 8.282v10.213c0 .279.225.505.501.505h6.945a.503.503 0 0 0 .5-.505v-4.548h-1.001zM20 10.94c0 2.115-1.607 2.91-2.456 3.034l-4.553.005v-1.01h4.48c.09-.02 1.527-.3 1.527-2.03 0-.887-.477-1.364-1.547-1.545a.504.504 0 0 1-.416-.541l.001-.014c-.022-.762-.477-.997-.675-1.063-.352-.119-.72-.019-.918.25a.5.5 0 0 1-.476.197.5.5 0 0 1-.397-.33c-.158-.445-.391-.738-.718-1.067-.385-.385-1.441-1.215-2.906-.594-.385.163-.736.48-1.012.915L9.09 6.6c.386-.607.893-1.057 1.468-1.3 1.403-.595 2.901-.293 4.003.81.23.23.459.487.656.814.432-.23.962-.274 1.459-.11.579.195 1.192.73 1.334 1.665 1.632.423 1.99 1.553 1.99 2.46"/></g></svg>