<svg xmlns="http://www.w3.org/2000/svg" width="24" height="24" viewBox="0 0 24 24"><title>Icon-Architecture/16/Arch_Amazon-CloudWatch_16</title><g fill="none" fill-rule="evenodd"><path fill="#e7157b" d="M0 0h24v24H0z"/><path fill="#fff" d="m18.907 18.522-1.954-1.734c-.132.14-.275.265-.424.385l1.993 1.772a.293.293 0 0 0 .408-.022.28.28 0 0 0-.023-.4m-4.882-1.44c1.652 0 2.995-1.324 2.995-2.951s-1.343-2.952-2.995-2.952c-1.651 0-2.995 1.325-2.995 2.952s1.344 2.951 2.995 2.951m5.647 2.499a1.3 1.3 0 0 1-.958.418c-.308 0-.615-.106-.86-.324l-2.203-1.957a4 4 0 0 1-1.626.348c-2.202 0-3.993-1.765-3.993-3.935s1.79-3.935 3.993-3.935 3.993 1.766 3.993 3.935c0 .67-.187 1.291-.487 1.844l2.045 1.816a1.26 1.26 0 0 1 .096 1.79m-13.134-5.45h2.495v.984H6.538C5.313 15.116 4 13.96 4 12.239c0-1.393.752-2.462 2.033-2.93l-.001-.105c0-1.595 1.098-3.25 2.555-3.848 1.696-.7 3.5-.354 4.814.93q.523.51.88 1.195a2.04 2.04 0 0 1 1.078-.306c.903 0 1.913.64 2.146 2.039 1.255.328 2.468 1.269 2.468 3.047 0 .372-.052.727-.157 1.05l-.951-.297q.109-.343.11-.753c0-1.646-1.411-2.057-2.017-2.158a.497.497 0 0 1-.408-.577c-.076-.984-.69-1.368-1.191-1.368-.332 0-.644.162-.858.443a.51.51 0 0 1-.474.192.5.5 0 0 1-.396-.32c-.218-.597-.532-1.099-.932-1.49-.49-.475-1.834-1.503-3.727-.72-1.09.448-1.942 1.74-1.942 2.941q0 .203.024.397a.48.48 0 0 1-.12.387.5.5 0 0 1-.282.159c-.628.162-1.654.649-1.654 2.092 0 1.116.812 1.893 1.54 1.893"/></g></svg>