<svg xmlns="http://www.w3.org/2000/svg" width="24" height="24" viewBox="0 0 24 24"><title>Icon-Architecture/16/Arch_AWS-Cost-and-Usage-Report_16</title><g fill="none" fill-rule="evenodd"><path fill="#7aa116" d="M0 0h24v24H0z"/><path fill="#fff" d="M14.19 12.045h3.823v-.996h-3.824zm0-2.005h3.824v-.997H14.19zm-7.264 8.47c0-.234-.25-.494-.48-.494-.227 0-.478.26-.478.495s.251.492.479.492.48-.258.48-.492m0-4.018c0-.236-.25-.493-.48-.493-.227 0-.478.257-.478.493 0 .235.251.493.479.493s.48-.258.48-.493m0-4.013c0-.235-.25-.493-.48-.493-.227 0-.478.258-.478.493 0 .236.251.494.479.494s.48-.258.48-.494m0-3.99c0-.22-.264-.492-.48-.492-.214 0-.478.272-.478.492 0 .222.264.494.479.494s.48-.272.48-.494m3.419 8.501v3.52a.49.49 0 0 1-.484.5H7.796c-.214.558-.758.99-1.35.99C5.69 20 5 19.29 5 18.51s.69-1.49 1.447-1.49c.59 0 1.135.433 1.349.992h1.58V14.99h-1.58c-.214.56-.758.992-1.35.992-.756 0-1.446-.71-1.446-1.49s.69-1.49 1.447-1.49c.59 0 1.135.432 1.349.991h1.58v-3.015h-1.58c-.214.56-.758.992-1.35.992C5.69 11.97 5 11.259 5 10.48c0-.78.69-1.49 1.447-1.49.59 0 1.135.432 1.349.991h1.58V6.988H7.793c-.22.554-.768.991-1.346.991C5.704 7.98 5 7.256 5 6.49 5 5.724 5.704 5 6.447 5c.578 0 1.126.438 1.346.99H9.86c.267 0 .484.224.484.5v7.503h5.762v.997zM20 6.49v12.02a.49.49 0 0 1-.484.5h-6.78a.49.49 0 0 1-.483-.5v-1.533h.968v1.035h5.81V6.988h-5.81v5.005h-.968V6.489c0-.275.216-.498.484-.498h6.779c.268 0 .484.223.484.498"/></g></svg>