<svg xmlns="http://www.w3.org/2000/svg" width="24" height="24" viewBox="0 0 24 24"><title>Icon-Architecture/16/Arch_AWS-Billing-Conductor_16</title><g fill="none" fill-rule="evenodd"><path fill="#7aa116" d="M0 0h24v24H0z"/><path fill="#fff" d="M16 16h2v-1h-2zm-3 0h2v-1h-2zm-3 0h2v-1h-2zm6-2h2v-1h-2zm-3 0h2v-1h-2zm-3 0h2v-1h-2zm1-4h6V8h-6zm-1 .5v-3a.5.5 0 0 1 .5-.5h7a.5.5 0 0 1 .5.5v3a.5.5 0 0 1-.5.5h-7a.5.5 0 0 1-.5-.5M9 18h10V6H9zM20 5.5v13a.5.5 0 0 1-.5.5h-11a.5.5 0 0 1-.5-.5v-13a.5.5 0 0 1 .5-.5h11a.5.5 0 0 1 .5.5M4 14h3v-1H4zm1-2h2v-1H5zm-1-2h3V9H4z"/></g></svg>