<svg xmlns="http://www.w3.org/2000/svg" width="24" height="24" viewBox="0 0 24 24"><title>Icon-Architecture/16/Arch_AWS-Budgets_16</title><g fill="none" fill-rule="evenodd"><path fill="#7aa116" d="M0 0h24v24H0z"/><path fill="#fff" d="M13.074 9.985V8.62l-2.693 2.675-.707-.71 2.686-2.668h-1.354V6.916h2.57c.276 0 .5.224.5.5v2.569zm-4.151 2.002H7.92V4.501c0-.277.224-.501.501-.501h7.114c.276 0 .501.224.501.5v7.487h-1.003V5.001h-6.11zm10.074 6.305-3.356-3.35 3.356-2.063zm-13.292.707 3.513-3.536 2.53 1.551a.5.5 0 0 0 .524 0l2.492-1.532L18.287 19zm-.702-6.12 3.338 2.046-3.338 3.36zm14.792-1.3L17.774 10.1l-.593.807 1.421 1.04L12.01 16l-6.608-4.054 1.42-1.039-.59-.807-2.025 1.479a.5.5 0 0 0-.206.404V19.5c0 .277.225.501.501.501H19.5a.5.5 0 0 0 .501-.5v-7.517c0-.16-.076-.309-.205-.404"/></g></svg>