<svg xmlns="http://www.w3.org/2000/svg" width="24" height="24" viewBox="0 0 24 24"><title>Icon-Architecture/16/Arch_Savings-Plans_16</title><g fill="none" fill-rule="evenodd"><path fill="#7aa116" d="M0 0h24v24H0z"/><path fill="#fff" d="M13.004 9H8.996l-.033.026C8.23 9.588 6 11.299 6 14.34 6 17.215 7.916 19 11 19s5-1.786 5-4.66c0-3.042-2.229-4.753-2.963-5.315zM7.822 5.97 9.301 8h3.314l1.52-2.018-1.477.492a.5.5 0 0 1-.435-.058L11 5.602c-.433.289-1.222.816-1.251.833a.5.5 0 0 1-.407.04zm11.125 2.808-.894.448c-.204-.41-.463-.647-.79-.73-.599-.153-1.343.248-1.579.414a.5.5 0 0 1-.289.092h-.856C16.168 10.545 17 12.336 17 14.34c0 3.438-2.355 5.66-6 5.66s-6-2.222-6-5.66c0-2.318 1.107-4.35 3.279-6.045L6.096 5.295a.498.498 0 0 1 .562-.768l2.77.923c.394-.262 1.294-.865 1.294-.865a.5.5 0 0 1 .555 0l1.297.864 2.768-.922a.501.501 0 0 1 .558.775L13.866 8h1.381c.355-.216 1.302-.713 2.254-.477.621.154 1.107.576 1.446 1.253M10 12.49c0 .617.56.93 1.083 1.018C12.23 13.7 13 14.505 13 15.512a2.01 2.01 0 0 1-2 2.01c-1.102 0-2-.901-2-2.01h1c0 .557.448 1.01 1 1.01s1-.453 1-1.01c0-.617-.559-.93-1.083-1.018C9.771 14.302 9 13.497 9 12.49c0-1.11.898-2.011 2-2.011 1.103 0 2 .902 2 2.01h-1c0-.556-.448-1.01-1-1.01s-1 .454-1 1.01"/></g></svg>