<svg xmlns="http://www.w3.org/2000/svg" width="40" height="40" fill="none" viewBox="0 0 40 40"><path fill="#8c4fff" d="M0 0h40v40H0z"/><path fill="#fff" d="M31.717 15.715 28 13.931v-3.525a.5.5 0 0 0-.24-.427l-3.925-2.4a.5.5 0 0 0-.509-.007L19.502 9.76l-3.824-2.188a.5.5 0 0 0-.496 0l-3.93 2.243a.5.5 0 0 0-.252.434v3.535l-3.73 1.938a.5.5 0 0 0-.27.444v7.68a.5.5 0 0 0 .283.45L11 26.08v3.526a.5.5 0 0 0 .24.426l3.926 2.4c.156.096.35.099.509.008l3.825-2.188 3.825 2.188a.5.5 0 0 0 .509-.008l3.927-2.4a.5.5 0 0 0 .239-.426V26.08l3.717-1.784a.5.5 0 0 0 .283-.45v-7.68a.5.5 0 0 0-.283-.45M19.5 21.651l-1.42-.824v-1.632l1.42-.833 1.42.833v1.632zm-4.064 9.774L12 29.325v-3.56a.5.5 0 0 0-.283-.45L8 23.53V16.47l3.73-1.938a.5.5 0 0 0 .27-.444V10.54l3.43-1.958L19 10.625v6.87l-1.674.982a.5.5 0 0 0-.247.431v2.207a.5.5 0 0 0 .25.433l1.671.97v6.867zM31 23.53l-3.717 1.784a.5.5 0 0 0-.283.45v3.56l-3.436 2.1-3.563-2.039v-6.87l1.67-.968a.5.5 0 0 0 .249-.432v-2.208a.5.5 0 0 0-.247-.43L20 17.495v-6.87l3.564-2.04 3.435 2.1v3.56a.5.5 0 0 0 .283.45L31 16.48z"/></svg>