<svg xmlns="http://www.w3.org/2000/svg" width="80" height="80" fill="none" viewBox="0 0 80 80"><path fill="#c925d1" d="M0 0h80v80H0z"/><path fill="#fff" d="M42 65.647c-2.08.22-4.405.353-7 .353-12.397 0-19-2.904-19-5V50.22C19.602 52.798 27.51 54 35 54c2.34 0 4.722-.117 7-.358v-1.995c-2.08.22-4.405.353-7 .353-12.397 0-19-2.904-19-5V35.22C19.602 37.798 27.51 39 35 39c2.34 0 4.722-.117 7-.358v-1.995c-2.08.22-4.405.353-7 .353-12.397 0-19-2.904-19-5v-9.78C19.602 24.798 27.51 26 35 26s15.398-1.203 19-3.78V26h2v-7c0-4.81-10.886-7-21-7s-21 2.19-21 7v42c0 4.81 10.886 7 21 7 2.34 0 4.721-.119 7-.359zM35 14c12.398 0 19 2.904 19 5s-6.602 5-19 5-19-2.904-19-5 6.602-5 19-5m21 20h-8v-2h8zm6 4H48v-2h14zm-8.192 17L48 46h2.384L55 53.153 59.616 46H62l-5.808 9L62 64h-2.384L55 56.847 50.384 64H48zM62 42H48v-2h14zm3-14H45a1 1 0 0 0-1 1v38a1 1 0 0 0 1 1h20a1 1 0 0 0 1-1V29a1 1 0 0 0-1-1m-1 38H46V30h18z"/></svg>