<svg xmlns="http://www.w3.org/2000/svg" width="24" height="24" viewBox="0 0 24 24"><title>Icon-Architecture/16/Arch_Amazon-Redshift_16</title><g fill="none" fill-rule="evenodd"><path fill="#8c4fff" d="M0 0h24v24H0z"/><path fill="#fff" d="M14.474 10.735c0-.134.105-.242.234-.242a.24.24 0 0 1 .235.242c0 .267-.47.267-.47 0m-1.217 3.022a.24.24 0 0 1 .235-.242c.13 0 .234.108.234.242 0 .268-.469.268-.469 0m-2.921-.504a.24.24 0 0 1 .234-.242.24.24 0 0 1 .235.242c0 .268-.469.268-.469 0m-1.217 2.77c0-.133.106-.242.235-.242s.233.109.233.242c0 .267-.468.267-.468 0m5.59-6.557c-.676 0-1.227.569-1.227 1.269 0 .355.144.674.372.905l-.326.855c-.013 0-.024-.007-.036-.007-.455 0-.838.27-1.05.653l-.699-.164c-.126-.564-.591-.993-1.173-.993-.676 0-1.226.569-1.226 1.269 0 .262.096.493.228.695l-.343.832a1.243 1.243 0 0 0-1.102 1.243c0 .7.55 1.27 1.227 1.27.676 0 1.225-.57 1.225-1.27 0-.368-.158-.694-.402-.926l.25-.605c.049.007.093.03.143.03.409 0 .753-.221.977-.538l.8.188c.167.494.612.854 1.145.854.676 0 1.226-.57 1.226-1.27 0-.308-.12-.582-.299-.803l.368-.966a1.244 1.244 0 0 0 1.15-1.252c0-.7-.551-1.269-1.228-1.269M12 18.973c-2.644 0-4.008-.827-4.008-1.18V8.59c.96.559 2.489.847 4.008.847s3.047-.288 4.008-.847v9.203c0 .353-1.364 1.18-4.008 1.18m0-12.98c2.487 0 4.008.783 4.008 1.21S14.487 8.41 12 8.41s-4.008-.782-4.008-1.208c0-.427 1.521-1.21 4.008-1.21m5 1.21c0-2.937-10-2.937-10 0l.001.006H7v10.584C7 19.243 9.515 20 12 20s5-.758 5-2.207V7.209h-.001z"/></g></svg>