<svg xmlns="http://www.w3.org/2000/svg" width="24" height="24" fill="none" viewBox="0 0 24 24"><path fill="#8c4fff" d="M0 0h24v24H0z"/><path fill="#fff" d="M18.744 8.842 17 7.87V5.963a.5.5 0 0 0-.248-.431l-2.504-1.464a.5.5 0 0 0-.499-.003L11.5 5.345l-2.249-1.28a.5.5 0 0 0-.499.003L6.248 5.532A.5.5 0 0 0 6 5.963V7.87l-1.744.973A.5.5 0 0 0 4 9.279v4.465a.5.5 0 0 0 .256.437L6 15.155v1.905a.5.5 0 0 0 .248.431l2.504 1.464a.5.5 0 0 0 .499.003l2.249-1.28 2.249 1.28a.5.5 0 0 0 .499-.003l2.504-1.464A.5.5 0 0 0 17 17.06v-1.905l1.744-.974a.5.5 0 0 0 .256-.437V9.28a.5.5 0 0 0-.256-.437M11.5 12.231l-.62-.36v-.713l.62-.364.62.364v.713zm-2.493 5.715L7 16.773V14.86a.5.5 0 0 0-.256-.436L5 13.45V9.572l1.744-.973A.5.5 0 0 0 7 8.162V6.25l2.007-1.173L11 6.21v3.717l-.873.512a.5.5 0 0 0-.247.431v1.288a.5.5 0 0 0 .249.433l.871.505v3.715zM18 13.451l-1.744.974a.5.5 0 0 0-.256.436v1.912l-2.007 1.173L12 16.812v-3.715l.871-.505a.5.5 0 0 0 .25-.433V10.87a.5.5 0 0 0-.248-.43L12 9.927V6.21l1.993-1.134L16 6.25v1.912a.5.5 0 0 0 .256.437L18 9.572z"/></svg>