<svg xmlns="http://www.w3.org/2000/svg" width="24" height="24" viewBox="0 0 24 24"><title>Icon-Architecture/16/Arch_Amazon-FinSpace_16</title><g fill="none" fill-rule="evenodd"><path fill="#8c4fff" d="M0 0h24v24H0z"/><path fill="#fff" d="M5 17.963h3v-1H5zm5 0h4v-1h-4zm6 0h3v-1h-3zm-12 2h7v-1H4zm9 0h7v-1h-7zM12 5.129l1 .764v9.07h-2v-9.07zm4 9.834h-2V6.656l2 1.527zm-8 0v-6.78l2-1.527v8.307zM7 8.947v6.016H6v1h12v-1h-1V8.947l1.196.913.608-.794-6.5-4.963a.5.5 0 0 0-.608 0l-6.5 4.963.608.794z"/></g></svg>