<svg xmlns="http://www.w3.org/2000/svg" width="24" height="24" viewBox="0 0 24 24"><title>Icon-Architecture/16/Arch_Amazon-Kinesis_16</title><g fill="none" fill-rule="evenodd"><path fill="#8c4fff" d="M0 0h24v24H0z"/><path fill="#fff" d="M6.734 17.841h.992c0-.907 0-3.034 11.274-3.034v-1.001c-10.78 0-12.266 1.939-12.266 4.035M8.038 20h.992c0-1.037 0-3.466 9.97-3.466v-1.001C9.34 15.533 8.038 17.79 8.038 20M5.992 9.39H5c0 1.439.993 2.52 4.817 3.11C5.993 13.09 5 14.17 5 15.61h.992C5.992 14.396 7.472 13 19 13V12c-11.529 0-13.008-1.395-13.008-2.61m1.734-2.23h-.992c0 2.095 1.485 4.035 12.266 4.035v-1.001c-11.274 0-11.274-2.127-11.274-3.034M19 8.466v1.001C9.34 9.467 8.038 7.21 8.038 5h.992c0 1.037 0 3.466 9.97 3.466"/></g></svg>