<svg xmlns="http://www.w3.org/2000/svg" width="24" height="24" viewBox="0 0 24 24"><title>Icon-Architecture/16/Arch_Amazon-Managed-Service-for-Apache-Flink_16</title><g fill="none" fill-rule="evenodd"><path fill="#8c4fff" d="M0 0h24v24H0z"/><path fill="#fff" d="M12.618 8.314a.914.914 0 0 1-1.266 1.316.914.914 0 0 1 1.266-1.316m.746 1.984a1.914 1.914 0 0 0-2.758-2.652 1.915 1.915 0 0 0 .053 2.705c.37.357.849.533 1.326.533.502 0 1.004-.196 1.379-.586m-2.492 1.432a.5.5 0 0 0-.199-.344l-.603-.446a.5.5 0 0 0-.395-.088L8.44 11.1l-.582-1.796 1.156-.53a.5.5 0 0 0 .267-.299l.227-.694a.5.5 0 0 0-.04-.4l-.621-1.107 1.527-1.107.853.926a.5.5 0 0 0 .369.161h.002l.749-.004a.5.5 0 0 0 .365-.16l.848-.92 1.527 1.11-.619 1.101a.5.5 0 0 0-.041.396l.222.702c.043.134.14.244.268.303l1.152.53-.584 1.793-1.244-.249a.5.5 0 0 0-.394.086l-.595.436a.5.5 0 0 0-.201.346l-.147 1.253-1.888-.002zm2.974 1.805.172-1.48.243-.177 1.463.294a.5.5 0 0 0 .575-.336l.859-2.64a.5.5 0 0 0-.267-.61l-1.356-.622-.09-.283.731-1.3a.5.5 0 0 0-.142-.65l-2.245-1.634a.5.5 0 0 0-.661.066l-1.004 1.088-.311.001-1.005-1.09a.5.5 0 0 0-.662-.067l-2.248 1.63a.5.5 0 0 0-.141.65l.731 1.303-.09.277-1.361.625a.5.5 0 0 0-.267.608l.856 2.642a.496.496 0 0 0 .574.337l1.453-.29.25.184.171 1.47a.5.5 0 0 0 .496.443l2.777.003h.001c.254 0 .467-.19.498-.442m5.947 2.71.206-.18-.654-.755-.208.18c-.524.456-1.476.457-2.001-.002l-.41-.355c-.897-.785-2.417-.786-3.314-.002l-.413.358c-.524.457-1.476.458-2.001 0l-.409-.356c-.898-.785-2.417-.786-3.315-.002l-.413.358c-.523.457-1.475.458-2.001 0l-.206-.179-.654.755.204.177c.897.786 2.416.787 3.313.002l.414-.358c.523-.458 1.476-.458 2.001.001l.41.355c.898.786 2.417.787 3.313.002l.413-.358c.525-.458 1.478-.458 2.002.001l.409.355c.45.393 1.054.59 1.659.59.603 0 1.207-.196 1.655-.588m-1.654 3.734c-.605 0-1.21-.197-1.66-.59l-.409-.355c-.524-.459-1.477-.46-2.002 0l-.413.356c-.896.785-2.415.785-3.313 0l-.41-.356c-.525-.459-1.478-.46-2.001 0l-.414.356c-.897.785-2.416.785-3.313 0l-.203-.177.652-.757.206.178c.527.46 1.478.461 2.002.002l.413-.358c.898-.784 2.417-.784 3.315.002l.409.354c.525.46 1.477.46 2.001.002l.413-.358c.897-.784 2.417-.784 3.314.002l.41.354c.525.46 1.477.46 2.001.002l.209-.18.652.757-.206.178c-.447.392-1.051.588-1.653.588"/></g></svg>