<svg xmlns="http://www.w3.org/2000/svg" width="24" height="24" viewBox="0 0 24 24"><title>Icon-Architecture/16/Arch_Amazon-Athena_16</title><g fill="none" fill-rule="evenodd"><path fill="#8c4fff" d="M0 0h24v24H0z"/><path fill="#fff" d="M4.908 10.424h1.815v-1H4.908zm0 3.575h1.815v-1H4.908zM4 12.212h2.723v-1H4zm14.818 6.624a.576.576 0 0 1-.806-.007l-2.887-2.69q.48-.38.883-.835l2.813 2.749a.544.544 0 0 1-.003.783m.72-1.492-2.911-2.845a6.7 6.7 0 0 0 1.105-3.682C17.732 7.058 14.625 4 10.806 4 8.33 4 6.023 5.317 4.791 7.437l.88.497A5.95 5.95 0 0 1 10.807 5c3.259 0 5.91 2.61 5.91 5.817 0 3.209-2.651 5.819-5.91 5.819a5.93 5.93 0 0 1-4.571-2.131l-.786.634a6.95 6.95 0 0 0 5.357 2.497c1.261 0 2.441-.34 3.46-.92l3.038 2.831a1.58 1.58 0 0 0 1.112.453c.423 0 .82-.162 1.119-.455s.464-.684.465-1.1a1.53 1.53 0 0 0-.462-1.101m-6.696-3.522c-.031.02-.086.049-.176.084q-.181.07-.421.124a7 7 0 0 1-1.505.153c-1.075 0-1.872-.214-2.096-.355l-.596-4.353c.77.275 1.758.381 2.51.395a.684.684 0 0 0-.52.655c0 .381.315.691.702.691.072 0 .137-.02.202-.04.895.428 1.597.724 2.137.914zm-1.972-3.553-.26.511c-.102-.05-.183-.135-.183-.255 0-.17.14-.309.313-.309.051 0 .088.032.13.053m2.348.791a27 27 0 0 1-1.826-.78.69.69 0 0 0-.47-.41c.753-.014 1.741-.122 2.513-.407zM10.74 7.68c1.463 0 2.517.413 2.795.652-.29.22-1.336.543-2.795.543-1.48 0-2.534-.334-2.795-.54.273-.24 1.328-.655 2.795-.655m3.856.72a.4.4 0 0 0 .004-.06c0-1.145-2.257-1.66-3.86-1.66-1.601 0-3.858.515-3.854 1.72.002.018.013.112.018.131l.001.002-.01.001.747 5.429c0 1.186 2.78 1.22 3.098 1.22.613 0 1.23-.063 1.734-.178q.321-.075.566-.17c.53-.206.8-.5.794-.805l.228-1.667q.227.04.386.04c.413 0 .528-.171.616-.304l.075-.46c-.083-.336-.533-.746-.841-.994l.288-2.11-.027-.005c.006-.02.023-.036.028-.057z"/></g></svg>