<svg xmlns="http://www.w3.org/2000/svg" width="80" height="80" viewBox="0 0 80 80"><title>Icon-Architecture/64/Arch_Amazon-Deadline-Cloud_64</title><g fill="none" fill-rule="evenodd"><path fill="#ed7100" d="M0 0h80v80H0z"/><path fill="#fff" d="M55 32v12h-1.864L53 43.92v-11.3l-13-6.5-13 6.5V47.4L39.506 54.1q.002.04.006.079l-.912 1.704-13.072-7A1 1 0 0 1 25 48V32c0-.38.214-.725.553-.895l14-7c.281-.14.613-.14.894 0l14 7c.339.17.553.515.553.895m-3.001 21.435-4 2.4-3.999-2.4v-4.869l4-2.4 4 2.4zM39 39.567l4-2.4 4 2.4-.001 4.868-4 2.4-3.999-2.4zm14.515 7.577-4.516-2.71L49 39a1 1 0 0 0-.485-.857l-5-3a1 1 0 0 0-1.03 0l-5 3A1 1 0 0 0 37 39v6a1 1 0 0 0 .485.857L42 48.568V54a1 1 0 0 0 .485.857l4.999 3a.99.99 0 0 0 1.03 0l5-3a1 1 0 0 0 .485-.857L54 48a1 1 0 0 0-.485-.857M40.439 18.116l19.026 10A1 1 0 0 1 60 29v22a1 1 0 0 1-.534.886l-2.967 1.563.001-2.261 1.5-.791V29.605L39.976 20.13 22 29.606v20.792l18.024 9.474 3.171-1.672 2.006 1.205-4.71 2.481a1 1 0 0 1-.93 0l-19.026-10a1 1 0 0 1-.535-.884V29a1 1 0 0 1 .534-.886l18.975-10a1 1 0 0 1 .93 0M63 53.405 40 65.864l-23-12.46V26.597l23-12.458 23 12.458zm1.477-28.284-24-13a1 1 0 0 0-.954 0l-24 13a1 1 0 0 0-.523.88v28a1 1 0 0 0 .523.879l24 13a1 1 0 0 0 .954 0l24-13A1 1 0 0 0 65 54V26a1 1 0 0 0-.523-.879"/></g></svg>