<svg xmlns="http://www.w3.org/2000/svg" width="24" height="24" viewBox="0 0 24 24"><title>Icon-Architecture/16/Arch_AWS-IoT-Core_16</title><g fill="none" fill-rule="evenodd"><path fill="#7aa116" d="M0 0h24v24H0z"/><path fill="#fff" d="M18.234 14.628a.5.5 0 0 0-.51-.486c-.28 0-.51.218-.51.486s.23.486.51.486.51-.218.51-.486m1.019 0c0 .803-.686 1.457-1.529 1.457a1.52 1.52 0 0 1-1.435-.971h-.093V19h-1.02v-4.372c0-.268.229-.486.51-.486h.603c.211-.565.772-.972 1.435-.972.843 0 1.529.654 1.529 1.458m-5.095-2.834a.5.5 0 0 0-.51-.486.5.5 0 0 0-.51.486c0 .268.23.485.51.485s.51-.217.51-.485m0 1.368V19h-1.02v-5.838c-.591-.202-1.018-.736-1.018-1.368 0-.804.685-1.458 1.528-1.458s1.529.654 1.529 1.458c0 .632-.427 1.166-1.02 1.368m-4.075 1.466a.5.5 0 0 0-.51-.486c-.28 0-.51.218-.51.486s.23.486.51.486.51-.218.51-.486m2.038 0V19H11.1v-3.886h-.093c-.211.564-.772.971-1.435.971-.843 0-1.529-.654-1.529-1.457 0-.804.686-1.458 1.529-1.458.663 0 1.224.407 1.435.972h.603c.281 0 .51.218.51.486m7.88-2.79q.004.224-.023.43l-1.01-.116q.016-.143.014-.29c0-1.124-.861-2.03-2.005-2.131a.493.493 0 0 1-.461-.52c.005-.757-.569-1.308-1.275-1.308-.33 0-.643.122-.883.34a.53.53 0 0 1-.466.125.5.5 0 0 1-.364-.304c-.491-1.251-1.754-2.092-3.142-2.092-1.853 0-3.36 1.446-3.36 3.223 0 .21-.142.397-.351.462-.99.31-1.655 1.188-1.655 2.186 0 1.143.888 2.122 2.065 2.278l-.14.961C5.266 14.861 4 13.47 4 11.843c0-1.303.798-2.462 2.02-2.984C6.199 6.702 8.09 5 10.385 5c1.595 0 3.062.85 3.827 2.164a2.4 2.4 0 0 1 1.028-.232c1.161 0 2.124.828 2.278 1.901C18.96 9.157 20 10.38 20 11.837"/></g></svg>