<svg xmlns="http://www.w3.org/2000/svg" width="24" height="24" viewBox="0 0 24 24"><title>Icon-Architecture/16/Arch_AWS-IoT-Device-Management_16</title><g fill="none" fill-rule="evenodd"><path fill="#7aa116" d="M0 0h24v24H0z"/><path fill="#fff" d="M13 8.984c0 .552-.448 1.003-1 1.003a1.002 1.002 0 0 1 0-2.006c.552 0 1 .45 1 1.003m3 5.014c0 .553-.448 1.003-1 1.003a1.002 1.002 0 0 1 0-2.005c.552 0 1 .45 1 1.002m-2.722-1.002h-2.556a2 2 0 0 0-.768-.75l1.377-1.38c.21.076.433.124.669.124s.459-.048.669-.125l1.377 1.381a2 2 0 0 0-.768.75M9 15a1.002 1.002 0 0 1 0-2.005A1.002 1.002 0 0 1 9 15m1-6.017c0 .5.189.953.493 1.304L8.77 12.016A2 2 0 0 0 7 13.998c0 1.107.897 2.006 2 2.006s2-.9 2-2.006h2c0 1.107.897 2.006 2 2.006s2-.9 2-2.006a2 2 0 0 0-1.77-1.982l-1.723-1.728c.304-.351.493-.804.493-1.304a2.005 2.005 0 0 0-2-2.006c-1.103 0-2 .9-2 2.006m8 6.72-6 3.226-6-3.226V8.282l6-3.212 6 3.212zm.735-8.165-6.5-3.48a.5.5 0 0 0-.47 0l-6.5 3.48A.5.5 0 0 0 5 7.98v8.023a.5.5 0 0 0 .264.442l6.5 3.495a.5.5 0 0 0 .472 0l6.5-3.495a.5.5 0 0 0 .264-.442V7.981a.5.5 0 0 0-.265-.442"/></g></svg>