<svg xmlns="http://www.w3.org/2000/svg" width="24" height="24" viewBox="0 0 24 24"><title>Icon-Architecture/16/Arch_AWS-rePost-Private_16</title><g fill="none" fill-rule="evenodd"><path fill="#c925d1" d="M0 0h24v24H0z"/><path fill="#fff" d="m5 15.51 6.251 3.622-.502.864-6.5-3.765A.5.5 0 0 1 4 15.797V8.266a.5.5 0 0 1 .249-.432l6.5-3.766a.5.5 0 0 1 .502 0l4.997 2.896-.502.865L11 5.078 5 8.553zm5.03-2.541h4.952v-1H10.03zm4.993 6.018c.208-.97 1.006-1.692 1.956-1.692.358 0 .709.103 1.015.3.478.306.815.815.94 1.392zm-.065-3.996h-2.49a.5.5 0 0 0-.5.5v.752l-1.13-1.108a.5.5 0 0 0-.351-.144 2.5 2.5 0 0 1-2.5-2.5c0-1.378 1.121-2.5 2.5-2.5h6c1.379 0 2.5 1.122 2.5 2.5 0 .479-.14.93-.387 1.324a2.009 2.009 0 0 0-3.642 1.176m2.015 1.016a1.016 1.016 0 0 1 0-2.03 1.015 1.015 0 0 1 0 2.03m1.561.745a3 3 0 0 0-.328-.178c.472-.37.781-.938.781-1.583 0-.02-.005-.037-.006-.057a3.46 3.46 0 0 0 1.006-2.443c0-1.93-1.57-3.5-3.5-3.5h-6a3.505 3.505 0 0 0-3.5 3.5 3.504 3.504 0 0 0 3.289 3.494l1.841 1.806a.502.502 0 0 0 .851-.357V15.99h2.266c.132.23.306.43.514.59-1.045.502-1.777 1.613-1.777 2.907a.5.5 0 0 0 .5.5h5.016a.5.5 0 0 0 .5-.5c0-1.128-.544-2.15-1.453-2.735"/></g></svg>