<svg xmlns="http://www.w3.org/2000/svg" width="24" height="24" viewBox="0 0 24 24"><title>Icon-Architecture/16/Arch_AWS-Support_16</title><g fill="none" fill-rule="evenodd"><path fill="#c925d1" d="M0 0h24v24H0z"/><path fill="#fff" d="M15.878 16.096a1 1 0 0 1-.7.307h-.02a1 1 0 1 1 .721-.307m-2.162-2.08c-.37.386-.568.892-.558 1.426s.23 1.032.614 1.403c.375.36.865.558 1.384.558h.04a2.003 2.003 0 0 0 1.348-3.442 2.004 2.004 0 0 0-2.828.055m4.375 3.093-.988-.198a.5.5 0 0 0-.395.087l-.504.369a.5.5 0 0 0-.2.345l-.117.996-1.465-.002-.114-.987a.5.5 0 0 0-.2-.344l-.51-.378a.51.51 0 0 0-.396-.089l-.98.196-.452-1.393.92-.421a.5.5 0 0 0 .265-.299l.193-.587a.5.5 0 0 0-.04-.401l-.494-.88 1.185-.86.678.737a.5.5 0 0 0 .368.161h.003l.635-.004a.5.5 0 0 0 .366-.161l.672-.73 1.184.861-.492.876a.5.5 0 0 0-.04.397l.188.594c.043.134.14.244.268.303l.915.42zm1.275-2.116-1.119-.513-.056-.177.603-1.073a.5.5 0 0 0-.142-.65l-1.903-1.385a.5.5 0 0 0-.662.066l-.827.897-.197.001-.83-.9a.5.5 0 0 0-.662-.066l-1.905 1.382a.5.5 0 0 0-.142.65l.604 1.076-.056.171-1.124.516a.5.5 0 0 0-.266.608l.725 2.24a.5.5 0 0 0 .574.336l1.2-.24.158.118.141 1.213a.5.5 0 0 0 .496.443l2.354.002h.001c.254 0 .467-.19.496-.442l.144-1.221.151-.11 1.208.242a.5.5 0 0 0 .574-.335l.73-2.239a.5.5 0 0 0-.268-.61M6.841 7.495A2.5 2.5 0 0 1 9.336 5a2.5 2.5 0 0 1 2.495 2.495 2.5 2.5 0 0 1-2.495 2.496 2.5 2.5 0 0 1-2.495-2.496m2.584 3.54c.776 0 1.483.245 2.104.728l.615-.789a4.5 4.5 0 0 0-.924-.544 3.49 3.49 0 0 0 1.611-2.935A3.5 3.5 0 0 0 9.336 4a3.5 3.5 0 0 0-3.495 3.495c0 1.266.683 2.367 1.693 2.98-2.009.944-3.499 3.316-3.534 6.019a.5.5 0 0 0 .145.357A.5.5 0 0 0 4.5 17h5.336v-1H5.024c.257-2.991 2.41-4.965 4.401-4.965"/></g></svg>