<svg xmlns="http://www.w3.org/2000/svg" width="80" height="80" fill="none" viewBox="0 0 80 80"><g clip-path="url(#a)"><path fill="#8c4fff" d="M0 0h80v80H0z"/><path fill="#fff" d="M39 51v-2h4v2zm6 0h4v-2h-4zm6 0h4v-2h-4zm6 0h3a1 1 0 0 0 1-1v-3h-2v2h-2zm2-6h2v-4h-2zm2-10h-2v4h2zm0-5a1 1 0 0 0-1-1h-3v2h2v2h2zm-6-1h-3.958v2H55zm-6 0h-4v2h4zm-10 0v2h4v-2zm27-13H32v2h34v4H32.002v2H66v38H32v2h34c1.103 0 2-.897 2-2V18c0-1.103-.897-2-2-2M29 54v13a1 1 0 0 1-1 1H13a1 1 0 0 1-1-1V54a1 1 0 0 1 1-1h15a1 1 0 0 1 1 1m-2 1H14v11h13zM12 26V13a1 1 0 0 1 1-1h15a1 1 0 0 1 1 1v13a1 1 0 0 1-1 1H13a1 1 0 0 1-1-1m2-1h13V14H14zm20 8v6h14.576l-2.303-2.291 1.41-1.418 4.022 4a1 1 0 0 1 .22 1.09 1 1 0 0 1-.225.32l.007.006-4 4-1.414-1.414L48.586 41H34v6a1 1 0 0 1-1 1H18a1 1 0 0 1-1-1V33a1 1 0 0 1 1-1h15a1 1 0 0 1 1 1m-2 1H19v12h13z"/></g><defs><clipPath id="a"><path fill="#fff" d="M0 0h80v80H0z"/></clipPath></defs></svg>