<svg xmlns="http://www.w3.org/2000/svg" width="80" height="80" fill="none" viewBox="0 0 80 80"><g clip-path="url(#a)"><path fill="#8c4fff" d="M0 0h80v80H0z"/><path fill="#fff" d="M67.967 40.312c0 5.17-2.754 7.829-5.065 9.148l-.992-1.737c2.693-1.537 4.057-4.03 4.057-7.411 0-6.903-6.171-8.502-8.063-8.829a1 1 0 0 1-.819-1.134l.006-.034c-.02-2.998-1.28-5.124-3.461-5.841-1.943-.64-4.084.066-5.327 1.753a1.001 1.001 0 0 1-1.748-.26c-.822-2.333-2.012-4.294-3.538-5.829-1.874-1.885-7.016-5.936-14.272-2.855-4.194 1.782-7.48 6.914-7.48 11.684l.1 1.645a1 1 0 0 1-.75 1.028c-2.483.637-6.648 2.6-6.648 8.588 0 2.537.784 4.706 2.33 6.447a10 10 0 0 0 2.137 1.803l-1.067 1.692a12 12 0 0 1-2.563-2.167c-1.883-2.118-2.837-4.734-2.837-7.775 0-6.873 4.648-9.403 7.354-10.292l-.053-.91c-.002-5.663 3.737-11.477 8.696-13.584 5.814-2.469 11.973-1.239 16.47 3.286 1.398 1.405 2.543 3.11 3.418 5.084 1.768-1.469 4.174-1.97 6.403-1.238 2.842.934 4.61 3.565 4.815 7.108 2.868.677 8.897 3.01 8.897 10.63m-12 2.675v8h-2v-7H39.41c-.693 1.19-1.97 2-3.443 2s-2.75-.81-3.444-2h-8.556v-2h8c0-1.474.81-2.75 2-3.443v-6.557a1 1 0 0 1 1-1h11a1 1 0 0 1 1 1v8h-2v-7h-9v5c2.206 0 4 1.795 4 4h15a1 1 0 0 1 1 1m-18-1c0-1.103-.898-2-2-2-1.103 0-2 .897-2 2s.897 2 2 2 2-.897 2-2m11.858 11h6.142v2h-6.142a4 4 0 0 1-2.858 2.858v7.142a1 1 0 0 1-1 1h-11a1 1 0 0 1-1-1v-8h2v7h9v-6.142a4 4 0 0 1-2.858-2.858H24.967a1 1 0 0 1-1-1v-8h2v7h16.142c.447-1.72 2-3 3.858-3s3.41 1.28 3.858 3m-1.858 1c0-1.103-.898-2-2-2-1.103 0-2 .897-2 2s.897 2 2 2 2-.897 2-2"/></g><defs><clipPath id="a"><path fill="#fff" d="M0 0h80v80H0z"/></clipPath></defs></svg>