<svg xmlns="http://www.w3.org/2000/svg" id="standard_product_icon" viewBox="0 0 512 512"><defs><style>.st1{fill:#4285f4}.st3{fill:#fbbc04}.st4{fill:#ea4335}</style></defs><path id="bounding_box" d="M0 0h512v512H0z" style="fill:none"/><g id="art"><path d="M380.7 396.7H131.4c-8.8 0-16-7.2-16-16V131.4c0-8.8 7.2-16 16-16h249.3c8.8 0 16 7.2 16 16v249.3c0 8.8-7.2 16-16 16m-233.4-32h217.3V147.4H147.3z" class="st1"/><path d="M147.3 364.7h-32V131.4c0-8.8 7.2-16 16-16h146.1v32H147.3z" class="st3"/><path d="M443 364.7h-62.3c-8.8 0-16-7.2-16-16s7.2-16 16-16H443c8.8 0 16 7.2 16 16s-7.2 16-16 16" class="st1"/><path d="M443 272h-62.3c-8.8 0-16-7.2-16-16s7.2-16 16-16H443c8.8 0 16 7.2 16 16s-7.2 16-16 16M443 178.5h-62.3c-8.8 0-16-7.2-16-16s7.2-16 16-16H443c8.8 0 16 7.2 16 16s-7.2 16-16 16M349.5 147.3c-8.8 0-16-7.2-16-16V69c0-8.8 7.2-16 16-16s16 7.2 16 16v62.3c0 8.8-7.2 16-16 16M256 147.3c-8.8 0-16-7.2-16-16V69c0-8.8 7.2-16 16-16s16 7.2 16 16v62.3c0 8.8-7.2 16-16 16" class="st4"/><path d="M162.5 147.3c-8.8 0-16-7.2-16-16V69c0-8.8 7.2-16 16-16s16 7.2 16 16v62.3c0 8.8-7.2 16-16 16" class="st3"/><path d="M315 331H197c-8.8 0-16-7.2-16-16V197c0-8.8 7.2-16 16-16h118c8.8 0 16 7.2 16 16v118c0 8.8-7.2 16-16 16m-102-32h86v-86h-86z" style="fill:#34a853"/><path d="M396.7 332.7h-32V147.4H240.1v-32h140.6c8.8 0 16 7.2 16 16z" class="st4"/><path d="M162.5 459c-8.8 0-16-7.2-16-16v-62.3c0-8.8 7.2-16 16-16s16 7.2 16 16V443c0 8.8-7.2 16-16 16M256 459c-8.8 0-16-7.2-16-16v-62.3c0-8.8 7.2-16 16-16s16 7.2 16 16V443c0 8.8-7.2 16-16 16M349.5 459c-8.8 0-16-7.2-16-16v-62.3c0-8.8 7.2-16 16-16s16 7.2 16 16V443c0 8.8-7.2 16-16 16" class="st1"/><path d="M131.3 178.5H69c-8.8 0-16-7.2-16-16s7.2-16 16-16h62.3c8.8 0 16 7.2 16 16s-7.2 16-16 16M131.3 272H69c-8.8 0-16-7.2-16-16s7.2-16 16-16h62.3c8.8 0 16 7.2 16 16s-7.2 16-16 16M131.3 364.7H69c-8.8 0-16-7.2-16-16s7.2-16 16-16h62.3c8.8 0 16 7.2 16 16s-7.2 16-16 16" class="st3"/></g></svg>