<svg xmlns="http://www.w3.org/2000/svg" width="24" height="24" viewBox="0 0 24 24"><title>Icon-Architecture/16/Arch_AWS-Certificate-Manager_16</title><g fill="none" fill-rule="evenodd"><path fill="#dd344c" d="M0 0h24v24H0z"/><path fill="#fff" d="m10.055 10.81.847.835a.5.5 0 0 1 .136.467l-.165.722.872-.518a.5.5 0 0 1 .525.008l.727.465-.15-.682a.5.5 0 0 1 .15-.477l.907-.829-1.146-.186a.5.5 0 0 1-.375-.286l-.387-.847-.395.85a.5.5 0 0 1-.371.284zm-.417 2.94L10 12.16l-1.346-1.328a.5.5 0 0 1-.126-.507.5.5 0 0 1 .394-.343l1.884-.312.741-1.595a.5.5 0 0 1 .456-.29c.196 0 .372.116.453.293l.726 1.59 1.9.31a.5.5 0 0 1 .258.863l-1.453 1.331.348 1.577a.5.5 0 0 1-.757.53l-1.486-.946-1.612.957a.5.5 0 0 1-.55-.026.5.5 0 0 1-.192-.516m9.345-7.677V5H5v1.072zM20 19.498a.504.504 0 0 1-.5.5h-2.496v-1h1.994l-.014-11.925H5.001V19h9V20h-9.5A.5.5 0 0 1 4 19.5v-15a.5.5 0 0 1 .5-.5h14.982a.5.5 0 0 1 .5.5zM6.997 18.017h2.001v-1.001h-2zm4.003.012h4.003v-1.001H11zM6.997 16.02h2.001v-1h-2zm4.003 0h6.004v-1H11z"/></g></svg>