<svg xmlns="http://www.w3.org/2000/svg" width="24" height="24" viewBox="0 0 24 24"><title>Icon-Architecture/16/Arch_AWS-CloudHSM_16</title><g fill="none" fill-rule="evenodd"><path fill="#dd344c" d="M0 0h24v24H0z"/><path fill="#fff" d="M15.748 16.843a1.105 1.105 0 0 0 0-2.208 1.105 1.105 0 0 0 0 2.209M19.312 20l-.637-.63-.627.628-.692-.692.625-.626-1.171-1.16a2.05 2.05 0 0 1-1.062.302 2.084 2.084 0 0 1 0-4.165c1.147 0 2.08.934 2.08 2.082 0 .404-.12.778-.32 1.097L20 19.305zm-6.224-8.66c0-1.012-.627-1.64-1.638-1.64-1.012 0-1.639.628-1.639 1.64s.627 1.64 1.639 1.64c1.01 0 1.638-.628 1.638-1.64m.934.49c-.205 1.273-1.202 2.129-2.572 2.129-1.541 0-2.616-1.077-2.616-2.619s1.075-2.62 2.616-2.62c1.37 0 2.367.857 2.572 2.131h2.703v.978zm-7.05 4.872h5.845v.978H6.954c-.428 0-.96 0-.96-.755V14.29H5v-1.957h.995V9.306H5V7.35h.995V5.756c0-.756.531-.756.96-.756h10.747c.455 0 .971 0 .971.756v7.049h-.977V5.978H6.973z"/></g></svg>