<svg xmlns="http://www.w3.org/2000/svg" width="24" height="24" fill="none" viewBox="0 0 24 24"><path fill="#dd344c" d="M0 0h24v24H0z"/><path fill="#fff" d="M5 12.105a6.34 6.34 0 0 0 1.87 4.514l-.707.707A7.34 7.34 0 0 1 4 12.105c0-4.071 3.312-7.383 7.383-7.383 1.098 0 2.17.247 3.15.71L14.27 4.21l.978-.21.517 2.41a.5.5 0 0 1-.352.585l-2.41.688-.274-.962 1.367-.39a6.4 6.4 0 0 0-2.714-.61A6.39 6.39 0 0 0 5 12.106m11.91-5.336-.715.699a6.34 6.34 0 0 1 1.818 4.534 6.39 6.39 0 0 1-6.382 6.31h-.074a6.4 6.4 0 0 1-2.707-.64l1.372-.375-.264-.965-2.416.66a.5.5 0 0 0-.358.582l.488 2.415.98-.198-.247-1.225a7.36 7.36 0 0 0 3.226.746c4.031 0 7.335-3.257 7.382-7.298a7.34 7.34 0 0 0-2.103-5.245m-2.275 1.708a.5.5 0 0 1 .345.475v4.481c0 .999-.845 3.06-3.457 3.06-2.634 0-3.521-2.1-3.521-3.06v-4.48a.5.5 0 0 1 .349-.477l3.02-.959a.5.5 0 0 1 .306.001zm-3.612 6.966V8.677l-2.021.64v4.116c0 .373.387 1.763 2.02 2.01m2.957-6.127-1.957-.635v6.762c1.598-.247 1.957-1.614 1.957-2.01z"/></svg>