<svg xmlns="http://www.w3.org/2000/svg" width="24" height="24" viewBox="0 0 24 24"><title>Icon-Architecture/16/Arch_Amazon-Inspector_16</title><g fill="none" fill-rule="evenodd"><path fill="#dd344c" d="M0 0h24v24H0z"/><path fill="#fff" d="M18.802 18.765a.687.687 0 0 1-.958.05l-3.353-2.992q.505-.45.902-.998l3.359 2.994a.67.67 0 0 1 .05.946m-8.025-9.639a.8.8 0 0 1-.805-.796c0-.44.36-.797.805-.797.443 0 .805.358.805.797a.803.803 0 0 1-.805.796m-.66 2.696c.808 0 1.465.65 1.465 1.448 0 .799-.657 1.448-1.465 1.448-.807 0-1.463-.65-1.463-1.448s.656-1.448 1.463-1.448m-5.091-.604c0-2.87 2.359-5.203 5.259-5.203s5.259 2.333 5.259 5.203c0 .71-.146 1.389-.41 2.007l-2.568-.37a2.46 2.46 0 0 0-1.276-1.744v-1.052a1.81 1.81 0 0 0 1.318-1.729c0-.998-.822-1.811-1.831-1.811-1.01 0-1.83.813-1.83 1.811 0 .82.558 1.509 1.317 1.729v.763c-.05-.002-.096-.014-.147-.014-.72 0-1.365.31-1.82.795l-.591-.591c.245-.377.39-.822.39-1.303 0-.826-.419-1.587-1.121-2.033l-.555.853c.408.26.651.7.651 1.18 0 .774-.637 1.404-1.419 1.404v1.015c.49 0 .948-.147 1.33-.395l.78.777a2.4 2.4 0 0 0-.134.76c0 1.358 1.117 2.463 2.49 2.463a2.484 2.484 0 0 0 2.406-1.86l2.079.3a5.27 5.27 0 0 1-4.318 2.245c-2.9 0-5.26-2.332-5.26-5.2m14.414 5.847-3.512-3.128a6.1 6.1 0 0 0 .642-2.72C16.57 7.79 13.75 5 10.285 5S4 7.79 4 11.218s2.82 6.216 6.285 6.216a6.3 6.3 0 0 0 3.378-.984l3.495 3.119c.325.289.732.431 1.139.431.466 0 .931-.188 1.267-.556.627-.69.57-1.757-.125-2.38"/></g></svg>