<svg xmlns="http://www.w3.org/2000/svg" width="24" height="24" viewBox="0 0 24 24"><title>Icon-Architecture/16/Arch_Amazon-Verified-Permissions_16</title><g fill="none" fill-rule="evenodd"><path fill="#dd344c" d="M0 0h24v24H0z"/><path fill="#fff" d="M19 14v-1h-4v-2h-1v8h1v-2h4v-1h-4v-2zm-7.768-6.924-1.94 1.941-.793-.794-.707.707 1.146 1.147a.5.5 0 0 0 .708 0l2.293-2.294zm-.573 6.38-.937.937-.937-.937-.707.707.937.937-.937.937.707.707.937-.937.937.937.707-.707-.937-.937.937-.937zM6 19h7v1H5.5a.5.5 0 0 1-.5-.5v-15a.5.5 0 0 1 .5-.5h11a.5.5 0 0 1 .5.5V10h-1V5H6z"/></g></svg>