<svg xmlns="http://www.w3.org/2000/svg" width="24" height="24" viewBox="0 0 24 24"><title>Icon-Architecture/16/Arch_AWS-Artifact_16</title><g fill="none" fill-rule="evenodd"><path fill="#dd344c" d="M0 0h24v24H0z"/><path fill="#fff" d="m13.242 17.108.693.721-1.977 1.904a.503.503 0 0 1-.755.015l-1.985-1.92.695-.719 1.162 1.124v-2.265h1v2.264zm5.814-5.58c0 2.391-.982 4.549-2.695 5.92l-.625-.78c1.475-1.181 2.32-3.054 2.32-5.14A6.535 6.535 0 0 0 11.528 5 6.536 6.536 0 0 0 5 11.528c0 2.003.986 3.872 2.706 5.126l-.59.808C5.136 16.017 4 13.854 4 11.528 4 7.377 7.377 4 11.528 4c4.152 0 7.528 3.377 7.528 7.528m-8.979-.616h2v-1h-2zm0 2h3v-1h-3zm-1.016 1.077h5.016V8.015H9.061zm5.516-6.974H8.561a.5.5 0 0 0-.5.5v6.974a.5.5 0 0 0 .5.5h6.016a.5.5 0 0 0 .5-.5V7.515a.5.5 0 0 0-.5-.5"/></g></svg>