<svg xmlns="http://www.w3.org/2000/svg" width="24" height="24" viewBox="0 0 24 24"><title>Icon-Architecture/16/Arch_AWS-Network-Firewall_16</title><g fill="none" fill-rule="evenodd"><path fill="#dd344c" d="M0 0h24v24H0z"/><path fill="#fff" d="M19.005 15.998h-4v-2h4zm-4 3h-4v-2h4zm-6.834-4.99h-.189a3.18 3.18 0 0 1-2.698-1.483c-.452-.71-.46-1.668-.008-2.456.487-.739.47-1.686.346-2.413.291.284.544.646.673.876a.498.498 0 0 0 .906-.073c.448-1.228.317-2.198.036-2.895 1.098.498 2.491 1.557 2.491 3.72 0 .136.055.267.154.361a.46.46 0 0 0 .367.14c.355-.016.967-.257 1.317-.986.224.35.44.893.44 1.7v2.5h-2.5a.5.5 0 0 0-.5.5v.512a66 66 0 0 1-.835-.003m5.834 1.99h-4v-2h4zm3-3h-4v-2h4zm2.5 0h-1.5v-2.5a.5.5 0 0 0-.5-.5h-4.538C12.778 8.123 11.61 7.43 11.555 7.4a.5.5 0 0 0-.739.385 1.8 1.8 0 0 1-.159.602c-.575-3.568-4.522-4.214-4.565-4.22a.5.5 0 0 0-.387.886c.011.007.861.705.778 2.052-.41-.442-.974-.87-1.624-.87a.501.501 0 0 0-.464.686c.183.462.551 1.832.073 2.562-.016.02-.057.085-.069.108-.634 1.105-.618 2.436.042 3.472a4.18 4.18 0 0 0 3.541 1.945l.183.001.663.003h.177v1.487a.5.5 0 0 0 .5.5h.5v2.5a.5.5 0 0 0 .5.5h5a.5.5 0 0 0 .5-.5v-2.5h3.5a.5.5 0 0 0 .5-.5v-3a.5.5 0 0 0-.5-.5"/></g></svg>