<svg xmlns="http://www.w3.org/2000/svg" width="40" height="40" fill="none" viewBox="0 0 40 40"><g clip-path="url(#a)"><path fill="#fff" d="M0 0h40v40H0z"/><path fill="#ed7100" d="M0 0h40v40H0z"/><path fill="#fff" d="M11.5 28c0 .83-.67 1.5-1.5 1.5s-1.5-.67-1.5-1.5.67-1.5 1.5-1.5 1.5.67 1.5 1.5m7 0c0 .83.67 1.5 1.5 1.5s1.5-.67 1.5-1.5-.67-1.5-1.5-1.5-1.5.67-1.5 1.5M34 28c0 2.21-1.79 4-4 4s-4-1.79-4-4c0-1.12.46-2.13 1.21-2.86l-4.03-2.7-1.61 1.88a4 4 0 1 1-3.14 0l-1.61-1.88-4.03 2.7c.74.73 1.21 1.74 1.21 2.86 0 2.21-1.79 4-4 4s-4-1.79-4-4c0-1.88 1.3-3.45 3.05-3.87l1.16-7.34C8.36 16.23 7 14.53 7 12.5 7 10.02 9.02 8 11.5 8s4.5 2.02 4.5 4.5c0 1.2-.48 2.29-1.25 3.1L20 19.12l5.25-3.52A4.5 4.5 0 0 1 24 12.5c0-2.48 2.02-4.5 4.5-4.5s4.5 2.02 4.5 4.5c0 2.03-1.36 3.73-3.21 4.29l1.16 7.34c1.75.43 3.05 2 3.05 3.87m-9-15.5c0 1.93 1.57 3.5 3.5 3.5s3.5-1.57 3.5-3.5S30.43 9 28.5 9 25 10.57 25 12.5m-4.1 7.22 2.1 1.4 3.82-4.46c-.27-.11-.52-.24-.76-.4l-5.16 3.45zm-7.72-3.05L17 21.13l2.1-1.4-5.16-3.45c-.24.16-.49.29-.76.4zM11.5 16c1.93 0 3.5-1.57 3.5-3.5S13.43 9 11.5 9 8 10.57 8 12.5 9.57 16 11.5 16M10 25c-1.65 0-3 1.35-3 3s1.35 3 3 3 3-1.35 3-3-1.35-3-3-3m6.17-3.32-4.07-4.74c-.2.03-.4.06-.6.06-.11 0-.2-.02-.31-.03l-1.11 7.04c.67.01 1.29.2 1.85.51zM20 25c-1.65 0-3 1.35-3 3s1.35 3 3 3 3-1.35 3-3-1.35-3-3-3m2.34-3.11L20 20.32l-2.34 1.57 1.85 2.16c.16-.02.32-.05.49-.05s.33.03.49.05zm5.73 2.63c.55-.31 1.17-.5 1.85-.51l-1.11-7.04c-.1 0-.2.03-.31.03-.21 0-.4-.03-.6-.06l-4.07 4.74zM33 28c0-1.65-1.35-3-3-3s-3 1.35-3 3 1.35 3 3 3 3-1.35 3-3M13 12.5c0-.83-.67-1.5-1.5-1.5s-1.5.67-1.5 1.5.67 1.5 1.5 1.5 1.5-.67 1.5-1.5"/></g><defs><clipPath id="a"><path fill="#fff" d="M0 0h40v40H0z"/></clipPath></defs></svg>