<svg xmlns="http://www.w3.org/2000/svg" width="40" height="40" fill="none" viewBox="0 0 40 40"><path fill="#ed7100" d="M0 0h40v40H0z"/><path fill="#fff" d="M15 20v-8.285l-1.148 1.14-.704-.71 2.012-2a.5.5 0 0 1 .353-.145c.138-.021.26.053.354.148l1.988 2-.71.704L16 11.7V20zm6-3v-2.3l1.145 1.152.71-.704-1.988-2a.5.5 0 0 0-.352-.148c-.15-.03-.26.051-.355.146l-2.012 2 .704.708L20 14.715V17zm-6 16h1v-5h-1zm10 0h1v-4h-1zm-5 1h1v-2h-1zm1.5-13h-9a.5.5 0 0 0-.5.5v9a.5.5 0 0 0 .5.5H14v-1h-1v-8h8v8h-4v1h4.5a.5.5 0 0 0 .5-.5v-9a.5.5 0 0 0-.5-.5m7-3h-9a.5.5 0 0 0-.5.5V20h1v-1h8v8h-5v1h5.5a.5.5 0 0 0 .5-.5v-9a.5.5 0 0 0-.5-.5m.457-3.981q.042-.263.043-.519c0-1.93-1.57-3.5-3.5-3.5q-.645 0-1.25.24A7.46 7.46 0 0 0 17.5 6C13.364 6 10 9.364 10 13.5q0 .338.038.706A5.49 5.49 0 0 0 6 19.5a5.506 5.506 0 0 0 5 5.475v-1.026c-2.244-.252-4-2.139-4-4.449a4.49 4.49 0 0 1 3.685-4.417.5.5 0 0 0 .403-.57A6.4 6.4 0 0 1 11 13.5C11 9.916 13.916 7 17.5 7a6.465 6.465 0 0 1 6.036 4.1.5.5 0 0 0 .716.248c.397-.23.816-.348 1.248-.348 1.379 0 2.5 1.122 2.5 2.5 0 .276-.052.554-.16.848a.502.502 0 0 0 .49.67c.017 0 .152-.016.17-.018 2.481 0 4.5 2.018 4.5 4.5 0 1.953-1.258 3.602-3 4.224v1.063c2.305-.655 4-2.775 4-5.287a5.507 5.507 0 0 0-5.043-5.481"/></svg>