<svg xmlns="http://www.w3.org/2000/svg" width="24" height="24" viewBox="0 0 24 24"><title>Icon-Architecture/16/Arch_Amazon-Managed-Blockchain_16</title><g fill="none" fill-rule="evenodd"><path fill="#ed7100" d="M0 0h24v24H0z"/><path fill="#fff" d="m7.235 9.75-.865-.501A6.52 6.52 0 0 1 12 6a6.53 6.53 0 0 1 5.63 3.249l-.866.501A5.52 5.52 0 0 0 12 7a5.52 5.52 0 0 0-4.765 2.75m9.529 5.499.866.501A6.53 6.53 0 0 1 12 19a6.52 6.52 0 0 1-5.63-3.25l.865-.501A5.52 5.52 0 0 0 12 18a5.52 5.52 0 0 0 4.764-2.751M12 13.5h2v-2h-2zm-6 0h2v-2H6zm13.894-1.3-1.494-2-.801.599.897 1.201H15v-1a.5.5 0 0 0-.5-.5h-3c-.277 0-.5.223-.5.5v1H9v-1a.5.5 0 0 0-.5-.5h-3c-.277 0-.5.223-.5.5v3a.5.5 0 0 0 .5.5h3A.5.5 0 0 0 9 14v-1h2v1a.5.5 0 0 0 .5.5h3a.5.5 0 0 0 .5-.5v-1h3.496l-.897 1.2.801.599 1.494-2a.5.5 0 0 0 0-.599"/></g></svg>