<svg xmlns="http://www.w3.org/2000/svg" width="24" height="24" fill="none" viewBox="0 0 24 24"><path fill="#01a88d" d="M0 0h24v24H0z"/><path fill="#fff" fill-rule="evenodd" d="M5 8.165v5.283l1.004.582-.502.866-1.253-.728A.5.5 0 0 1 4 13.737V7.357a.5.5 0 0 1 .236-.423c.023-.016.05-.014.074-.024l-.005-.013 4.38-1.857a.5.5 0 0 1 .393.002l1.387.6-.397.917-1.19-.514-3.182 1.349.703.35-.445.895zm8.991 10.238v-6.266l4.985-2.465v5.782zm-6.031-2.95V9.647l5.031 2.49v6.27zm5.529-8.63 4.797 2.075-4.795 2.37-4.834-2.392zm6.487 2.031a.5.5 0 0 0-.302-.445l-5.985-2.59a.5.5 0 0 0-.393 0L7.265 8.38a.5.5 0 0 0-.305.446c0 .005.004.01.004.014H6.96v6.9a.5.5 0 0 0 .247.43l6.031 3.54a.5.5 0 0 0 .501.002q.003 0 .006-.006l.001.003 5.984-3.54a.5.5 0 0 0 .246-.43V8.868h-.004c0-.005.004-.009.004-.013" clip-rule="evenodd"/></svg>