<svg xmlns="http://www.w3.org/2000/svg" width="80" height="80" viewBox="0 0 80 80"><title>Icon-Architecture/64/Arch_Amazon-Managed-Service-for-Apache-Flink_64</title><g fill="none" fill-rule="evenodd"><path fill="#8c4fff" d="M0 0h80v80H0z"/><path fill="#fff" d="M44.649 30a4.71 4.71 0 0 1-4.704 4.704A4.71 4.71 0 0 1 35.242 30a4.71 4.71 0 0 1 4.703-4.704A4.71 4.71 0 0 1 44.649 30m2 0a6.71 6.71 0 0 0-6.704-6.704A6.71 6.71 0 0 0 33.242 30a6.71 6.71 0 0 0 6.703 6.704A6.71 6.71 0 0 0 46.649 30m-8.355 11.74a1 1 0 0 0-.778-1.032 10.9 10.9 0 0 1-3.422-1.42 1 1 0 0 0-1.28.179l-.843.944-2.436-2.437.943-.842a1 1 0 0 0 .18-1.28 10.8 10.8 0 0 1-1.416-3.422 1.02 1.02 0 0 0-1.032-.779l-1.265.073v-3.448l1.269.073c.485.025.924-.301 1.033-.778.273-1.211.751-2.36 1.418-3.416.26-.413.184-.954-.18-1.28l-.951-.849 2.438-2.437.848.95a1 1 0 0 0 1.279.18 10.9 10.9 0 0 1 3.416-1.414 1 1 0 0 0 .779-1.033L38.221 17h3.449l-.073 1.273a1 1 0 0 0 .778 1.033c1.212.274 2.361.75 3.414 1.415.411.259.954.185 1.28-.179l.85-.953 2.438 2.437-.949.847a1 1 0 0 0-.179 1.281 10.9 10.9 0 0 1 1.417 3.417c.108.477.579.803 1.032.778l1.268-.073v3.448l-1.267-.073a1.026 1.026 0 0 0-1.032.779 10.9 10.9 0 0 1-1.416 3.42 1 1 0 0 0 .18 1.28l.945.844-2.437 2.438-.84-.942a1 1 0 0 0-1.281-.18 10.9 10.9 0 0 1-3.423 1.418 1 1 0 0 0-.778 1.033L41.67 43h-3.449zm5.162 2.947c.188-.201.286-.47.27-.744l-.086-1.499a13 13 0 0 0 2.491-1.032l1 1.121a1 1 0 0 0 1.454.041l3.934-3.935a1 1 0 0 0-.041-1.453l-1.125-1.003q.647-1.191 1.03-2.488l1.506.086a1 1 0 0 0 .743-.272 1 1 0 0 0 .314-.727v-5.564a1 1 0 0 0-.314-.727 1 1 0 0 0-.743-.272l-1.508.086c-.255-.863-.6-1.695-1.03-2.485l1.127-1.006a1 1 0 0 0 .041-1.453l-3.934-3.935a1 1 0 0 0-1.454.041l-1.009 1.132c-.79-.429-1.62-.773-2.482-1.029l.086-1.513A1 1 0 0 0 42.728 15h-5.565a1 1 0 0 0-.998 1.057l.086 1.511c-.862.256-1.693.599-2.484 1.029l-1.008-1.13a1 1 0 0 0-1.453-.041l-3.934 3.935a.996.996 0 0 0 .041 1.453l1.13 1.008a13 13 0 0 0-1.032 2.483l-1.509-.086a1 1 0 0 0-1.057.999v5.564a1 1 0 0 0 1.057.999l1.503-.086c.256.865.601 1.698 1.031 2.49l-1.123 1.001a1 1 0 0 0-.041 1.453l3.934 3.935a.998.998 0 0 0 1.453-.041l1.002-1.123a12.8 12.8 0 0 0 2.49 1.033l-.086 1.5c-.016.274.082.543.27.744.19.2.452.313.728.313h5.565c.275 0 .538-.113.728-.313m1.629 5.567 1.364-1.181c1.991-1.74 5.484-1.741 7.479.003l1.357 1.174c2.738 2.397 7.367 2.399 10.105.004l.68-.589-1.311-1.512-.682.593c-1.991 1.742-5.485 1.742-7.48-.004l-1.356-1.174c-2.739-2.398-7.369-2.397-10.105-.004l-1.364 1.182c-1.992 1.742-5.484 1.742-7.478-.004l-1.357-1.174c-2.739-2.398-7.369-2.397-10.104-.004l-1.365 1.182c-1.99 1.742-5.484 1.742-7.478-.004l-.68-.589L14 49.665l.676.585c2.739 2.397 7.369 2.399 10.105.004l1.364-1.181c1.991-1.74 5.484-1.741 7.48.003l1.356 1.174c1.37 1.2 3.213 1.8 5.056 1.8 1.841-.001 3.68-.599 5.048-1.796m0 12.873 1.364-1.181c1.991-1.742 5.484-1.742 7.479.003l1.357 1.175c2.738 2.397 7.367 2.398 10.105.003l.68-.589-1.311-1.512-.682.593c-1.991 1.742-5.485 1.742-7.48-.004l-1.356-1.174c-2.739-2.398-7.369-2.398-10.105-.004l-1.364 1.182c-1.992 1.742-5.484 1.742-7.478-.004l-1.357-1.174c-2.739-2.398-7.369-2.398-10.104-.004l-1.365 1.182c-1.99 1.742-5.484 1.742-7.478-.004l-.68-.589L14 62.538l.676.586c2.739 2.397 7.369 2.398 10.105.003l1.364-1.181c1.991-1.742 5.484-1.742 7.48.003l1.356 1.175c1.37 1.199 3.213 1.799 5.056 1.799 1.841-.001 3.68-.599 5.048-1.796m-5.048-4.641c-1.843 0-3.686-.599-5.056-1.799l-1.356-1.174c-1.996-1.744-5.489-1.744-7.48-.004l-1.364 1.181c-2.736 2.395-7.366 2.394-10.105-.003L14 56.102l1.31-1.512.68.589c1.994 1.746 5.488 1.745 7.478.003l1.365-1.181c2.735-2.394 7.365-2.394 10.104.003l1.357 1.175c1.994 1.746 5.486 1.745 7.478.003l1.364-1.181c2.736-2.394 7.366-2.394 10.105.003l1.356 1.175c1.995 1.746 5.489 1.745 7.48.003l.682-.592 1.311 1.512-.68.588c-2.738 2.395-7.367 2.394-10.105-.003l-1.357-1.174c-1.995-1.744-5.488-1.744-7.479-.004l-1.364 1.181c-1.368 1.197-3.207 1.796-5.048 1.796"/></g></svg>