<svg xmlns="http://www.w3.org/2000/svg" width="80" height="80" fill="none" viewBox="0 0 80 80"><path fill="#8c4fff" d="M0 0h80v80H0z"/><path fill="#fff" d="M65.447 31.106 58 27.382V20a1 1 0 0 0-.493-.862l-8.514-5a1 1 0 0 0-1.003-.006L40 18.702l-7.99-4.57a1 1 0 0 0-1.003.006l-8.514 5A1 1 0 0 0 22 20v7.382l-7.447 3.724A1 1 0 0 0 14 32v16a1 1 0 0 0 .553.895L22 52.618V60a1 1 0 0 0 .493.862l8.514 5c.308.182.692.184 1.003.006l7.99-4.57 7.99 4.57a1 1 0 0 0 1.003-.005l8.514-5A1 1 0 0 0 58 60v-7.382l7.447-3.723A1 1 0 0 0 66 48V32a1 1 0 0 0-.553-.894M40 43.476l-3-1.74v-3.449l3-1.76 3 1.76v3.45zm-8.48 20.368L24 59.428V52a1 1 0 0 0-.553-.894L16 47.382V32.618l7.447-3.723A1 1 0 0 0 24 28v-7.427l7.52-4.417 7.482 4.28v14.358l-3.508 2.058a1 1 0 0 0-.494.863v4.597c0 .357.19.686.498.865l3.504 2.033v14.355zM64 47.382l-7.447 3.724A1 1 0 0 0 56 52v7.428l-7.52 4.416-7.478-4.277v-14.36l3.5-2.03a1 1 0 0 0 .498-.865v-4.597a1 1 0 0 0-.494-.863l-3.504-2.056V20.434l7.477-4.278L56 20.572V28a1 1 0 0 0 .553.895L64 32.618z"/></svg>