<svg xmlns="http://www.w3.org/2000/svg" width="80" height="80" viewBox="0 0 80 80"><title>Icon-Architecture/64/Arch_AWS-Entity-Resolution_64</title><g fill="none" fill-rule="evenodd"><path fill="#8c4fff" d="M0 0h80v80H0z"/><path fill="#fff" d="M62 53c-2.206 0-4-1.794-4-4s1.794-4 4-4 4 1.794 4 4-1.794 4-4 4m-16.346 5.22a6 6 0 0 0-1.212-1.127l7.422-15.699 4.833 4.807a5.96 5.96 0 0 0-.202 5.179zM41 66c-2.206 0-4-1.794-4-4s1.794-4 4-4 4 1.794 4 4-1.794 4-4 4M14 37c0-2.206 1.794-4 4-4s4 1.794 4 4-1.794 4-4 4-4-1.794-4-4m25.444-7.958 10.915 10.855-7.723 16.336A6 6 0 0 0 41 56c-.937 0-1.822.222-2.613.607L22.689 40.733a5.97 5.97 0 0 0 1.194-4.905zm-5.918-8.705c.179-.423.305-.872.384-1.337h22.18q.048.279.12.549l-16.319 7.117zM28 22c-2.206 0-4-1.794-4-4s1.794-4 4-4 4 1.794 4 4-1.794 4-4 4m30.435.815-7.169 15.164-9.851-9.796 15.624-6.814c.38.558.855 1.044 1.396 1.446M62 14c2.206 0 4 1.794 4 4s-1.794 4-4 4-4-1.794-4-4 1.794-4 4-4m0 29c-1.572 0-3 .612-4.071 1.605l-5.158-5.129 7.445-15.747A6.006 6.006 0 0 0 68 18c0-3.309-2.691-6-6-6-2.967 0-5.431 2.167-5.91 5H33.91c-.479-2.833-2.943-5-5.91-5-3.309 0-6 2.691-6 6s2.691 6 6 6a5.98 5.98 0 0 0 4.414-1.949l5.505 5.475-14.755 6.435A6 6 0 0 0 18 31c-3.309 0-6 2.691-6 6s2.691 6 6 6c1.176 0 2.27-.345 3.197-.932l15.541 15.715A5.98 5.98 0 0 0 35 62c0 3.309 2.691 6 6 6s6-2.691 6-6c0-.715-.132-1.399-.363-2.036l10.952-6.91A5.98 5.98 0 0 0 62 55c3.309 0 6-2.691 6-6s-2.691-6-6-6"/></g></svg>