<svg xmlns="http://www.w3.org/2000/svg" width="24" height="24" viewBox="0 0 24 24"><title>Icon-Architecture/16/Arch_Amazon-WorkDocs_16</title><g fill="none" fill-rule="evenodd"><path fill="#dd344c" d="M0 0h24v24H0z"/><path fill="#fff" d="M8.518 11.969h2.007v-1.004H8.518zm3.435 5.6h1.004V15.56h-1.004zm0-6.024v2.008h1.004v-1.584h6.04v7.027H5.003V11.97H6.51v-1.004H5.004V5.004h6.949v6.541m1.004-5.84 5.32 5.26h-5.32zM20 11.467a.5.5 0 0 0-.15-.357l-7.043-6.964A.5.5 0 0 0 12.455 4H4.502A.5.5 0 0 0 4 4.502v14.996c0 .277.225.502.502.502h14.996a.5.5 0 0 0 .502-.502z"/></g></svg>