<svg xmlns="http://www.w3.org/2000/svg" width="24" height="24" fill="none" viewBox="0 0 24 24"><g clip-path="url(#a)"><path fill="#dd344c" d="M0 0h24v24H0z"/><path fill="#fff" d="m18.215 7.295-5.5-2.982a1.49 1.49 0 0 0-1.43 0l-5.5 2.982A1.5 1.5 0 0 0 5 8.614v6.738c0 .551.3 1.056.784 1.318l5.5 2.989a1.5 1.5 0 0 0 1.432 0l5.5-2.989c.483-.262.784-.767.784-1.318V8.615c0-.551-.3-1.056-.785-1.319m-11.953.88 5.5-2.984a.5.5 0 0 1 .476 0l5.5 2.983a.5.5 0 0 1 .262.44v1.313l-5.498 2.982-.002-2.686a.5.5 0 0 0-.738-.44L6 12.91V8.614a.5.5 0 0 1 .262-.44m11.477 7.616-5.5 2.989a.5.5 0 0 1-.478 0l-5.5-2.989A.5.5 0 0 1 6 15.353v-1.306l5.501-2.983.002 2.686a.5.5 0 0 0 .738.439L18 11.065v4.288c0 .183-.1.351-.26.438"/></g><defs><clipPath id="a"><path fill="#fff" d="M0 0h24v24H0z"/></clipPath></defs></svg>