<svg xmlns="http://www.w3.org/2000/svg" width="24" height="24" viewBox="0 0 24 24"><title>Icon-Architecture/16/Arch_Amazon-Pinpoint_16</title><g fill="none" fill-rule="evenodd"><path fill="#dd344c" d="M0 0h24v24H0z"/><path fill="#fff" d="M17.051 6.484a.488.488 0 1 0 .976-.001.488.488 0 0 0-.976 0m-2.583 3.757-2.113 2.114-.71-.71 2.113-2.114a3 3 0 0 0-1.757-.569 3.04 3.04 0 0 0-3.037 3.036 3.04 3.04 0 0 0 3.037 3.037 3.04 3.04 0 0 0 3.036-3.037c0-.656-.214-1.26-.569-1.757m1.44-1.44-.73.73c.533.685.864 1.535.864 2.467A4.046 4.046 0 0 1 12 16.04 4.046 4.046 0 0 1 7.959 12a4.046 4.046 0 0 1 4.042-4.041c.932 0 1.781.33 2.466.864l.73-.73c-.874-.72-1.978-1.168-3.196-1.168a5.08 5.08 0 0 0-5.074 5.074A5.08 5.08 0 0 0 12 17.074a5.08 5.08 0 0 0 5.074-5.076c0-1.217-.449-2.321-1.167-3.197m.277-1.697a1.5 1.5 0 0 1-.138-.62 1.493 1.493 0 0 1 2.985 0c0 .822-.67 1.492-1.493 1.492-.233 0-.452-.06-.65-.155l-.253.253a6.05 6.05 0 0 1 1.444 3.924 6.086 6.086 0 0 1-6.079 6.081 6.087 6.087 0 0 1-6.08-6.08 6.086 6.086 0 0 1 6.08-6.08c1.496 0 2.864.546 3.925 1.444zM20 11.999C20 16.411 16.41 20 12 20s-8-3.589-8-8 3.589-8 8-8c1.12 0 2.204.227 3.223.677l-.407.92A6.9 6.9 0 0 0 12 5.004c-3.857 0-6.995 3.137-6.995 6.994 0 3.858 3.138 6.996 6.995 6.996s6.995-3.138 6.995-6.996a6.9 6.9 0 0 0-.588-2.802l.918-.408A7.9 7.9 0 0 1 20 12"/></g></svg>