<svg xmlns="http://www.w3.org/2000/svg" width="24" height="24" fill="none" viewBox="0 0 24 24"><g clip-path="url(#a)"><path fill="#dd344c" d="M0 0h24v24H0z"/><path fill="#fff" d="M18.61 6H7.39C6.63 6 6 6.62 6 7.39v8.13c0 .82.67 1.48 1.48 1.48H12v2.01a.5.5 0 0 0 .5.5c.11 0 .22-.04.31-.11l3.02-2.4h2.78c.76 0 1.39-.62 1.39-1.39V7.39C20 6.63 19.38 6 18.61 6m.39 9.61c0 .21-.17.39-.39.39h-2.95a.5.5 0 0 0-.31.11L13 17.98v-1.47c0-.28-.22-.5-.5-.5H7.48a.48.48 0 0 1-.48-.48V7.39c0-.21.17-.39.39-.39h11.23c.21 0 .39.17.39.39v8.23zM16.14 5H5.39a.39.39 0 0 0-.39.39V16h-.5c-.28 0-.5-.22-.5-.5V5.39C4 4.62 4.62 4 5.39 4h10.76c.79 0 1.43.64 1.43 1.43h-1c0-.24-.19-.43-.43-.43zm-1.06 6.5c-.13-.09-.27-.16-.42-.22.49-.38.81-.98.81-1.65a2.1 2.1 0 1 0-4.2 0c0 .67.32 1.26.81 1.65-1.18.53-2.01 1.78-2.01 3.23 0 .28.22.5.5.5h5.6c.28 0 .5-.22.5-.5 0-1.24-.6-2.36-1.59-3zm-1.7-2.97c.61 0 1.1.49 1.1 1.1s-.49 1.1-1.1 1.1-1.1-.49-1.1-1.1.49-1.1 1.1-1.1M11.13 14c.21-1.14 1.14-2 2.25-2 .41 0 .81.12 1.16.34.57.36.96.97 1.09 1.66z"/></g><defs><clipPath id="a"><path fill="#fff" d="M0 0h24v24H0z"/></clipPath></defs></svg>