<svg xmlns="http://www.w3.org/2000/svg" width="80" height="80" viewBox="0 0 80 80"><title>Icon-Architecture/64/Arch_AWS-Payment-Cryptography_64</title><g fill="none" fill-rule="evenodd"><path fill="#dd344c" d="M0 0h80v80H0z"/><path fill="#fff" d="M44.515 20.41h-.071c-.42.02-.809.2-1.093.511-.284.31-.431.713-.412 1.133a1.577 1.577 0 0 0 2.737.995 1.58 1.58 0 0 0-.099-2.226 1.56 1.56 0 0 0-1.062-.414m-.003 5.15c-.863 0-1.728-.31-2.413-.938a3.55 3.55 0 0 1-1.158-2.48 3.55 3.55 0 0 1 .935-2.572 3.56 3.56 0 0 1 2.48-1.158c.95-.047 1.867.29 2.571.935a3.58 3.58 0 0 1 .225 5.052 3.57 3.57 0 0 1-2.64 1.16m18.182 17.202L66 42.96v-3.496L52.117 26.81a1 1 0 0 1-.226-1.176c1.586-3.265.821-7.259-1.859-9.714a8.27 8.27 0 0 0-6.682-2.098c-2.435.324-4.599 1.721-5.939 3.835-1.825 2.878-1.622 6.761.496 9.441 2.329 2.95 6.212 3.99 9.66 2.59a1 1 0 0 1 1.051.187l2.612 2.392a1 1 0 0 1 .324.694l.121 2.744 2.744-.12c.265-.007.524.082.719.26l1.954 1.79a1 1 0 0 1 .324.693l.121 2.744 2.745-.12a1.04 1.04 0 0 1 .718.26zM67 45.022q-.03 0-.059-.002l-4.721-.283a1 1 0 0 1-.615-.26l-1.65-1.51-3.329.147a1.015 1.015 0 0 1-1.043-.955l-.146-3.329-1.344-1.23-3.329.147c-.534.015-1.019-.404-1.043-.955l-.146-3.329-1.857-1.7c-4.122 1.391-8.63.06-11.382-3.426a10.19 10.19 0 0 1-.614-11.752c1.657-2.613 4.342-4.343 7.364-4.746a10.27 10.27 0 0 1 8.296 2.606c3.142 2.876 4.163 7.456 2.612 11.37l13.68 12.468a1 1 0 0 1 .326.74v5a1 1 0 0 1-1 1m-46 5h7v-4h-7zm8 2h-9a1 1 0 0 1-1-1v-6a1 1 0 0 1 1-1h9a1 1 0 0 1 1 1v6a1 1 0 0 1-1 1m-10 8h7v-2h-7zm10 0h7v-2h-7zm10 0h7v-2h-7zm10 0h7v-2h-7zm8.906 7H18.095A6.1 6.1 0 0 1 12 60.928v-21.81a6.1 6.1 0 0 1 6.095-6.096H36v2H18.095A4.1 4.1 0 0 0 14 39.117v21.811a4.1 4.1 0 0 0 4.095 4.094h39.811A4.1 4.1 0 0 0 62 60.928V48.022h2v12.906a6.1 6.1 0 0 1-6.094 6.094"/></g></svg>