<svg xmlns="http://www.w3.org/2000/svg" width="80" height="80" viewBox="0 0 80 80"><title>Icon-Architecture/64/Arch_AWS-Private-Certificate-Authority_64</title><g fill="none" fill-rule="evenodd"><path fill="#dd344c" d="M0 0h80v80H0z"/><path fill="#fff" d="M67 17h-3v2h2v47h-5v2h6a1 1 0 0 0 1-1V18a1 1 0 0 0-1-1M19 64h-2v3a1 1 0 0 0 1 1h35v-2H19zm16.5-24a1 1 0 0 0 .707-.293l8-8-1.414-1.414-7.293 7.293-3.293-3.293-1.414 1.414 4 4A1 1 0 0 0 35.5 40M26 34.5C26 40.841 31.159 46 37.5 46S49 40.841 49 34.5 43.841 23 37.5 23 26 28.159 26 34.5m-2 0C24 27.056 30.056 21 37.5 21S51 27.056 51 34.5 44.944 48 37.5 48 24 41.944 24 34.5M14 17h46v-3H14zm46 43V19H14v41h34v2H13a1 1 0 0 1-1-1V13a1 1 0 0 1 1-1h48a1 1 0 0 1 1 1v48a1 1 0 0 1-1 1h-5v-2zm-33-3v-9h2v7.473l8.101-3.533a1 1 0 0 1 .798 0L46 55.473V48h2v9a1 1 0 0 1-1.399.917L37.5 53.948l-9.101 3.969A.999.999 0 0 1 27 57"/></g></svg>