<svg xmlns="http://www.w3.org/2000/svg" width="80" height="80" fill="none" viewBox="0 0 80 80"><path fill="#dd344c" d="M0 0h80v80H0z"/><path fill="#fff" d="m19.496 50.636-1.787.898c-5.232-10.402-2.469-23.758 6.426-31.068 8.226-6.763 20.71-7.214 30.021-1.378l-1.19-5.584 1.955-.417 1.72 8.065a.996.996 0 0 1-.77 1.186l-8.065 1.72-.416-1.956 5.827-1.243c-8.614-5.477-20.201-5.104-27.813 1.152-8.19 6.732-10.73 19.037-5.908 28.625m42.813-22.52-1.787.899c4.883 9.71 2.4 21.711-5.905 28.537-7.632 6.273-18.377 6.697-26.823 1.275l5.834-1.243-.418-1.957-8.065 1.72a1 1 0 0 0-.768 1.186l1.72 8.065 1.955-.417-1.189-5.575c9.155 5.791 20.758 5.286 29.024-1.509 9.02-7.414 11.72-20.444 6.422-30.98m-9.915-.754a1 1 0 0 1 .608.92V42.82c0 .141-.149 14.174-13 14.174s-13-14.07-13-14.213v-14.5a1 1 0 0 1 .608-.92l12-5.112c.25-.106.534-.106.784 0zm-1.392 1.58-11-4.686-11 4.687V42.78c0 .498.157 12.213 11 12.213s10.999-11.679 11-12.176zm-10.608-2.345 8 3.408a1 1 0 0 1 .608.92V42.82c-.055 4.7-2.444 10.174-9 10.174-6.557 0-8.946-5.508-9-10.224V30.925a1 1 0 0 1 .608-.92l8-3.408a1 1 0 0 1 .784 0m-1.392 24.334v-21.9l-6 2.555V42.76c.021 1.817.538 7.545 6 8.172m8-19.345-6-2.556v21.901c5.462-.622 5.979-6.308 6-8.123z"/></svg>