<svg xmlns="http://www.w3.org/2000/svg" width="80" height="80" fill="none" viewBox="0 0 80 80"><path fill="#8c4fff" d="M0 0h80v80H0z"/><path fill="#fff" d="M60 43a7.95 7.95 0 0 0-3.864 1H44.864A7.95 7.95 0 0 0 41 43c-4.411 0-8 3.589-8 8v11c0 5.415 3.497 6 5 6 4.196 0 7.247-6.727 9.266-11.18l.373-.82h5.722q.18.39.373.82C55.753 61.273 58.804 68 63 68c1.503 0 5-.585 5-6V51c0-4.411-3.589-8-8-8m-7.411 11h-4.178a7.95 7.95 0 0 0-1.176-8h6.53a7.96 7.96 0 0 0-1.176 8M41 45c3.309 0 6 2.691 6 6s-2.691 6-6 6-6-2.691-6-6 2.691-6 6-6m-3 21c-1.288 0-3-.415-3-4v-5.726A7.98 7.98 0 0 0 41 59a7.9 7.9 0 0 0 3.414-.776C42.749 61.71 40.36 66 38 66m28-4c0 3.585-1.712 4-3 4-2.36 0-4.75-4.29-6.414-7.776A7.9 7.9 0 0 0 60 59c2.39 0 4.533-1.06 6-2.726zm-6-5c-3.309 0-6-2.691-6-6s2.691-6 6-6 6 2.691 6 6-2.691 6-6 6m-20-5h-2v-2h2v-2h2v2h2v2h-2v2h-2zm20-2.5a1.5 1.5 0 1 1-3 0 1.5 1.5 0 0 1 3 0m3 3a1.5 1.5 0 1 1-3 0 1.5 1.5 0 0 1 3 0M34.5 41C42.495 41 49 34.495 49 26.5S42.495 12 34.5 12 20 18.505 20 26.5 26.505 41 34.5 41m0-27C41.393 14 47 19.607 47 26.5S41.393 39 34.5 39 22 33.393 22 26.5 27.607 14 34.5 14M57 28.5a5.47 5.47 0 0 0-1.37-3.62l1.502-1.317a7.46 7.46 0 0 1 1.826 5.71C64.181 30.407 68 35.061 68 40.5c0 1.313-.232 2.57-.64 3.747a10 10 0 0 0-1.652-1.452A9.5 9.5 0 0 0 66 40.5c0-4.784-3.58-8.833-8.325-9.419a1 1 0 0 1-.848-1.236c.114-.457.173-.91.173-1.345M28 50h3.05q-.049.493-.05 1v1h-3zm-4.5 0H26v2h-2.5C17.16 52 12 46.841 12 40.5c0-4.462 2.578-8.42 6.43-10.314.153.668.352 1.318.584 1.952A9.5 9.5 0 0 0 14 40.5c0 5.238 4.262 9.5 9.5 9.5m27.136-26.93c-.14-.66-.33-1.298-.546-1.926A7.5 7.5 0 0 1 51.5 21c1.035 0 2.022.21 2.92.592l-.78 1.841a5.47 5.47 0 0 0-3.004-.363M29.475 33.35a1 1 0 0 0 .972.044l12-6a1 1 0 0 0 0-1.788l-12-6A1.002 1.002 0 0 0 29 20.5v12a1 1 0 0 0 .475.85M31 22.119l8.764 4.382L31 30.882z"/></svg>