<svg xmlns="http://www.w3.org/2000/svg" width="24" height="24" viewBox="0 0 24 24"><title>Icon-Architecture/16/Arch_Amazon-AppFlow_16</title><g fill="none" fill-rule="evenodd"><path fill="#e7157b" d="M0 0h24v24H0z"/><path fill="#fff" d="m13.357 6-3.628 5.411-.184-.689-.967.259.557 2.079 2.093-.131-.063-.998-.607.038L13.891 7h3.061l2.021 3.5-2.021 3.5h-1.89v1h2.468l2.598-4.5L17.53 6zm-6.76 3.001L4 13.501l2.597 4.5h4.173l3.621-5.357.172.641.967-.259-.558-2.079-2.091.131.062.998.653-.041-3.358 4.966H7.176l-2.022-3.5 2.022-3.5h1.885v-1z"/></g></svg>