<svg xmlns="http://www.w3.org/2000/svg" width="24" height="24" viewBox="0 0 24 24"><title>Icon-Architecture/16/Arch_AWS-Express-Workflow_16</title><g fill="none" fill-rule="evenodd"><path fill="#e7157b" d="M0 0h24v24H0z"/><path fill="#fff" d="M18.396 13h-4.264l.473-2h4.264zM16 15H8v-2h2.008a.5.5 0 0 0 .486-.38l.492-2A.5.5 0 0 0 10.5 10H8V9h8v1h-1.791a.5.5 0 0 0-.486.385l-.71 3A.5.5 0 0 0 13.5 14H16zM5.138 12l.246-1h4.479l-.246 1zm6.362 7a.5.5 0 1 1 .001-1.002A.5.5 0 0 1 11.5 19m0-14a.5.5 0 1 1 0 1 .5.5 0 0 1 0-1m8 5H17V8.5a.5.5 0 0 0-.5-.5H12V6.908A1.496 1.496 0 0 0 11.5 4c-.827 0-1.5.673-1.5 1.5 0 .651.419 1.201 1 1.408V8H7.5a.5.5 0 0 0-.5.5V10H4.993a.5.5 0 0 0-.486.38l-.492 2A.5.5 0 0 0 4.5 13H7v2.5a.5.5 0 0 0 .5.5H11v1.092c-.581.207-1 .757-1 1.408a1.501 1.501 0 0 0 3 0c0-.651-.418-1.201-1-1.408V16h4.5a.5.5 0 0 0 .5-.5V14h1.792a.5.5 0 0 0 .486-.385l.709-3A.5.5 0 0 0 19.5 10"/></g></svg>