<svg xmlns="http://www.w3.org/2000/svg" width="24" height="24" viewBox="0 0 24 24"><title>Icon-Architecture/16/Arch_Amazon-Managed-Workflows-for-Apache-Airflow_16</title><g fill="none" fill-rule="evenodd"><path fill="#e7157b" d="M0 0h24v24H0z"/><path fill="#fff" d="M5 7h2V5H5zm-.5 1h3a.5.5 0 0 0 .5-.5v-3a.5.5 0 0 0-.5-.5h-3a.5.5 0 0 0-.5.5v3a.5.5 0 0 0 .5.5m14 8a.5.5 0 1 1 .002-1.002A.5.5 0 0 1 18.5 16m0-2c-.827 0-1.5.673-1.5 1.5s.673 1.5 1.5 1.5 1.5-.673 1.5-1.5-.673-1.5-1.5-1.5m0-6a.5.5 0 1 1 .002-1.002A.5.5 0 0 1 18.5 8m0-2c-.827 0-1.5.673-1.5 1.5S17.673 9 18.5 9 20 8.327 20 7.5 19.327 6 18.5 6m0 6a.5.5 0 1 1 .002-1.002A.5.5 0 0 1 18.5 12m0-2c-.827 0-1.5.673-1.5 1.5s.673 1.5 1.5 1.5 1.5-.673 1.5-1.5-.673-1.5-1.5-1.5M20 4v1h-4v14h4v1h-4.5a.5.5 0 0 1-.5-.5V12h-5v-1h5V4.5a.5.5 0 0 1 .5-.5zM5 13.191v-2.382L7.382 12zm3.724-1.638-4-2A.5.5 0 0 0 4 10v4a.5.5 0 0 0 .724.447l4-2a.5.5 0 0 0 0-.894M6.5 19c-.827 0-1.5-.673-1.5-1.5S5.673 16 6.5 16s1.5.673 1.5 1.5S7.327 19 6.5 19m0-4A2.503 2.503 0 0 0 4 17.5C4 18.878 5.121 20 6.5 20S9 18.878 9 17.5 7.879 15 6.5 15"/></g></svg>