<svg xmlns="http://www.w3.org/2000/svg" width="24" height="24" viewBox="0 0 24 24"><title>Icon-Architecture/16/Arch_Amazon-EventBridge_16</title><g fill="none" fill-rule="evenodd"><path fill="#e7157b" d="M0 0h24v24H0z"/><path fill="#fff" d="M6.549 16.461a.997.997 0 0 1-.993-1c0-.551.445-1 .993-1 .547 0 .992.449.992 1s-.445 1-.992 1m1.344.463c.392-.366.64-.883.64-1.463 0-1.103-.89-2-1.984-2-.205 0-.398.041-.585.099l-.894-1.562 1.302-2.275-.859-.5-1.446 2.525a.5.5 0 0 0 0 .5l1.051 1.833a2 2 0 0 0-.555 1.38c0 1.103.89 2 1.986 2 .162 0 .318-.025.47-.063l.776 1.355c.089.155.252.25.43.25h2.773v-1H8.512zm9.557-7.407a1 1 0 0 1-.992-1c0-.552.446-1 .992-1 .548 0 .993.448.993 1 0 .551-.445 1-.993 1m1.432.379c.341-.359.554-.844.554-1.379 0-1.103-.89-2-1.986-2a2 2 0 0 0-.469.063l-.775-1.355a.5.5 0 0 0-.43-.25h-2.774v1h2.487l.618 1.079a1.995 1.995 0 0 0 1.343 3.463c.205 0 .4-.041.585-.099l.896 1.563-1.304 2.273.859.5 1.447-2.523a.5.5 0 0 0 0-.5zM15.979 19a.997.997 0 0 1-.992-1c0-.552.444-1 .992-1s.993.448.993 1c0 .551-.445 1-.993 1m-2.995-4.9h-2.189L9.591 12l1.116-1.947.254-.154h2.24L14.405 12l-1.089 1.898zM8.038 7a.997.997 0 0 1-.992-1c0-.552.445-1 .992-1 .548 0 .993.448.993 1 0 .551-.445 1-.993 1m7.941 9c-.321 0-.622.085-.891.222l-.997-1.675 1.317-2.297a.5.5 0 0 0 0-.5l-1.49-2.601a.5.5 0 0 0-.43-.25h-2.762L9.672 7.13A1.995 1.995 0 0 0 8.038 4a1.995 1.995 0 0 0-1.985 2c0 1.103.89 2 1.985 2 .313 0 .606-.081.87-.211l.994 1.67-1.313 2.291a.5.5 0 0 0 0 .5l1.49 2.6c.089.154.252.25.43.25h2.754l1.066 1.791c-.21.318-.335.698-.335 1.109 0 1.103.89 2 1.985 2a1.995 1.995 0 0 0 1.986-2c0-1.103-.89-2-1.986-2"/></g></svg>