<svg xmlns="http://www.w3.org/2000/svg" width="24" height="24" viewBox="0 0 24 24"><title>Icon-Architecture/16/Arch_Amazon-Simple-Queue-Service_16</title><g fill="none" fill-rule="evenodd"><path fill="#e7157b" d="M0 0h24v24H0z"/><path fill="#fff" d="M8.005 12.985h1.002v-.99H8.005zm7.012.001h1.002v-.99h-1.002zm-2.227-1.763a3.2 3.2 0 0 1-1.556 0 5 5 0 0 1 0 2.437 3.17 3.17 0 0 1 1.556 0 5 5 0 0 1 0-2.437m1.58-.908c-.965.954-.965 3.3 0 4.253a.495.495 0 0 1-.355.846.5.5 0 0 1-.353-.145 2.31 2.31 0 0 0-3.299 0 .503.503 0 0 1-.855-.35c0-.127.049-.254.147-.35.964-.955.964-3.3 0-4.254a.49.49 0 0 1 0-.7.505.505 0 0 1 .708 0 2.31 2.31 0 0 0 3.299 0 .505.505 0 0 1 .708 0 .495.495 0 0 1 0 .7m4.446 1.764a.629.629 0 0 0-.883 0 .614.614 0 0 0 0 .874.646.646 0 0 0 .883 0 .614.614 0 0 0 0-.874m.708 1.575c-.307.303-.715.47-1.148.47-.436 0-.844-.167-1.151-.47a1.6 1.6 0 0 1 0-2.275c.613-.606 1.684-.607 2.3 0a1.6 1.6 0 0 1 0 2.275M6.066 12.085a.626.626 0 0 0-.882 0 .61.61 0 0 0 0 .874.645.645 0 0 0 .882 0 .61.61 0 0 0 0-.874m.71 1.575c-.308.303-.716.47-1.15.47-.436 0-.844-.167-1.15-.47a1.6 1.6 0 0 1 0-2.275c.614-.607 1.683-.607 2.3 0a1.6 1.6 0 0 1 0 2.275m9.108 2.748c-2.16 2.135-5.671 2.134-7.829 0-.578-.573-.946-1.07-1.194-1.616l-.913.404c.298.66.73 1.25 1.4 1.913A6.55 6.55 0 0 0 11.97 19c1.674 0 3.348-.63 4.623-1.891.511-.506 1.082-1.127 1.447-1.908l-.91-.415c-.297.637-.774 1.156-1.246 1.622M6.88 10.172l-.91-.415c.298-.636.735-1.228 1.38-1.866 2.547-2.521 6.693-2.521 9.24-.001.466.461 1.05 1.09 1.424 1.86l-.902.43c-.245-.504-.613-.979-1.23-1.59-2.158-2.133-5.668-2.131-7.825 0-.565.56-.928 1.048-1.177 1.582"/></g></svg>