<svg xmlns="http://www.w3.org/2000/svg" width="24" height="24" viewBox="0 0 24 24"><title>Icon-Architecture/16/Arch_Amazon-Simple-Notification-Service_16</title><g fill="none" fill-rule="evenodd"><path fill="#e7157b" d="M0 0h24v24H0z"/><path fill="#fff" d="M6.495 11.56a.75.75 0 0 1-.747.75.749.749 0 0 1 0-1.498c.412 0 .747.335.747.749m5.945 7.436c-3.151 0-5.92-2.395-6.714-5.684l.022.002c.964 0 1.748-.786 1.748-1.753 0-.917-.707-1.663-1.602-1.738.948-2.827 3.577-4.819 6.546-4.819 1.308 0 2.432.23 3.339.686l.448-.899C15.18 4.266 13.904 4 12.44 4c-3.618 0-6.817 2.566-7.694 6.13A1.75 1.75 0 0 0 4 11.56c0 .536.245 1.01.624 1.331C5.294 16.957 8.617 20 12.44 20c1.144 0 2.49-.36 3.788-1.015l-.45-.898c-1.162.587-2.347.909-3.338.909M8.76 9.96h3.48l-1.218 2.846a.5.5 0 0 0-.041.197v1.703l-.935.485v-2.188a.5.5 0 0 0-.042-.201zm.525 6.485a.5.5 0 0 0 .49.017l1.937-1.004a.5.5 0 0 0 .27-.446v-1.905l1.477-3.45a.503.503 0 0 0-.46-.7H7.993a.503.503 0 0 0-.459.703l1.51 3.449v2.906c0 .176.091.339.24.43m8.967-1.621a.749.749 0 0 1 0 1.499.75.75 0 0 1 0-1.5m0-8.07a.75.75 0 0 1 0 1.499.75.75 0 0 1 0-1.5m0 4.058a.749.749 0 0 1 0 1.498.749.749 0 0 1 0-1.498m-2.249 1.25h.583c.217.722.877 1.252 1.666 1.252a1.752 1.752 0 0 0 0-3.506c-.79 0-1.449.53-1.666 1.25h-.583V8.006h.583a1.745 1.745 0 0 0 1.666 1.252 1.753 1.753 0 0 0 0-3.507c-.79 0-1.449.53-1.666 1.25h-1.084c-.276 0-.5.226-.5.503v3.556H14v1.004h1v3.51c0 .277.225.502.501.502h1.084c.217.72.877 1.251 1.666 1.251a1.753 1.753 0 0 0 0-3.506c-.79 0-1.449.53-1.666 1.25h-.583z"/></g></svg>