<svg xmlns="http://www.w3.org/2000/svg" width="24" height="24" viewBox="0 0 24 24"><title>Icon-Architecture/16/Arch_AWS-Step-Functions_16</title><g fill="none" fill-rule="evenodd"><path fill="#e7157b" d="M0 0h24v24H0z"/><path fill="#fff" d="M14 13h5v-2h-5zm2 2H8v-2h2.5a.5.5 0 0 0 .5-.5v-2a.5.5 0 0 0-.5-.5H8V9h8v1h-2.5a.5.5 0 0 0-.5.5v3a.5.5 0 0 0 .5.5H16zM5 12h5v-1H5zm7.5 7a.5.5 0 1 1 .002-1.002A.5.5 0 0 1 12.5 19m0-14a.5.5 0 1 1-.002 1.002A.5.5 0 0 1 12.5 5m7 5H17V8.5a.5.5 0 0 0-.5-.5H13V6.908c.581-.207 1-.757 1-1.408 0-.827-.673-1.5-1.5-1.5S11 4.673 11 5.5c0 .651.419 1.201 1 1.408V8H7.5a.5.5 0 0 0-.5.5V10H4.5a.5.5 0 0 0-.5.5v2a.5.5 0 0 0 .5.5H7v2.5a.5.5 0 0 0 .5.5H12v1.092c-.581.207-1 .757-1 1.408 0 .827.673 1.5 1.5 1.5s1.5-.673 1.5-1.5c0-.651-.419-1.201-1-1.408V16h3.5a.5.5 0 0 0 .5-.5V14h2.5a.5.5 0 0 0 .5-.5v-3a.5.5 0 0 0-.5-.5"/></g></svg>