<svg xmlns="http://www.w3.org/2000/svg" width="24" height="24" viewBox="0 0 24 24"><title>Icon-Architecture/16/Arch_Amazon-MQ_16</title><g fill="none" fill-rule="evenodd"><path fill="#e7157b" d="M0 0h24v24H0z"/><path fill="#fff" d="M8.005 12.983h1.002v-.99H8.005zm7.012 0h1.002v-.99h-1.002zm-2.227-1.76a3.2 3.2 0 0 1-1.556 0 5 5 0 0 1 0 2.434q.382-.096.778-.097.396.001.778.097a5 5 0 0 1 0-2.434m1.58-.908c-.965.953-.965 3.297 0 4.25a.494.494 0 0 1-.355.846.5.5 0 0 1-.353-.145 2.31 2.31 0 0 0-3.299 0 .505.505 0 0 1-.708 0 .49.49 0 0 1 0-.701c.964-.953.964-3.297 0-4.25a.49.49 0 0 1 0-.7.505.505 0 0 1 .708 0 2.31 2.31 0 0 0 3.299 0 .505.505 0 0 1 .708 0 .494.494 0 0 1 0 .7M6.865 8.064c0 .34.281.617.625.617a.62.62 0 0 0 .625-.617c0-.341-.28-.617-.625-.617a.62.62 0 0 0-.625.617m-1.001 0c0-.887.73-1.608 1.626-1.608.897 0 1.626.721 1.626 1.608A1.62 1.62 0 0 1 7.49 9.672a1.62 1.62 0 0 1-1.626-1.608m11.27 8.908c0-.34-.28-.618-.625-.618a.623.623 0 0 0-.625.618c0 .34.282.617.625.617a.62.62 0 0 0 .625-.617m1.001 0c0 .886-.729 1.607-1.626 1.607a1.62 1.62 0 0 1-1.626-1.607c0-.886.73-1.608 1.626-1.608.897 0 1.626.722 1.626 1.608M15.88 8.06c0 .34.282.617.625.617a.62.62 0 0 0 .624-.617.62.62 0 0 0-.624-.617.62.62 0 0 0-.625.617m-1.001 0c0-.887.73-1.607 1.626-1.607.897 0 1.626.72 1.626 1.607 0 .886-.73 1.608-1.626 1.608A1.62 1.62 0 0 1 14.88 8.06m-6.76 8.916c0-.34-.28-.618-.625-.618a.62.62 0 0 0-.624.618c0 .34.28.617.624.617a.62.62 0 0 0 .625-.617m1.001 0c0 .886-.729 1.607-1.626 1.607s-1.626-.72-1.626-1.607c0-.886.73-1.608 1.626-1.608a1.62 1.62 0 0 1 1.626 1.608m9.696-4.897a.626.626 0 0 0-.883 0 .61.61 0 0 0 0 .872.646.646 0 0 0 .883 0 .61.61 0 0 0 0-.872m.708 1.572a1.62 1.62 0 0 1-1.148.471c-.436 0-.844-.167-1.151-.47a1.595 1.595 0 0 1 0-2.273c.613-.607 1.684-.608 2.3 0a1.595 1.595 0 0 1 0 2.272M6.066 12.085a.62.62 0 0 0-.44-.182.62.62 0 0 0-.442.182.61.61 0 0 0 0 .872.645.645 0 0 0 .882 0 .61.61 0 0 0 0-.872m.71 1.572a1.62 1.62 0 0 1-1.15.471 1.62 1.62 0 0 1-1.15-.471 1.595 1.595 0 0 1 0-2.272c.614-.607 1.683-.608 2.3 0a1.597 1.597 0 0 1 0 2.272m2.995 3.785-.444.888c.914.446 1.78.67 2.643.67.864 0 1.73-.224 2.643-.67l-.444-.888c-1.542.752-2.856.753-4.398 0M9.75 7.448l-.4-.907a6.63 6.63 0 0 1 5.242 0l-.4.907a5.62 5.62 0 0 0-4.442 0"/></g></svg>