<svg xmlns="http://www.w3.org/2000/svg" width="24" height="24" viewBox="0 0 24 24"><title>Icon-Architecture/16/Arch_AWS-B2B-Data-Interchange_16</title><g fill="none" fill-rule="evenodd"><path fill="#e7157b" d="M0 0h24v24H0z"/><path fill="#fff" d="M10.861 11.851 8.862 13.85l-.707-.707L9.298 12H8c-1.103 0-2 .897-2 2v4H5v-4c0-1.654 1.345-3 3-3h1.303L8.155 9.852l.707-.707 1.999 1.999a.5.5 0 0 1 0 .707M12 18h-1.277l1.144 1.144-.707.707-1.999-1.999a.5.5 0 0 1 0-.707l1.999-2 .707.707L10.72 17H12c1.102 0 2-.897 2-2v-4h1v4c0 1.654-1.346 3-3 3m2.989-12.281 2.265 2.279h-2.265zm3.865 2.471-4.017-4.043A.5.5 0 0 0 14.482 4H7.5a.5.5 0 0 0-.5.5V8h1V5h5.989v3.498a.5.5 0 0 0 .5.5H18V19h-3.999v1H18.5a.5.5 0 0 0 .5-.5V8.542a.5.5 0 0 0-.146-.352"/></g></svg>