<svg xmlns="http://www.w3.org/2000/svg" width="24" height="24" viewBox="0 0 24 24"><title>Icon-Architecture/16/Arch_AWS-AppSync_16</title><g fill="none" fill-rule="evenodd"><path fill="#e7157b" d="M0 0h24v24H0z"/><path fill="#fff" d="M14.97 14.019a.586.586 0 1 0 0 1.172.586.586 0 0 0 0-1.172m-4.4.585a.586.586 0 1 0-1.171.001.586.586 0 0 0 1.172 0m1.268-4.561a.661.661 0 1 0 1.323-.002.661.661 0 0 0-1.323.002m2.012 3.433-1.02-1.802a1.6 1.6 0 0 1-.66 0l-1.033 1.842c.156.165.274.364.347.585h1.985c.08-.238.207-.453.381-.625m1.119-.462a1.59 1.59 0 0 1 1.588 1.59 1.59 1.59 0 0 1-1.588 1.588c-.7 0-1.29-.458-1.5-1.087h-1.985c-.21.629-.8 1.087-1.5 1.087a1.59 1.59 0 0 1-1.589-1.589c0-.876.713-1.589 1.59-1.589.092 0 .18.012.268.027l1.042-1.856c-.284-.298-.46-.7-.46-1.142 0-.918.746-1.665 1.664-1.665s1.664.747 1.664 1.665c0 .441-.176.84-.457 1.14l1.048 1.852c.07-.009.141-.021.215-.021m4.048-4.226-.872.497a6.496 6.496 0 0 1-5.646 9.71 6.46 6.46 0 0 1-3.727-1.176l-.577.82A7.44 7.44 0 0 0 12.5 20c4.135 0 7.5-3.365 7.5-7.5a7.5 7.5 0 0 0-.982-3.711M6.004 12.5c0 1.167.313 2.31.905 3.308l-.863.513A7.5 7.5 0 0 1 5 12.5C5 8.364 8.365 5 12.5 5a7.4 7.4 0 0 1 3.228.729l-.433.906a6.4 6.4 0 0 0-2.795-.631A6.503 6.503 0 0 0 6.004 12.5"/></g></svg>