<svg xmlns="http://www.w3.org/2000/svg" width="24" height="24" viewBox="0 0 24 24"><title>Icon-Architecture/16/Arch_Amazon-Timestream_16</title><g fill="none" fill-rule="evenodd"><path fill="#c925d1" d="M0 0h24v24H0z"/><path fill="#fff" d="M10.392 5c2.693 0 4.412.888 4.412 1.5S13.085 8 10.392 8 5.98 7.112 5.98 6.5 7.7 5 10.392 5m3.432 7.51V12h3.757l1.83 1.4.589-.8-2.091-1.6h-4.085v-1h-.98v6.5c0 .276.219.5.49.5h1.47v.662c0 .559-1.679 1.338-4.412 1.338s-4.412-.779-4.412-1.338v-1.555c1.04.669 2.758 1.021 4.412 1.021.524 0 1.04-.032 1.532-.095l-.123-.992c-.451.058-.926.087-1.409.087-2.693 0-4.412-.888-4.412-1.5v-2.649C7.02 12.648 8.738 13 10.392 13c.52 0 1.035-.032 1.532-.095l-.122-.992c-.456.058-.93.087-1.41.087-2.693 0-4.412-.888-4.412-1.5V7.979C7.02 8.648 8.738 9 10.392 9s3.372-.352 4.412-1.021V10h.98V6.5c0-1.624-2.778-2.5-5.392-2.5S5 4.876 5 6.5v11.162C5 19.277 7.709 20 10.392 20s5.392-.723 5.392-2.338V17h3.922v-1h-5.882v-2.274L15.63 15h4.075v-1h-3.769z"/></g></svg>