<svg xmlns="http://www.w3.org/2000/svg" width="24" height="24" fill="none" viewBox="0 0 24 24"><path fill="#c925d1" d="M0 0h24v24H0z"/><path fill="#fff" d="M6 18v-4.811c1.273.616 3.49.811 5 .811v-1c-3.021 0-4.863-.665-5-1V7.189C7.273 7.805 9.49 8 11 8s3.727-.195 5-.811V8h1V6c0-1.579-3.771-2-6-2s-6 .421-6 2v12c0 1.579 3.771 2 6 2v-1c-3.021 0-4.863-.665-5-1M6 6.018C6.149 5.66 7.987 5 11 5c2.963 0 4.791.64 4.993 1-.202.36-2.03 1-4.993 1-3.013 0-4.851-.66-5-.976zM18.5 20h-6a.5.5 0 0 1-.5-.5v-10a.5.5 0 0 1 .5-.5h6a.5.5 0 0 1 .5.5v10a.5.5 0 0 1-.5.5M13 19h5v-9h-5zm4-1h-1.11l-.39-.826-.39.826H14l.945-2L14 14h1.11l.39.826.39-.826H17l-.945 2zm0-6h-3v-1h3z"/></svg>