<svg xmlns="http://www.w3.org/2000/svg" width="80" height="80" viewBox="0 0 80 80"><title>Icon-Architecture/64/Arch_AWS-rePost-Private_64</title><g fill="none" fill-rule="evenodd"><path fill="#c925d1" d="M0 0h80v80H0z"/><path fill="#fff" d="M31.001 43h20v-2h-20zm9.655 20.378 1 1.732-4.773 2.756a1 1 0 0 1-.5.134 1 1 0 0 1-.5-.134L12.5 54.366a1 1 0 0 1-.5-.866v-27a1 1 0 0 1 .5-.866l23.383-13.5a1 1 0 0 1 1 0l23.383 13.5a1 1 0 0 1 .5.866V29h-2v-1.923L36.383 14.155 14 27.077v25.846l22.383 12.922zM49.052 66c.461-4.377 3.903-7.789 8.069-7.789a7.64 7.64 0 0 1 4.132 1.223c2.193 1.406 3.645 3.861 3.935 6.566zm8.069-18.57a4.215 4.215 0 0 1 4.211 4.21 4.216 4.216 0 0 1-4.211 4.212 4.217 4.217 0 0 1-4.212-4.212 4.217 4.217 0 0 1 4.212-4.21M51.137 50H43a1 1 0 0 0-1 1v4.585l-5.293-5.293A1 1 0 0 0 36 50h-5c-4.411 0-8-3.589-8-8s3.589-8 8-8h27c4.411 0 8 3.59 8 8a7.98 7.98 0 0 1-3.476 6.587 6.21 6.21 0 0 0-5.403-3.157c-2.856 0-5.262 1.94-5.984 4.57m11.196 7.75a9.7 9.7 0 0 0-1.842-.899 6.21 6.21 0 0 0 2.841-5.21c0-.39-.04-.77-.109-1.139C66.176 48.687 68 45.495 68 42c0-5.514-4.486-10-10-10H31c-5.513 0-10 4.486-10 10s4.487 10 10 10h4.586l6.707 6.708a1 1 0 0 0 1.09.217c.373-.155.617-.52.617-.924v-6h6.928a6.2 6.2 0 0 0 2.811 4.844C49.819 58.332 47 62.316 47 67a1 1 0 0 0 1 1h18.242a1 1 0 0 0 1-1c0-3.82-1.835-7.278-4.909-9.25"/></g></svg>