<svg xmlns="http://www.w3.org/2000/svg" width="80" height="80" viewBox="0 0 80 80"><title>Icon-Architecture/64/Arch_AWS-IQ_64</title><g fill="none" fill-rule="evenodd"><path fill="#c925d1" d="M0 0h80v80H0z"/><path fill="#fff" d="M26.018 27a6.507 6.507 0 0 0 6.499-6.5c0-3.584-2.915-6.5-6.499-6.5a6.51 6.51 0 0 0-6.501 6.5c0 3.584 2.916 6.5 6.501 6.5M14.129 42.007l-2-.017c.001-.127.217-11.156 9.514-14.216-2.467-1.489-4.126-4.188-4.126-7.274 0-4.687 3.814-8.5 8.501-8.5s8.499 3.813 8.499 8.5c0 3.035-1.603 5.696-4.003 7.2 1.33.437 2.83 1.142 4.285 2.289l-1.238 1.571c-3.402-2.682-7.193-2.56-7.23-2.558-5.02.153-8.586 2.368-10.613 6.581-1.544 3.211-1.589 6.392-1.589 6.424M65.976 60c-.314-6.324-3.577-12.29-8.492-15.403A16.6 16.6 0 0 0 48.585 42C44.751 42 41.03 43.366 38 45.834V60zM25 66l10-5.991V60h.016l.984-.574V46.574L25 40l-11 6.574v12.852zm23.501-26.032c5.238 0 9.499-4.261 9.499-9.5s-4.261-9.5-9.499-9.5S39 25.23 39 30.468s4.262 9.5 9.501 9.5M68 62H35.556L25 68l-13-7.426V45.426L25 38l11.45 6.521a19 19 0 0 1 6.94-3.766C39.61 38.869 37 34.972 37 30.468c0-6.341 5.16-11.5 11.501-11.5S60 24.127 60 30.468c0 4.476-2.575 8.353-6.316 10.252a18.8 18.8 0 0 1 4.87 2.187C64.292 46.542 68 53.644 68 61zM33.791 49.918l-9.717 8.005-6.252-4.59 1.183-1.612 4.998 3.669 8.517-7.015z"/></g></svg>