<svg xmlns="http://www.w3.org/2000/svg" width="80" height="80" fill="none" viewBox="0 0 80 80"><g clip-path="url(#a)"><path fill="#dd344c" d="M0 0h80v80H0z"/><path fill="#fff" d="m61.019 23.831-18-10.478a6.01 6.01 0 0 0-6.038 0l-18 10.478A6.02 6.02 0 0 0 16 29.017v21.027a6.02 6.02 0 0 0 2.981 5.186l18 10.478c.931.541 1.975.813 3.019.813a6 6 0 0 0 3.019-.814l18-10.477A6.02 6.02 0 0 0 64 50.044V29.017a6.02 6.02 0 0 0-2.981-5.186M19.987 25.56l18-10.478a4 4 0 0 1 4.026 0l18 10.478A4.01 4.01 0 0 1 62 29.017v3.43l-21 11.87V33.03a1 1 0 0 0-1.492-.87L18 44.316v-15.3c0-1.418.762-2.743 1.987-3.456M60.013 53.5l-18 10.479a4.01 4.01 0 0 1-4.026 0l-18-10.478A4.01 4.01 0 0 1 18 50.044v-3.43l21-11.87V46.03a1 1 0 0 0 1.492.87L62 34.745v15.3a4.01 4.01 0 0 1-1.987 3.457"/></g><defs><clipPath id="a"><path fill="#fff" d="M0 0h80v80H0z"/></clipPath></defs></svg>