<svg xmlns="http://www.w3.org/2000/svg" width="80" height="80" viewBox="0 0 80 80"><title>Icon-Architecture/64/Arch_AWS-AppFabric_64</title><g fill="none" fill-rule="evenodd"><path fill="#dd344c" d="M0 0h80v80H0z"/><path fill="#fff" d="M63.996 44.414c5.328-5.329 5.328-14 0-19.329s-14-5.33-19.329 0L33.024 36.727a13.7 13.7 0 0 0-3.493 13.37l1.926-.54a11.7 11.7 0 0 1 2.981-11.415l11.643-11.643c4.55-4.549 11.951-4.549 16.501 0 4.549 4.549 4.549 11.952 0 16.501L38.989 66.592l1.414 1.414zM25.668 59.165a13.58 13.58 0 0 1-9.664-4.002A13.58 13.58 0 0 1 12 45.498c0-3.65 1.422-7.083 4.004-9.664L39.838 12l1.414 1.414-23.834 23.834A11.6 11.6 0 0 0 14 45.498c0 3.117 1.214 6.047 3.418 8.25a11.6 11.6 0 0 0 8.25 3.417c3.117 0 6.047-1.213 8.25-3.417L45.56 42.106a11.61 11.61 0 0 0 2.812-11.968l1.896-.636a13.6 13.6 0 0 1-3.293 14.018L35.332 55.163a13.58 13.58 0 0 1-9.664 4.002"/></g></svg>