<svg xmlns="http://www.w3.org/2000/svg" width="80" height="80" fill="none" viewBox="0 0 80 80"><g clip-path="url(#a)"><path fill="#dd344c" d="M0 0h80v80H0z"/><path fill="#fff" d="M63.9 20H21.11c-2.26 0-4.1 1.84-4.1 4.1v29.81c0 2.25 1.83 4.09 4.08 4.09h20.92v7.79a1.004 1.004 0 0 0 1 1c.22 0 .44-.07.62-.22l10.8-8.58h9.47c2.26 0 4.1-1.84 4.1-4.1V24.1c0-2.26-1.84-4.1-4.1-4.1M66 53.9a2.1 2.1 0 0 1-2.1 2.1h-9.82c-.23 0-.45.08-.62.22l-9.45 7.51v-6.72c0-.55-.45-1-1-1H21.09c-1.15 0-2.08-.94-2.08-2.09V24.11c0-1.16.94-2.1 2.1-2.1H63.9c1.16 0 2.1.94 2.1 2.1zM14 17.1V49c0 .55.45 1 1 1v2c-1.65 0-3-1.35-3-3V17.1c0-2.26 1.84-4.1 4.1-4.1h37.79c2.26 0 4.1 1.84 4.1 4.1v.9h-2v-.9a2.1 2.1 0 0 0-2.1-2.1H16.1a2.1 2.1 0 0 0-2.1 2.1m34.34 24.02c-1.04-.67-2.19-1.12-3.37-1.38 2.56-.91 4.41-3.35 4.41-6.22 0-3.64-2.96-6.6-6.6-6.6s-6.6 2.96-6.6 6.6c0 2.86 1.83 5.29 4.37 6.21-4.89 1.1-8.57 5.74-8.57 11.27 0 .55.45 1 1 1h19.61c.55 0 1-.45 1-1 0-4.02-2.01-7.81-5.24-9.88zm-10.16-7.6c0-2.54 2.07-4.6 4.6-4.6s4.6 2.06 4.6 4.6a4.6 4.6 0 0 1-9.2 0M34.02 50c.46-4.78 4.21-8.52 8.76-8.52 1.58 0 3.13.46 4.48 1.33 2.4 1.54 3.98 4.24 4.27 7.2H34.02z"/></g><defs><clipPath id="a"><path fill="#fff" d="M0 0h80v80H0z"/></clipPath></defs></svg>