<svg xmlns="http://www.w3.org/2000/svg" width="24" height="24" viewBox="0 0 24 24"><title>Icon-Architecture/16/Arch_AWS-Tools-and-SDKs_16</title><g fill="none" fill-rule="evenodd"><path fill="#c925d1" d="M0 0h24v24H0z"/><path fill="#fff" d="m17 15.176-5.5 3.176L6 15.176V9.049l5.5-2.98L17 9.05zm.738-6.865-6-3.25a.5.5 0 0 0-.476 0l-6 3.25A.5.5 0 0 0 5 8.75v6.714c0 .178.096.343.25.433l6 3.464a.5.5 0 0 0 .5 0l6-3.464a.5.5 0 0 0 .25-.433V8.75a.5.5 0 0 0-.262-.44m-4.372 2.035-1.741 1.007-1.861-1.076 1.736-.933zM12 15.164V12.29l2-1.156v2.955zM9 10.99l2 1.156v3.017L9 14.09zm2.264-2.655-3 1.612a.5.5 0 0 0-.264.44v4c0 .184.102.354.264.44l3 1.613a.5.5 0 0 0 .472 0l3-1.612a.5.5 0 0 0 .264-.441v-4a.5.5 0 0 0-.264-.44l-3-1.612a.5.5 0 0 0-.472 0"/></g></svg>