<svg xmlns="http://www.w3.org/2000/svg" width="24" height="24" viewBox="0 0 24 24"><title>Icon-Architecture/16/Arch_Amazon-Corretto_16</title><g fill="none" fill-rule="evenodd"><path fill="#c925d1" d="M0 0h24v24H0z"/><path fill="#fff" d="M11 6h1V5h-1zm-1 .5v-2a.5.5 0 0 1 .5-.5h2a.5.5 0 0 1 .5.5v2a.5.5 0 0 1-.5.5h-2a.5.5 0 0 1-.5-.5m5 .5h1V6h-1zm-1 .5v-2a.5.5 0 0 1 .5-.5h2a.5.5 0 0 1 .5.5v2a.5.5 0 0 1-.5.5h-2a.5.5 0 0 1-.5-.5M11 10h1V9h-1zm-1 .5v-2a.5.5 0 0 1 .5-.5h2a.5.5 0 0 1 .5.5v2a.5.5 0 0 1-.5.5h-2a.5.5 0 0 1-.5-.5m1 4.5h4v-1h-4zm-4.578-2h.536a5.5 5.5 0 0 1-.058-.751V11h-.478C5.109 11 5 11.494 5 12s.109 1 1.422 1m0 1C4.42 14 4 12.913 4 12s.42-2 2.422-2H6.9v-.5a.5.5 0 0 1 .5-.5H9v1H7.9v2.249c0 .616.14 1.205.378 1.751H10v1H8.879a5.17 5.17 0 0 0 4.071 2c2.465 0 4.57-1.768 4.967-4H8.85v-1H18v-2h-4V9h4.5a.5.5 0 0 1 .5.5v2.749C19 15.42 16.286 18 12.95 18c-2.693 0-4.979-1.683-5.761-4zM20 17.5c0 1.837-4.21 2.503-7.039 2.503C9.502 20.003 6 19.144 6 17.5c0-.416.205-1.2 1.576-1.766l.381.924c-.706.292-.957.636-.957.842 0 .53 2.263 1.503 5.961 1.503 3.746 0 6.039-.973 6.039-1.503 0-.213-.349-.633-.917-.831l.33-.945c.92.321 1.587 1.069 1.587 1.776"/></g></svg>