<svg xmlns="http://www.w3.org/2000/svg" width="24" height="24" viewBox="0 0 24 24"><title>Icon-Architecture/16/Arch_AWS-X-Ray_16</title><g fill="none" fill-rule="evenodd"><path fill="#c925d1" d="M0 0h24v24H0z"/><path fill="#fff" d="M13.362 15.02H12.34v-.995h-1.022v1.99h3.064V13.03h-1.021zm3.064-.497c0-1.92-1.604-3.483-3.575-3.483-1.97 0-3.574 1.562-3.574 3.483 0 1.92 1.603 3.482 3.574 3.482s3.575-1.562 3.575-3.482m1.02 0c0 2.468-2.061 4.477-4.595 4.477s-4.595-2.009-4.595-4.477 2.062-4.478 4.595-4.478 4.596 2.01 4.596 4.478M20 11.643c0 1.598-.904 2.638-2.479 2.853l-.14-.985c1.06-.146 1.598-.773 1.598-1.869 0-1.027-.626-1.67-1.862-1.912a.5.5 0 0 1-.41-.46c-.055-.96-.601-1.3-1.053-1.3a.98.98 0 0 0-.773.382.52.52 0 0 1-.481.19.51.51 0 0 1-.404-.32 3.6 3.6 0 0 0-.856-1.327c-.45-.429-1.685-1.351-3.44-.649-.983.393-1.782 1.57-1.782 2.621q0 .184.021.358a.496.496 0 0 1-.384.543c-.7.169-1.533.628-1.533 1.854l.004.139c.043.755.723 1.448 1.656 1.691l-.264.961c-1.354-.351-2.344-1.418-2.41-2.593L5 11.622c0-1.275.7-2.258 1.896-2.696v-.059c0-1.467 1.04-2.99 2.417-3.54 1.602-.645 3.301-.323 4.54.856.31.294.583.652.806 1.054 1.017-.58 2.71-.207 3.025 1.603C19.163 9.246 20 10.252 20 11.642"/></g></svg>