<svg xmlns="http://www.w3.org/2000/svg" width="24" height="24" viewBox="0 0 24 24"><title>Icon-Architecture/16/Arch_AWS-Cloud-Control-API_16</title><g fill="none" fill-rule="evenodd"><path fill="#c925d1" d="M0 0h24v24H0z"/><path fill="#fff" d="M5.045 14.849a1.5 1.5 0 0 1 .275-1.307 1.5 1.5 0 0 1 1.18-.573h6.763l-1.629 1.629.707.707 2.482-2.482a.5.5 0 0 0 0-.707l-2.482-2.482-.707.707 1.63 1.628H6.498a2.49 2.49 0 0 0-1.965.954 2.52 2.52 0 0 0-.462 2.16c.264 1.093 1.325 1.886 2.523 1.886h.146v-1h-.146c-.742 0-1.394-.471-1.55-1.12M19.99 13.78c0 2.349-1.949 3.11-2.979 3.187H9.194l1.647 1.648-.707.707-2.504-2.504a.5.5 0 0 1 0-.707l2.504-2.504.707.707-1.654 1.654h7.787c.172-.016 2.015-.223 2.015-2.188 0-.371-.068-.703-.203-.987q-.26-.544-.845-.88a3 3 0 0 0-.99-.348.5.5 0 0 1-.408-.572 2.3 2.3 0 0 0-.065-.503c-.125-.49-.44-.817-.863-.9a1.11 1.11 0 0 0-1.093.437.51.51 0 0 1-.476.198.5.5 0 0 1-.398-.328c-.216-.612-.527-1.125-.924-1.525-.485-.487-1.815-1.537-3.69-.738-1.063.45-1.927 1.804-1.927 3.016h-1c0-1.63 1.09-3.323 2.536-3.937 1.69-.717 3.481-.362 4.79.954q.519.523.872 1.224c.443-.275.98-.383 1.502-.281.805.156 1.42.767 1.64 1.634q.052.204.075.425.13.036.268.084c.21.073.431.169.647.292.57.325.991.769 1.253 1.319.2.419.3.895.3 1.416"/></g></svg>