<svg xmlns="http://www.w3.org/2000/svg" width="24" height="24" viewBox="0 0 24 24"><title>Icon-Architecture/16/Arch_AWS-CodeArtifact_16</title><g fill="none" fill-rule="evenodd"><path fill="#c925d1" d="M0 0h24v24H0z"/><path fill="#fff" d="m10.283 14.65 2.555-5.708.912.408-2.555 5.708zm4.936-2.556-1.296-1.314.713-.702 1.702 1.727a.504.504 0 0 1-.062.755l-1.938 1.415-.59-.807zm-5.087-1.27-1.493 1.09 1.3 1.314-.711.703-1.708-1.727a.498.498 0 0 1 .06-.755l1.962-1.432zm7.724 4.633-5.958 3.388L6 15.389V8.54l5.887-3.386 5.968 3.46zM11.89 4 5 7.962v8L11.89 20l6.966-3.961v-8z"/></g></svg>