<svg xmlns="http://www.w3.org/2000/svg" width="24" height="24" viewBox="0 0 24 24"><title>Icon-Architecture/16/Arch_AWS-Cloud-Development-Kit_16</title><g fill="none" fill-rule="evenodd"><path fill="#c925d1" d="M0 0h24v24H0z"/><path fill="#fff" d="m18.999 17.291-2.494 1.38v-3.235L19 14.056zm-2.996-2.694-2.496-1.377 2.498-1.433 2.498 1.427zM12.01 17.3 9.515 18.68v-3.244l2.495-1.385zM6 14.06l2.513 1.378v3.182L6 17.034zm6.5-8.015 2.456 1.36-2.447 1.217-2.448-1.207zm3.003 4.901-2.493 1.431V9.463l2.493-1.24zm-3.494 1.42-2.495-1.42V8.233l2.495 1.23zm-2.997 2.23-2.51-1.376 2.512-1.434 2.497 1.423zm6.49 4.077L13.012 17.3v-3.238l2.493 1.375zm4.25-5.87-.002-.001h-.001l-3.245-1.856V7.43a.48.48 0 0 0-.24-.414c-.012-.008-.027-.006-.04-.012l.006-.01-3.483-1.929a.52.52 0 0 0-.5.001L8.763 7.023l.001.003q-.006.002-.01.003a.48.48 0 0 0-.24.414v3.503L5.25 12.81h-.002v.001a.49.49 0 0 0-.248.418v4.069a.48.48 0 0 0 .227.406l3.514 2.218.004-.004c.008.004.01.013.018.018a.51.51 0 0 0 .5.002l3.248-1.797 3.241 1.785.001.001h.001l.003.002a.52.52 0 0 0 .496 0l3.495-1.935a.48.48 0 0 0 .252-.42V13.22a.48.48 0 0 0-.246-.417"/></g></svg>