<svg xmlns="http://www.w3.org/2000/svg" width="24" height="24" viewBox="0 0 24 24"><title>Icon-Architecture/16/Arch_AWS-CodePipeline_16</title><g fill="none" fill-rule="evenodd"><path fill="#c925d1" d="M0 0h24v24H0z"/><path fill="#fff" d="M9 9h1V8H9zm3.496 3.401.93.367-1.928 4.9-.93-.366zm3.831 2.247a.497.497 0 0 1 .003.754l-1.655 1.453-.66-.752 1.224-1.074-1.221-1.06.654-.756zm-7.592.336 1.257 1.219-.697.717-1.644-1.594a.499.499 0 0 1 .018-.734l1.649-1.458.662.749zM19 8h-8v1h7.825c-.281.589-.878 1-1.574 1H7.108a2.1 2.1 0 0 1-1.785-1H8V8H5.011C5.009 7.963 5 7.928 5 7.891v-.782C5 5.946 5.946 5 7.108 5h9.904A1.99 1.99 0 0 1 19 6.989zM6.914 19v-8.02c.065.004.128.02.194.02h9.91v8zM17.012 4H7.108A3.113 3.113 0 0 0 4 7.109v.782c0 1.291.791 2.4 1.914 2.869v8.74a.5.5 0 0 0 .5.5h11.104a.5.5 0 0 0 .5-.5v-8.622A2.745 2.745 0 0 0 20 8.251V6.989A2.99 2.99 0 0 0 17.012 4"/></g></svg>