<svg xmlns="http://www.w3.org/2000/svg" width="24" height="24" fill="none" viewBox="0 0 24 24"><path fill="#c925d1" d="M0 0h24v24H0z"/><path fill="#fff" fill-rule="evenodd" d="M10.489 8.986a.5.5 0 1 0-.002-1.002.5.5 0 0 0 .002 1.002m0 1c-.827 0-1.5-.673-1.5-1.5s.673-1.5 1.5-1.5 1.5.673 1.5 1.5-.673 1.5-1.5 1.5m3.293 2.914.707-.707.707.707.707-.707-.707-.707.707-.707-.707-.707-.707.707-.707-.707-.707.707.707.707-.707.707zm-3.793.086h-1v5a.5.5 0 0 0 1 0zm2 0h-1v5c0 .827-.673 1.5-1.5 1.5s-1.5-.673-1.5-1.5v-5h-1v-1h5zm7.776-1.166c0 2.332-1.919 3.09-2.933 3.165l-4.843.001v-1h4.806c.167-.016 1.97-.221 1.97-2.166 0-1.663-1.41-2.086-2.016-2.19a.5.5 0 0 1-.408-.574c-.002-.675-.29-1.186-.792-1.351a1.08 1.08 0 0 0-1.205.399.5.5 0 0 1-.874-.131c-.213-.606-.521-1.113-.915-1.508-.479-.483-1.796-1.521-3.653-.733-1.052.447-1.907 1.787-1.907 2.986l.027.436a.5.5 0 0 1-.375.515C6.032 9.827 5 10.314 5 11.798c0 1.124.606 1.743 1.115 2.064a.7.7 0 0 0 .445.124h.429v1h-.43c-.382 0-.666-.081-.977-.278C4.991 14.335 4 13.461 4 11.798c0-1.411.74-2.496 2.001-2.973l-.005-.076c-.001-1.648 1.081-3.328 2.515-3.937 1.679-.714 3.457-.358 4.753.947q.513.516.863 1.207a2.06 2.06 0 0 1 1.734-.211c.823.271 1.352.998 1.458 1.979 1.246.342 2.446 1.298 2.446 3.086" clip-rule="evenodd"/></svg>