<svg xmlns="http://www.w3.org/2000/svg" width="24" height="24" viewBox="0 0 24 24"><title>Icon-Architecture/16/Arch_AWS-CloudShell_16</title><g fill="none" fill-rule="evenodd"><path fill="#c925d1" d="M0 0h24v24H0z"/><path fill="#fff" d="M13.995 18h3v-1h-3zm-2.375-.177 2.237-2.237a.5.5 0 0 0 0-.707l-2.237-2.237-.707.707 1.884 1.883-1.884 1.884zM8.995 19h10v-8h-10zm11-8.5v9a.5.5 0 0 1-.5.5h-11a.5.5 0 0 1-.5-.5v-9a.5.5 0 0 1 .5-.5h11a.5.5 0 0 1 .5.5M7.812 5.204c-.639.272-1.16 1.089-1.16 1.822l.018.279a.5.5 0 0 1-.375.514c-.441.113-.965.42-.965 1.246 0 .667.359 1.035.661 1.226.02.005.173.04.297.06l.703-.005v1h-.783c-.293-.041-.582-.104-.751-.21A2.37 2.37 0 0 1 4.33 9.065c0-.968.487-1.721 1.324-2.082.03-1.141.78-2.28 1.768-2.7 1.176-.498 2.424-.252 3.333.664q.3.3.52.689a1.53 1.53 0 0 1 1.132-.071c.459.15.944.579 1.066 1.34.393.127.919.385 1.271.906.243.36.366.787.366 1.27h-1q0-.421-.194-.71c-.278-.412-.793-.54-1.002-.575a.5.5 0 0 1-.41-.565c-.002-.351-.151-.63-.409-.716a.55.55 0 0 0-.609.204.501.501 0 0 1-.874-.13 2.5 2.5 0 0 0-.566-.937c-.294-.296-1.099-.93-2.234-.448"/></g></svg>