<svg xmlns="http://www.w3.org/2000/svg" width="24" height="24" viewBox="0 0 24 24"><title>Icon-Architecture/16/Arch_AWS-CodeBuild_16</title><g fill="none" fill-rule="evenodd"><path fill="#c925d1" d="M0 0h24v24H0z"/><path fill="#fff" d="M12.146 14.854a.5.5 0 0 1 0-.707l1-1 .707.707-.646.646.646.647-.707.707zm3.839 1.768-.971-.243 1-4 .971.243zM11 17h8v-5h-8zm3.522-6.952 2.381.952h-4.285zM5 7V5h12.232l1.333 2zm1 12h2V8H6zm13.684-7.962.001-.002L15 9.162V8h4.5a.498.498 0 0 0 .416-.777l-2-3A.5.5 0 0 0 17.5 4h-13a.5.5 0 0 0-.5.5v3c0 .277.223.5.5.5H5v11.5c0 .277.223.5.5.5h3a.5.5 0 0 0 .5-.5V8h5v1.191l-3.724 1.862.002.005A.5.5 0 0 0 10 11.5v6c0 .277.223.5.5.5h9a.5.5 0 0 0 .5-.5v-6a.5.5 0 0 0-.316-.462"/></g></svg>