<svg xmlns="http://www.w3.org/2000/svg" width="24" height="24" viewBox="0 0 24 24"><title>Icon-Architecture/16/Arch_AWS-CodeCommit_16</title><g fill="none" fill-rule="evenodd"><path fill="#c925d1" d="M0 0h24v24H0z"/><path fill="#fff" d="M15.3 12.9 13.833 14l1.467 1.1-.6.8-2-1.5a.5.5 0 0 1 0-.8l2-1.5zM7 6.5a.5.5 0 0 1 .5-.5H10v1H8.722l1.634 1.648-.711.704L8 7.693V9H7zm11.464 5.686-2 5-.928-.371 2-5zM20 8.5v11a.5.5 0 0 1-.5.5h-8.004a.5.5 0 0 1-.5-.501l.004-2.5 1 .002L11.997 19H19V9h-6V8h6.5a.5.5 0 0 1 .5.5M11.5 10a.5.5 0 1 1 0 1 .5.5 0 0 1 0-1m-6 9a.5.5 0 1 1 .002-1.002A.5.5 0 0 1 5.5 19m0-7a.5.5 0 1 1 0 1 .5.5 0 0 1 0-1m0-7a.5.5 0 1 1 0 1 .5.5 0 0 1 0-1m6.5 8.798v-1.89c.581-.207 1-.757 1-1.408 0-.827-.673-1.5-1.5-1.5s-1.5.673-1.5 1.5c0 .651.419 1.201 1 1.408v1.89c0 .19-.13.365-.265.424-.06.014-1.486.365-2.712 1.075-.592.325-1.432 1.224-1.895 1.845q-.063-.027-.128-.05v-3.184c.581-.207 1-.757 1-1.408s-.419-1.201-1-1.408V6.908c.581-.207 1-.757 1-1.408C7 4.673 6.327 4 5.5 4S4 4.673 4 5.5c0 .651.419 1.201 1 1.408v4.184c-.581.207-1 .757-1 1.408s.419 1.201 1 1.408v3.184c-.581.207-1 .757-1 1.408 0 .827.673 1.5 1.5 1.5S7 19.327 7 18.5a1.5 1.5 0 0 0-.155-.651c.308-.43 1.148-1.395 1.669-1.681 1.108-.642 2.443-.971 2.523-.996.585-.232.963-.771.963-1.374"/></g></svg>