<svg xmlns="http://www.w3.org/2000/svg" width="24" height="24" viewBox="0 0 24 24"><title>Icon-Architecture/16/Arch_Amazon-CodeCatalyst_16</title><g fill="none" fill-rule="evenodd"><path fill="#c925d1" d="M0 0h24v24H0z"/><path fill="#fff" d="M12.5 18.967v-1.994a5 5 0 0 0 1.56-.416l1.468 1.49a6.9 6.9 0 0 1-3.028.92M5 12c0-3.691 2.874-6.717 6.5-6.975V7.05C8.98 7.305 7 9.414 7 12c0 2.585 1.98 4.694 4.5 4.949v2.025C7.874 18.716 5 15.691 5 12m9.045-4.564c-.487-.218-1.012-.329-1.545-.383v-2.02a6.9 6.9 0 0 1 3.029.919zm.473 8.161a.5.5 0 0 0-.597-.087A4.005 4.005 0 0 1 8 12a4.004 4.004 0 0 1 5.907-3.518.5.5 0 0 0 .592-.086l2.175-2.174a.498.498 0 0 0-.066-.762A7.94 7.94 0 0 0 12 4c-4.411 0-8 3.589-8 8s3.589 8 8 8a7.95 7.95 0 0 0 4.604-1.457.502.502 0 0 0 .069-.76zm3.509-.076-1.483-1.473a5.01 5.01 0 0 0 .001-4.177l1.472-1.494A6.95 6.95 0 0 1 19 11.958a6.95 6.95 0 0 1-.973 3.563m.474-8.227a.5.5 0 0 0-.367-.207.48.48 0 0 0-.396.148l-2.158 2.19a.5.5 0 0 0-.08.594 4 4 0 0 1-.003 3.884.5.5 0 0 0 .084.598l2.177 2.162a.498.498 0 0 0 .76-.064A7.95 7.95 0 0 0 20 11.958c0-1.687-.519-3.3-1.499-4.664"/></g></svg>