<svg xmlns="http://www.w3.org/2000/svg" width="24" height="24" viewBox="0 0 24 24"><title>Icon-Architecture/16/Arch_AWS-Cloud9_16</title><g fill="none" fill-rule="evenodd"><path fill="#c925d1" d="M0 0h24v24H0z"/><path fill="#fff" d="M13.392 12.329q-.206.118-.453.184a2 2 0 0 1-.49.066q-.424 0-.642-.24t-.219-.702q0-.435.228-.694a.77.77 0 0 1 .606-.26q.95 0 .97 1.553zm-.957-2.186a1.5 1.5 0 0 0-.782.2 1.4 1.4 0 0 0-.524.547q-.182.346-.182.787 0 .665.362 1.047.363.381.985.381a1.9 1.9 0 0 0 .577-.089q.283-.087.514-.246-.045.816-.362 1.204-.319.39-.934.39-.444 0-.968-.245v.5q.422.284 1.058.284.885 0 1.366-.665.482-.664.482-1.903 0-1.073-.407-1.633-.408-.56-1.185-.559m4.44 5.831H8.082c-1.107-.001-2.02-.823-2.078-1.868L6 13.952c0-1.365.967-1.813 1.544-1.959a.51.51 0 0 0 .376-.561 3 3 0 0 1-.022-.376c0-1.11.804-2.35 1.792-2.766a3.2 3.2 0 0 1 1.264-.268c1.09 0 1.859.617 2.194.95.371.369.659.84.859 1.403a.5.5 0 0 0 .395.332.49.49 0 0 0 .472-.195c.258-.346.673-.492 1.054-.37.467.145.759.633.8 1.34a.51.51 0 0 0 .4.471c1.243.258 1.872.937 1.872 2.02 0 1.806-1.486 2.001-2.125 2.001m.808-4.94c-.159-.944-.688-1.632-1.463-1.875a1.9 1.9 0 0 0-1.562.197q-.331-.639-.814-1.119c-1.24-1.234-2.936-1.569-4.533-.896-1.376.578-2.413 2.175-2.413 3.715l.001.07C5.702 11.581 5 12.612 5 13.951q0 .104.006.21c.087 1.59 1.438 2.836 3.075 2.838h8.794C18.317 17 20 16.208 20 13.973c0-1.48-.819-2.512-2.317-2.938"/></g></svg>