<svg xmlns="http://www.w3.org/2000/svg" width="24" height="24" viewBox="0 0 24 24"><title>Icon-Architecture/16/Arch_AWS-CodeDeploy_16</title><g fill="none" fill-rule="evenodd"><path fill="#c925d1" d="M0 0h24v24H0z"/><path fill="#fff" d="M8.5 18.968h8v-4.13h-8zm8.5-5.162H8c-.276 0-.5.232-.5.517v5.16c0 .286.224.517.5.517h9c.276 0 .5-.231.5-.516v-5.161a.51.51 0 0 0-.5-.517m0-4.129c-.37 0-1.027.005-1.633.218-.151-1.83-.59-3.548-1.262-4.625 2.293.623 4.123 2.515 4.702 4.932A3.43 3.43 0 0 0 17 9.677m-4.5 0c-.753 0-1.263.196-1.631.456.176-3.103 1.01-4.972 1.63-4.972.697 0 1.708 2.038 1.89 5.183-.366-.367-.942-.667-1.89-.667m-2.638.504a3.46 3.46 0 0 0-1.822-.504c-.354 0-1.086 0-1.746.28.685-2.312 2.477-4.104 4.666-4.697-.645 1.128-1 2.968-1.098 4.921M20 11.731C19.938 7.469 16.574 4 12.5 4 8.535 4 5.18 7.442 5 11.7a.53.53 0 0 0 .152.398l-.008.01 2 2.064.709-.731-1.807-1.863c.141-.46.568-.868 1.993-.868.89 0 1.51.424 1.792.757l.003.172c0 .045.007.102.019.146l.333 1.274.965-.268-.214-.817a.5.5 0 0 0 .062-.219c.009-.245.145-1.045 1.5-1.045s1.49.8 1.502 1.08a.51.51 0 0 0 .234.38l-.138.619.965.272.337-1.275.003-.012a.5.5 0 0 0 .016-.112l.008-.344q-.001-.159-.006-.318c.284-.175.757-.29 1.579-.29a2.45 2.45 0 0 1 1.9.92l-1.754 1.811.708.73 2-2.064a.53.53 0 0 0 .146-.365z"/></g></svg>