<svg xmlns="http://www.w3.org/2000/svg" width="24" height="24" viewBox="0 0 24 24"><title>Icon-Architecture/16/Arch_AWS-Application-Composer_16</title><g fill="none" fill-rule="evenodd"><path fill="#c925d1" d="M0 0h24v24H0z"/><path fill="#fff" d="M18 18.5a1.001 1.001 0 0 1 0-2 1.001 1.001 0 0 1 0 2m-5.293-.293a1 1 0 1 1-1.414-1.416 1 1 0 0 1 1.414 1.416m-7.414-5.5A1 1 0 0 1 5 12a.997.997 0 0 1 1.707-.707c.189.189.293.44.293.707a1 1 0 0 1-1.707.707m6-6.914a.997.997 0 0 1 1.414 0c.189.189.293.44.293.707a1 1 0 1 1-1.707-.707M18 5.5a1.001 1.001 0 0 1 0 2 1.001 1.001 0 0 1 0-2m0 10c-.929 0-1.705.64-1.929 1.5h-2.142a2 2 0 0 0-.515-.914 2 2 0 0 0-2.503-.263l-3.152-2.889C7.911 12.648 8 12.333 8 12s-.089-.648-.241-.934l3.152-2.89a1.996 1.996 0 0 0 2.503-.262A2 2 0 0 0 13.929 7h2.142c.224.86 1 1.5 1.929 1.5 1.103 0 2-.897 2-2s-.897-2-2-2c-.929 0-1.705.64-1.929 1.5h-2.142a2 2 0 0 0-.515-.914A2.001 2.001 0 0 0 10 6.5c0 .333.089.648.241.934l-3.152 2.889a2 2 0 0 0-2.503.263C4.208 10.963 4 11.466 4 12s.208 1.037.586 1.414a1.99 1.99 0 0 0 2.503.262l3.152 2.89A2 2 0 0 0 10 17.5c0 .534.208 1.037.586 1.414.39.39.902.585 1.414.585s1.024-.195 1.414-.585a2 2 0 0 0 .515-.914h2.142c.224.86 1 1.5 1.929 1.5 1.103 0 2-.897 2-2s-.897-2-2-2M6 18a.5.5 0 1 1 .002-1.002A.5.5 0 0 1 6 18m0-2c-.827 0-1.5.673-1.5 1.5S5.173 19 6 19s1.5-.673 1.5-1.5S6.827 16 6 16m12-3.5a.5.5 0 1 1 .002-1.002A.5.5 0 0 1 18 12.5m0-2c-.827 0-1.5.673-1.5 1.5s.673 1.5 1.5 1.5 1.5-.673 1.5-1.5-.673-1.5-1.5-1.5m-6 2a.5.5 0 1 1 .002-1.002A.5.5 0 0 1 12 12.5m0-2c-.827 0-1.5.673-1.5 1.5s.673 1.5 1.5 1.5 1.5-.673 1.5-1.5-.673-1.5-1.5-1.5M6 6a.5.5 0 1 1-.002 1.002A.5.5 0 0 1 6 6m0 2c.827 0 1.5-.673 1.5-1.5S6.827 5 6 5s-1.5.673-1.5 1.5S5.173 8 6 8"/></g></svg>