<svg xmlns="http://www.w3.org/2000/svg" width="90" height="90" viewBox="0 0 90 90"><title>Icon-Architecture-Category/64/Business-Applications_64</title><g fill="none" fill-rule="evenodd"><path fill="#dd344c" d="M5 5h80v80H5z"/><path stroke="#879196" stroke-width="2" d="M1 1h88v88H1z"/><path fill="#fff" d="M65.586 71H24.414l-4-4h49.172zM23 41.826c0-1.007.82-1.826 1.826-1.826H29v25h-6zM34 35a1 1 0 0 0 1-1v-6h5v37h-9V35zm8 30h6V24h-6zm13-37v6a1 1 0 0 0 1 1h3v30h-9V28zm10.174 12c1.007 0 1.826.819 1.826 1.826V65h-6V40zm7.75 25.617A1 1 0 0 0 72 65h-3V41.826A3.83 3.83 0 0 0 65.174 38H61v-4a1 1 0 0 0-1-1h-3v-6a1 1 0 0 0-1-1h-6v-3a1 1 0 0 0-1-1h-3v-5h-2v5h-3a1 1 0 0 0-1 1v3h-6a1 1 0 0 0-1 1v6h-3a1 1 0 0 0-1 1v4h-4.174A3.83 3.83 0 0 0 21 41.826V65h-3a1.002 1.002 0 0 0-.707 1.707l6 6A1 1 0 0 0 24 73h42c.266 0 .52-.105.707-.293l6-6a1 1 0 0 0 .217-1.09"/></g></svg>