<svg xmlns="http://www.w3.org/2000/svg" width="90" height="90" viewBox="0 0 90 90"><title>Icon-Architecture-Category/64/Analytics_64</title><g fill="none" fill-rule="evenodd"><path fill="#8c4fff" d="M5 5h80v80H5z"/><path stroke="#879196" stroke-width="2" d="M1 1h88v88H1z"/><path fill="#fff" d="M61 32v8h-2v-5.464L47.76 47.651c-.178.206-.43.331-.7.348a1.03 1.03 0 0 1-.739-.264l-5.794-5.348-10.32 10.32-1.414-1.414 11-11a1 1 0 0 1 1.386-.028l5.737 5.297L57.684 33H52v-2h8a1 1 0 0 1 1 1m5.485 33h-42.97l-3.572-5h50.114zM23 26.912c0-1.055.917-1.912 2.044-1.912h39.912c1.127 0 2.044.857 2.044 1.912V58H23zm49.89 31.63A1 1 0 0 0 72 58h-3V26.912C69 24.755 67.186 23 64.956 23H25.044C22.814 23 21 24.755 21 26.912V58h-3c-.375 0-.718.209-.89.542a1 1 0 0 0 .077 1.039l5 7c.187.263.49.419.813.419h44a1 1 0 0 0 .813-.419l5-7a1 1 0 0 0 .077-1.039"/></g></svg>