<svg xmlns="http://www.w3.org/2000/svg" width="90" height="90" viewBox="0 0 90 90"><title>Icon-Architecture-Category/64/Developer-Tools_64</title><g fill="none" fill-rule="evenodd"><path fill="#c925d1" d="M5 5h80v80H5z"/><path stroke="#879196" stroke-width="2" d="M1 1h88v88H1z"/><path fill="#fff" d="M70.978 64.948c0-.45-.175-.872-.493-1.19l-20.61-20.61a.66.66 0 0 0-.94 0l-5.787 5.787a.665.665 0 0 0 0 .94l20.61 20.61c.636.635 1.741.636 2.38 0l4.347-4.347c.317-.318.493-.741.493-1.19M43.221 46.033l2.812-2.812-12.309-12.356a4.2 4.2 0 0 1-1.017-1.671l-1.79-5.582a2.18 2.18 0 0 0-1.172-1.316l-6.128-2.78a2.18 2.18 0 0 0-2.435.444l-1.224 1.223a2.18 2.18 0 0 0-.44 2.434l2.777 6.128c.253.558.733.985 1.316 1.173l6.541 2.098zm29.757 18.915c0 .983-.384 1.908-1.079 2.604l-4.348 4.347a3.67 3.67 0 0 1-2.603 1.077 3.67 3.67 0 0 1-2.605-1.077l-20.609-20.61a2.67 2.67 0 0 1 0-3.768l.072-.073-12.724-12.675L23 32.822a4.19 4.19 0 0 1-2.526-2.25l-2.778-6.13a4.19 4.19 0 0 1 .85-4.673l1.223-1.223a4.2 4.2 0 0 1 4.675-.85l6.128 2.778A4.18 4.18 0 0 1 32.821 23l1.791 5.582c.104.326.288.627.53.87l12.305 12.354.073-.073a2.67 2.67 0 0 1 3.77 0l20.61 20.61a3.66 3.66 0 0 1 1.078 2.604m-26.812-28.2 7.437-7.436a1 1 0 0 0 .285-.833 8.36 8.36 0 0 1 2.39-7.022 8.43 8.43 0 0 1 8.204-2.151l-5.179 5.178a4.11 4.11 0 0 0-1.213 2.927c0 1.106.431 2.146 1.213 2.928a4.11 4.11 0 0 0 2.928 1.213 4.11 4.11 0 0 0 2.927-1.213l5.178-5.178a8.43 8.43 0 0 1-2.15 8.204 8.37 8.37 0 0 1-7.023 2.39.99.99 0 0 0-.833.285l-5.729 5.728 1.414 1.414 5.393-5.392a10.34 10.34 0 0 0 8.191-3.01 10.44 10.44 0 0 0 2.028-11.853.998.998 0 0 0-1.609-.276l-6.274 6.274c-.809.808-2.218.808-3.027 0a2.13 2.13 0 0 1-.627-1.514c0-.571.223-1.11.627-1.513l6.275-6.274a.997.997 0 0 0-.277-1.61 10.43 10.43 0 0 0-11.852 2.029 10.34 10.34 0 0 0-3.01 8.192l-7.102 7.1zm-2.984 19.268-5.392 5.392a10.34 10.34 0 0 1-3.01 8.192 10.42 10.42 0 0 1-7.369 3.042 10.4 10.4 0 0 1-4.485-1.014 1 1 0 0 1-.554-.733 1 1 0 0 1 .278-.876l6.274-6.274a2.144 2.144 0 0 0 0-3.027 2.144 2.144 0 0 0-3.027 0l-6.273 6.274a1.01 1.01 0 0 1-.876.278 1 1 0 0 1-.734-.554 10.43 10.43 0 0 1 2.028-11.852 10.35 10.35 0 0 1 8.191-3.011l7.643-7.643 1.414 1.414-7.979 7.979a1.01 1.01 0 0 1-.833.285 8.35 8.35 0 0 0-7.02 2.39 8.43 8.43 0 0 0-2.153 8.204l5.178-5.178a4.145 4.145 0 0 1 5.855 0 4.145 4.145 0 0 1 0 5.855l-5.177 5.178a8.43 8.43 0 0 0 8.204-2.151 8.37 8.37 0 0 0 2.388-7.022 1 1 0 0 1 .286-.833l5.73-5.73z"/></g></svg>