<svg xmlns="http://www.w3.org/2000/svg" width="90" height="90" viewBox="0 0 90 90"><title>Icon-Architecture-Category/64/Quantum-Technologies_64</title><g fill="none" fill-rule="evenodd"><path fill="#ed7100" d="M5 5h80v80H5z"/><path stroke="#879196" stroke-width="2" d="M1 1h88v88H1z"/><path fill="#fff" d="M67.517 58c-.467.809-1.349 1.379-2.614 1.71A3.5 3.5 0 0 0 61.5 57a3.5 3.5 0 0 0-3.385 2.657 36 36 0 0 1-3.517-.787c.519-2.359.906-4.938 1.141-7.681a60 60 0 0 0 6.07-4.814 37 37 0 0 1 2.491 2.686c3.14 3.784 4.313 7.043 3.217 8.939M61.5 62c-.827 0-1.5-.673-1.5-1.5s.673-1.5 1.5-1.5a1.501 1.501 0 0 1 0 3M45 71c-2.69 0-5.497-4.006-7.246-10.745 2.313-.732 4.751-1.69 7.256-2.864 2.461 1.15 4.901 2.118 7.236 2.864C50.497 66.994 47.691 71 45 71M22.484 58c-.705-1.221-.358-2.821.163-4.118.275.07.557.118.853.118 1.93 0 3.5-1.57 3.5-3.5 0-.791-.273-1.513-.717-2.1q.884-1.012 1.91-2.025a60 60 0 0 0 6.069 4.814 59 59 0 0 0 1.148 7.712c-6.708 1.853-11.581 1.428-12.926-.901m1.016-9a1.501 1.501 0 0 1 0 3c-.827 0-1.5-.673-1.5-1.5s.673-1.5 1.5-1.5m-1.016-17c1.345-2.329 6.219-2.753 12.926-.901a59.5 59.5 0 0 0-1.148 7.713 60 60 0 0 0-6.069 4.814 37 37 0 0 1-2.492-2.687c-3.14-3.784-4.313-7.043-3.217-8.939M45 19c.919 0 1.84.464 2.746 1.367A3.46 3.46 0 0 0 47 22.5c0 1.93 1.571 3.5 3.5 3.5.172 0 .336-.027.502-.051.45 1.171.858 2.438 1.212 3.803-2.3.73-4.724 1.683-7.214 2.85-2.502-1.172-4.936-2.128-7.246-2.859C39.503 23.005 42.31 19 45 19m7 3.5a1.501 1.501 0 0 1-3 0 1.501 1.501 0 0 1 3 0m3.899 18.873A56 56 0 0 1 60.35 45a56 56 0 0 1-4.44 3.619c.057-1.183.09-2.39.09-3.619a72 72 0 0 0-.101-3.627m-8.583-7.633a57 57 0 0 1 5.356-2.061 58 58 0 0 1 .905 5.683 74 74 0 0 0-3.077-1.888 75 75 0 0 0-3.184-1.734M36.4 37.379c.221-2.045.525-3.954.9-5.708a56 56 0 0 1 5.384 2.069 75 75 0 0 0-3.184 1.734 74 74 0 0 0-3.1 1.905m-2.309 11.24A56 56 0 0 1 29.651 45a57 57 0 0 1 4.44-3.62A75 75 0 0 0 34 45c0 1.229.034 2.436.091 3.619m8.606 7.636A57 57 0 0 1 37.3 58.33a57 57 0 0 1-.9-5.709 74 74 0 0 0 3.1 1.905 72 72 0 0 0 3.197 1.729m10.904-3.634a56 56 0 0 1-.896 5.686 57 57 0 0 1-5.365-2.056 75 75 0 0 0 3.16-1.725 74 74 0 0 0 3.101-1.905m-4.101.173a73 73 0 0 1-4.49 2.385 71 71 0 0 1-4.51-2.385 72 72 0 0 1-4.324-2.706 73 73 0 0 1 0-10.176A72 72 0 0 1 45 34.816a71.58 71.58 0 0 1 8.811 5.087 71 71 0 0 1 .014 10.185 72 72 0 0 1-4.325 2.706M67.517 32c1.096 1.896-.077 5.155-3.217 8.939a37 37 0 0 1-2.491 2.686 60 60 0 0 0-6.082-4.822c-.234-2.707-.616-5.305-1.139-7.703 6.709-1.854 11.584-1.429 12.929.9m-4.255 13a39 39 0 0 0 2.578-2.784c3.759-4.531 4.969-8.514 3.409-11.216-1.923-3.331-7.727-3.821-15.119-1.815a37 37 0 0 0-1.31-4.084A3.48 3.48 0 0 0 54 22.5c0-1.93-1.57-3.5-3.5-3.5-.385 0-.751.078-1.098.194C48.038 17.738 46.562 17 45 17c-3.845 0-7.17 4.781-9.13 12.186C28.478 27.18 22.674 27.669 20.751 31c-1.559 2.702-.349 6.685 3.41 11.216a39 39 0 0 0 2.58 2.785 40 40 0 0 0-2.078 2.213A3.5 3.5 0 0 0 23.5 47c-1.929 0-3.5 1.57-3.5 3.5 0 .905.355 1.724.921 2.346-1.036 2.41-1.105 4.533-.17 6.154 1.171 2.028 3.78 3.002 7.31 3.002 2.267 0 4.918-.408 7.808-1.191C37.829 68.217 41.155 73 45 73s7.171-4.781 9.131-12.186c1.427.392 2.793.685 4.096.89A3.5 3.5 0 0 0 61.5 64a3.5 3.5 0 0 0 3.246-2.207c2.151-.417 3.67-1.35 4.503-2.793 1.56-2.702.35-6.685-3.409-11.216A39 39 0 0 0 63.262 45"/></g></svg>