<svg xmlns="http://www.w3.org/2000/svg" width="90" height="90" viewBox="0 0 90 90"><title>Icon-Architecture-Category/64/End-User-Computing_64</title><g fill="none" fill-rule="evenodd"><path fill="#01a88d" d="M5 5h80v80H5z"/><path stroke="#879196" stroke-width="2" d="M1 1h88v88H1z"/><path fill="#fff" d="M57.434 68h7v-2h-7zm-35-47.074c0-1.062.95-1.926 2.12-1.926h41.759c1.17 0 2.12.864 2.12 1.926V25h2v-4.074c0-2.165-1.848-3.926-4.12-3.926H24.555c-2.272 0-4.121 1.761-4.121 3.926V53H18a1 1 0 0 0-.768 1.64l5 6A1 1 0 0 0 23 61h22.434v-2H23.469l-3.334-4h25.299v-2h-23zm27 50.074h22v-8h-22zm0-42v32h22V29zm24 0v42c0 1.103-.897 2-2 2h-22c-1.103 0-2-.897-2-2V29c0-1.103.897-2 2-2h22c1.103 0 2 .897 2 2m-16.547 9.678c1.285 1.091 1.304 2.839 1.31 2.839a1 1 0 0 0 .258.824.99.99 0 0 0 .807.316c.032-.001 3.128-.21 4.73 1.28.633.589.942 1.372.942 2.393 0 1.852-2.075 3.67-4.19 3.67h-9.31v2h9.31c3.24 0 6.19-2.703 6.19-5.67 0-1.589-.534-2.889-1.588-3.865-1.574-1.458-3.922-1.764-5.243-1.812-.163-.943-.606-2.262-1.704-3.304-1.605-1.521-4.02-1.974-7.192-1.339l.393 1.961c2.392-.477 4.17-.24 5.287.707M34.43 34.763c0 .522.1 1.049.307 1.612a1 1 0 0 1-1.201 1.309 4.8 4.8 0 0 0-1.273-.193c-2.663 0-4.83 2.137-4.83 4.763s2.167 4.763 4.83 4.763L45.433 47v2h-13c-3.767 0-7-3.017-7-6.746 0-3.799 3.177-6.892 7.043-6.759a6 6 0 0 1-.045-.732c0-3.666 3.207-6.763 7.003-6.763 3.729 0 7 3.271 7 7h-2c0-2.664-2.337-5-5-5-2.712 0-5.003 2.181-5.003 4.763"/></g></svg>