<svg xmlns="http://www.w3.org/2000/svg" width="90" height="90" viewBox="0 0 90 90"><title>Icon-Architecture-Category/64/Serverless_64</title><g fill="none" fill-rule="evenodd"><path stroke="#879196" stroke-width="2" d="M1 1h88v88H1z"/><path fill="#8c4fff" d="M5 5h80v80H5z"/><path fill="#fff" d="M73.251 52.005c0 5.67-3.995 11.411-11.629 11.411-7.547 0-12.398-4.408-16.934-9.113-.173-.179-1.72-1.863-1.896-2.056-1.9-2.08-3.718-4.038-5.67-5.672l.006 6.424-2 .002-.009-9a1 1 0 0 1 1-1.001l9.008-.009.002 2-6.779.007c2.091 1.743 4.038 3.842 5.92 5.9.12.132 1.351 1.461 1.726 1.876 4.148 4.58 8.82 8.642 15.626 8.642 6.615 0 9.63-4.878 9.63-9.411 0-4.232-2.75-8.788-8.788-8.788-6.874 0-10.969 3.411-14.729 7.573-.183-.21-.366-.416-.549-.628-.256-.295-.518-.59-.777-.886 3.932-4.314 8.488-8.059 16.055-8.059h.014C62.25 38.099 60.361 35 55.626 35h-.875a1 1 0 0 1-.875-.516C51.627 30.424 47.374 28 42.501 28c-7.168 0-13 5.832-13 13a1 1 0 0 1-1 1 9.41 9.41 0 0 0-6.933 3.005 9.43 9.43 0 0 0-2.546 7.13c.322 4.971 4.644 8.865 9.84 8.865h2.042c.484 0 .971-.035 1.45-.105 1.045-.152 1.98-.427 2.777-.817 2.438-1.195 4.454-3.077 6.403-5.22l.47.536c.281.325.572.647.857.973-2.015 2.194-4.202 4.209-6.85 5.507-.985.482-2.118.819-3.37 1.001-.574.083-1.158.125-1.737.125h-2.043c-6.246 0-11.445-4.716-11.836-10.735-.209-3.219.887-6.283 3.083-8.627a11.55 11.55 0 0 1 7.423-3.596C28.027 32.215 34.552 26 42.501 26c5.403 0 10.153 2.605 12.825 7h.3c5.22 0 8.651 3.266 8.864 8.367 6.003.922 8.761 5.942 8.761 10.638"/></g></svg>