<svg xmlns="http://www.w3.org/2000/svg" width="90" height="90" viewBox="0 0 90 90"><title>Icon-Architecture-Category/64/Contact-Center_64</title><g fill="none" fill-rule="evenodd"><path fill="#dd344c" d="M5 5h80v80H5z"/><path stroke="#879196" stroke-width="2" d="M1 1h88v88H1z"/><path fill="#fff" d="M21.65 70.971c5.152-9.344 13.7-14.93 23.14-15.03 5.059-.059 10.057 1.535 14.425 4.595 3.554 2.49 6.68 6.104 9.107 10.513zm9.402-31.49c0-7.618 6.199-13.816 13.817-13.816s13.815 6.198 13.815 13.816c0 2.614-.721 5.099-2.08 7.278a3.46 3.46 0 0 0-2.188-.791H50.61c-1.93 0-3.5 1.57-3.5 3.501 0 1.394.826 2.591 2.009 3.153-1.365.44-2.795.675-4.25.675-7.618 0-13.817-6.198-13.817-13.816m-2.064 5.487h-1.225c-2.082 0-3.775-1.558-3.775-3.473V38.44c0-1.914 1.693-3.472 3.775-3.472h1.225zM44.944 18.88c8.694 0 16.227 5.988 18.136 14.157a6 6 0 0 0-.867-.069h-2.225a1 1 0 0 0-.613.229c-2.436-5.601-8.018-9.532-14.506-9.532-6.441 0-11.984 3.875-14.45 9.411a1 1 0 0 0-.431-.108h-2.225c-.324 0-.64.032-.95.081 1.913-8.159 9.48-14.169 18.13-14.169m21.044 22.615c0 1.915-1.693 3.473-3.775 3.473h-1.225v-10h1.225c2.082 0 3.775 1.558 3.775 3.472zm-6.377 8.473h-1.746c.024-.164.05-.328.05-.499 0-.308-.052-.601-.127-.885q.745-1.053 1.3-2.193c.16.339.5.577.9.577h2.225c.532 0 1.046-.074 1.536-.203-.668 1.638-2.001 3.203-4.138 3.203m-5.195 1H50.61c-.827 0-1.5-.673-1.5-1.499 0-.828.673-1.501 1.5-1.501h3.806c.827 0 1.5.673 1.5 1.501 0 .826-.673 1.499-1.5 1.499M70.87 71.607c-2.667-5.366-6.3-9.761-10.507-12.708-3.204-2.244-6.741-3.736-10.387-4.455a15.7 15.7 0 0 0 3.142-1.476h1.297c.95 0 1.81-.383 2.442-1h2.753c3.706 0 6.062-3.216 6.565-6.503 1.113-.998 1.812-2.406 1.812-3.97V38.44c0-1.956-1.092-3.67-2.725-4.638-1.628-9.677-10.27-16.922-20.32-16.922-10.02 0-18.74 7.294-20.34 16.985-1.572.979-2.615 2.663-2.615 4.575v3.055c0 3.018 2.59 5.473 5.775 5.473h2.225a.99.99 0 0 0 .769-.384 15.88 15.88 0 0 0 9.113 7.891c-8.668 1.752-16.218 7.851-20.766 17.05a.998.998 0 0 0 .895 1.443l49.974.084h.002a1 1 0 0 0 .896-1.445"/></g></svg>