<svg xmlns="http://www.w3.org/2000/svg" width="90" height="90" viewBox="0 0 90 90"><title>Icon-Architecture-Category/64/Application-Integration_64</title><g fill="none" fill-rule="evenodd"><path fill="#e7157b" d="M5 5h80v80H5z"/><path stroke="#879196" stroke-width="2" d="M1 1h88v88H1z"/><path fill="#fff" d="M71 44h-8.615a6.114 6.114 0 0 0-2.092-7.787c-1.74-1.165-3.904-1.352-5.933-.515a5.7 5.7 0 0 0-3.057 3.043c-.75 1.791-.693 3.672.096 5.259H45v-9.846a1 1 0 0 0-1.724-.69c-.957 1.003-2.712 1.768-4.762.909a3.68 3.68 0 0 1-1.967-1.975c-.579-1.403-.459-2.882.328-4.059a4.12 4.12 0 0 1 3.427-1.831c1.129 0 2.184.456 2.974 1.284A1.002 1.002 0 0 0 45 27.101V19h25c.552 0 1 .449 1 1zm0 26c0 .551-.448 1-1 1H45v-8.521c1.587.789 3.467.847 5.26.095a5.7 5.7 0 0 0 3.043-3.056c.837-2.031.648-4.194-.517-5.935A6.11 6.11 0 0 0 45 51.494V46h8.366a1.001 1.001 0 0 0 .691-1.724c-1.003-.956-1.769-2.71-.91-4.762a3.7 3.7 0 0 1 1.975-1.968c1.403-.576 2.882-.458 4.059.329a4.12 4.12 0 0 1 1.832 3.427 4.08 4.08 0 0 1-1.284 2.974c-.296.282-.39.716-.239 1.096.153.379.52.628.929.628H71zm-52 0V46h6.042c-.789 1.587-.846 3.469-.096 5.26a5.7 5.7 0 0 0 3.057 3.042 6.7 6.7 0 0 0 2.54.517 6.07 6.07 0 0 0 3.394-1.032A6.11 6.11 0 0 0 36.027 46H43v7.458a1.001 1.001 0 0 0 1.724.691 4.08 4.08 0 0 1 2.974-1.284c1.378 0 2.658.684 3.427 1.831.787 1.177.907 2.656.328 4.059a3.67 3.67 0 0 1-1.967 1.974c-2.053.86-3.806.095-4.762-.908a1 1 0 0 0-1.724.69V71H20c-.552 0-1-.449-1-1m1-51h23v6.136a6.05 6.05 0 0 0-2.698-.628 6.11 6.11 0 0 0-5.088 2.719c-1.165 1.74-1.354 3.903-.517 5.934a5.7 5.7 0 0 0 3.043 3.056c1.792.75 3.672.693 5.26-.095V44h-8.938a1 1 0 0 0-.69 1.724 4.08 4.08 0 0 1 1.284 2.974 4.12 4.12 0 0 1-1.832 3.427c-1.176.788-2.655.909-4.059.328a3.68 3.68 0 0 1-1.974-1.966c-.86-2.052-.095-3.806.908-4.763a1.001 1.001 0 0 0-.69-1.724H19V20c0-.551.448-1 1-1m50-2H20c-1.654 0-3 1.346-3 3v50c0 1.654 1.346 3 3 3h50c1.654 0 3-1.346 3-3V20c0-1.654-1.346-3-3-3"/></g></svg>