<svg xmlns="http://www.w3.org/2000/svg" width="90" height="90" viewBox="0 0 90 90"><title>Icon-Architecture-Category/64/Blockchain_64</title><g fill="none" fill-rule="evenodd"><path fill="#ed7100" d="M5 5h80v80H5z"/><path stroke="#879196" stroke-width="2" d="M1 1h88v88H1z"/><path fill="#fff" d="M71 52H58.649c-.159 0-.492-.133-.649-.248V47h-6v5H39.649c-.159 0-.492-.133-.649-.248V47h-6v4.752c-.157.115-.49.248-.649.248H20V39h12.443c.119 0 .452.102.557.194V44h6v-4.806c.105-.092.438-.194.557-.194H52v5h6v-4.806c.105-.092.382-.194.5-.194H71zm-.034-15H58.557c-1.001 0-2.454.807-2.454 2.071V42H54v-2.929C54 37.929 53.088 37 51.966 37H39.557c-1.001 0-2.454.807-2.454 2.071V42h-2.206v-2.929c0-1.264-1.453-2.071-2.454-2.071H20.034C18.912 37 18 37.929 18 39.071v12.858c0 1.142.912 2.071 2.034 2.071h12.317c.924 0 2.649-.711 2.649-2.071V49h2v2.929C37 53.289 38.725 54 39.649 54h12.317C53.088 54 54 53.071 54 51.929V49h2v2.929C56 53.289 57.725 54 58.649 54h12.317C72.088 54 73 53.071 73 51.929V39.071C73 37.929 72.088 37 70.966 37M67 43l.022 5-5.022.022L61.978 43zm-5.022 7h5.044A1.98 1.98 0 0 0 69 48.022v-5.044A1.98 1.98 0 0 0 67.022 41h-5.044A1.98 1.98 0 0 0 60 42.978v5.044A1.98 1.98 0 0 0 61.978 50M43 48.022 42.978 43H48l.022 5zM48.022 41h-5.044A1.98 1.98 0 0 0 41 42.978v5.044A1.98 1.98 0 0 0 42.978 50h5.044A1.98 1.98 0 0 0 50 48.022v-5.044A1.98 1.98 0 0 0 48.022 41M24 48.022V43l5-.022.022 5.022zM29.022 41h-5.044A1.98 1.98 0 0 0 22 42.978v5.044A1.98 1.98 0 0 0 23.978 50h5.044A1.98 1.98 0 0 0 31 48.022v-5.044A1.98 1.98 0 0 0 29.022 41"/></g></svg>