<svg xmlns="http://www.w3.org/2000/svg" width="90" height="90" viewBox="0 0 90 90"><title>Icon-Architecture-Category/64/Compute_64</title><g fill="none" fill-rule="evenodd"><path fill="#ed7100" d="M5 5h80v80H5z"/><path stroke="#879196" stroke-width="2" d="M1 1h88v88H1z"/><path fill="#fff" d="M35 55h21V34H35zm-1 2h23a1 1 0 0 0 1-1V33a1 1 0 0 0-1-1H34a1 1 0 0 0-1 1v23a1 1 0 0 0 1 1m-7 6h37V26H27zm46-35v-2h-7v-1a1 1 0 0 0-1-1h-1v-7h-2v7h-5v-7h-2v7h-5v-7h-2v7h-5v-7h-2v7h-5v-7h-2v7h-5v-7h-2v7h-1a1 1 0 0 0-1 1v1h-7v2h7v5h-7v2h7v5h-7v2h7v5h-7v2h7v5h-7v2h7v5h-7v2h7v1a1 1 0 0 0 1 1h1v7h2v-7h5v7h2v-7h5v7h2v-7h5v7h2v-7h5v7h2v-7h5v7h2v-7h1a1 1 0 0 0 1-1v-1h7v-2h-7v-5h7v-2h-7v-5h7v-2h-7v-5h7v-2h-7v-5h7v-2h-7v-5z"/></g></svg>