<svg xmlns="http://www.w3.org/2000/svg" width="90" height="90" viewBox="0 0 90 90"><title>Icon-Architecture-Category/64/Database_64</title><g fill="none" fill-rule="evenodd"><path fill="#c925d1" d="M5 5h80v80H5z"/><path stroke="#879196" stroke-width="2" d="M1 1h88v88H1z"/><path fill="#fff" d="M45 44.982c-10.019 0-17-3.16-17-5.996V28.667c3.057 2.608 9.357 4.324 17 4.324s13.943-1.716 17-4.324v10.319c0 2.836-6.981 5.996-17 5.996m0 13.745c-10.019 0-17-3.16-17-5.995V42.658c3.057 2.609 9.357 4.324 17 4.324s13.943-1.715 17-4.324v10.074c0 2.835-6.981 5.995-17 5.995M45 71c-10.019 0-17-3.16-17-5.996v-8.601c3.057 2.609 9.357 4.324 17 4.324s13.943-1.715 17-4.324v8.601C62 67.84 55.019 71 45 71m0-52c10.019 0 17 3.16 17 5.996 0 2.835-6.981 5.995-17 5.995s-17-3.16-17-5.995S34.981 19 45 19m0-2c-10.832 0-19 3.438-19 7.996v40.008C26 69.563 34.168 73 45 73s19-3.437 19-7.996V24.996C64 20.438 55.832 17 45 17"/></g></svg>