<svg xmlns="http://www.w3.org/2000/svg" width="90" height="90" viewBox="0 0 90 90"><title>Icon-Architecture-Category/64/Security-Identity-Compliance_64</title><g fill="none" fill-rule="evenodd"><path fill="#dd344c" d="M5 5h80v80H5z"/><path stroke="#879196" stroke-width="2" d="M1 1h88v88H1z"/><path fill="#fff" d="M64 50.142c0 .054-.036 5.437-2.437 10.716C58.417 67.777 52.845 71.286 45 71.286c-7.836 0-13.407-3.743-16.558-11.124C26.035 54.52 26 48.77 26 48.715V26.394l19-7.322 19 7.322zm1.359-25.368-20-7.707a1 1 0 0 0-.718 0l-20 7.707c-.386.149-.641.52-.641.933v23.008c0 .245.24 24.57 21 24.57s21-22.911 21-23.142V25.707c0-.413-.255-.784-.641-.933M59 50.134c-.014 1.612-.505 15.415-13 16.118V24.816l13 5.01zm-28-1.42V29.827l13-5.01v41.43c-12.842-.795-13-16.832-13-17.531m13.641-26.288-15 5.78a1 1 0 0 0-.641.933v19.576c0 .799.182 19.57 16 19.57 6.384 0 11.16-2.935 13.813-8.488 2.041-4.274 2.18-8.785 2.187-9.654V29.139a1 1 0 0 0-.641-.933l-15-5.78a1 1 0 0 0-.718 0"/></g></svg>