<svg xmlns="http://www.w3.org/2000/svg" width="90" height="90" viewBox="0 0 90 90"><title>Icon-Architecture-Category/64/Machine-Learning_64</title><g fill="none" fill-rule="evenodd"><path fill="#01a88d" d="M5 5h80v80H5z"/><path stroke="#879196" stroke-width="2" d="M1 1h88v88H1z"/><path fill="#fff" d="M44 51.608V44.17l-5.35-3.103 1.004-1.73L44 41.857V21.64l-5.48-2.53L33 21.896V29h-2v-6.098l-5 2.522-.001 7.64 6.004 3.36 5.996-3.326V25h2v8.687a1 1 0 0 1-.515.874l-6.483 3.598L33 43l6.477 3.745a1 1 0 0 1 .522.878v6.29zm0 2.308-12.288 7.079-.998-1.734 7.285-4.196v-6.848l-5.964-3.243-6.672 3.842-.998-1.733L31 43.262l.001-5.105-5.972-3.342-6.027 3.345-.001 4.494 5.241-3.02.998 1.735-6.239 3.593.001 5.538 5.976 3.705 6.007-3.461.998 1.733L26 56l-.001 7.254 5.395 3.269 7.566-4.538 1.029 1.715-6.662 3.995 5.236 3.174L44 68.36zM46 21v48c0 .39-.227.744-.581.908l-6.5 3a1 1 0 0 1-.938-.053L24.48 64.673a1 1 0 0 1-.481-.855L24 56l-6.525-4.094a1 1 0 0 1-.473-.85v-.611L17 50.385V38.243l.002-.061v-.611c0-.363.197-.698.515-.875l6.482-3.597.001-8.29a1 1 0 0 1 .55-.892l13.5-6.81a1 1 0 0 1 .869-.015l6.5 3c.354.164.581.518.581.909m26.91 28.9a1 1 0 0 0-.585-.534l-3.439-1.191a23.9 23.9 0 0 0-.016-6.458l3.436-1.207a1 1 0 0 0 .59-1.328L68.77 29.28a1 1 0 0 0-1.36-.514l-3.286 1.594a23.9 23.9 0 0 0-4.571-4.55l1.58-3.293a1 1 0 0 0-.521-1.358l-9.92-4.083a1.003 1.003 0 0 0-1.326.598l-1.469 4.24 1.891.655 1.122-3.24 7.962 3.277-1.482 3.089a1 1 0 0 0 .327 1.25 21.9 21.9 0 0 1 5.28 5.257.996.996 0 0 0 1.252.32l3.082-1.495 3.313 7.947-3.222 1.132a1 1 0 0 0-.653 1.115c.431 2.474.438 4.984.017 7.46a1 1 0 0 0 .659 1.112l3.225 1.117-3.276 7.96-3.081-1.477a1 1 0 0 0-1.251.326 21.9 21.9 0 0 1-5.262 5.282 1 1 0 0 0-.321 1.252l1.494 3.078-7.947 3.312-1.133-3.225-1.887.663 1.484 4.224a1 1 0 0 0 1.328.592l9.902-4.128a1 1 0 0 0 .514-1.36l-1.593-3.281a23.9 23.9 0 0 0 4.557-4.572l3.284 1.576a1 1 0 0 0 1.358-.52l4.083-9.92a1 1 0 0 0-.013-.792M56 45c0-4.456-2.99-8.413-7.272-9.624l.544-1.925C54.411 34.906 58 39.655 58 45c0 5.353-3.596 10.104-8.744 11.552l-.541-1.924C53.004 53.42 56 49.462 56 45"/></g></svg>