<svg xmlns="http://www.w3.org/2000/svg" width="90" height="90" viewBox="0 0 90 90"><title>Icon-Architecture-Category/64/Front-End-Web-Mobile_64</title><g fill="none" fill-rule="evenodd"><path fill="#dd344c" d="M5 5h80v80H5z"/><path stroke="#879196" stroke-width="2" d="M1 1h88v88H1z"/><path fill="#fff" d="M57 68h7v-2h-7zm-7 3h21.001v-8H50zm0-38v28h21.001L71 33zm23 0v38c0 1.103-.897 2-2 2H50c-1.103 0-2-.897-2-2V33c0-1.103.897-2 2-2h21c1.103 0 2 .897 2 2m-48-8h24v4h2v-5a1 1 0 0 0-1-1H24a1 1 0 0 0-1 1v38a1 1 0 0 0 1 1h22v-2H25zm-4.186 42H46v2H20.814C18.711 69 17 67.269 17 65.141V20.859C17 18.731 18.711 17 20.814 17h32.372C55.289 17 57 18.731 57 20.859V29h-2v-8.141C55 19.834 54.187 19 53.186 19H20.814C19.813 19 19 19.834 19 20.859v44.282c0 1.025.813 1.859 1.814 1.859"/></g></svg>