<svg xmlns="http://www.w3.org/2000/svg" width="90" height="90" viewBox="0 0 90 90"><title>Icon-Architecture-Category/64/Storage_64</title><g fill="none" fill-rule="evenodd"><path fill="#7aa116" d="M5 5h80v80H5z"/><path stroke="#879196" stroke-width="2" d="M1 1h88v88H1z"/><path fill="#fff" d="M36 55h18l.001 5H36zm0 7h18c1.103 0 2-.897 2-2v-5c0-1.103-.897-2-2-2H36c-1.103 0-2 .897-2 2v5c0 1.103.897 2 2 2m-2-22h21v-2H34zm0-13h8v-2h-8zm0 6h9v-2h-9zm35 36.034A1.97 1.97 0 0 1 67.034 71H22.966A1.97 1.97 0 0 1 21 69.034V48h48zM30 19h19v10a1 1 0 0 0 1 1h10v16H30zm21 1.414L58.586 28H51zM70 46h-8V29h-.009a1 1 0 0 0-.284-.707l-11-11A1 1 0 0 0 50 17.01V17H29a1 1 0 0 0-1 1v28h-8a1 1 0 0 0-1 1v22.034A3.97 3.97 0 0 0 22.966 73h44.068A3.97 3.97 0 0 0 71 69.034V47a1 1 0 0 0-1-1"/></g></svg>