<svg xmlns="http://www.w3.org/2000/svg" width="90" height="90" viewBox="0 0 90 90"><title>Icon-Architecture-Category/64/Satellite_64</title><g fill="none" fill-rule="evenodd"><path fill="#c925d1" d="M5 5h80v80H5z"/><path stroke="#879196" stroke-width="2" d="M1 1h88v88H1z"/><path fill="#fff" d="M61.706 47.985c-2.938 1.788-6.518 3.523-10.56 5.074-7.49 2.875-16.124 4.833-22.718 4.942 3.204 5.05 8.83 8.42 15.243 8.42 9.955 0 18.055-8.098 18.055-18.053 0-.13-.017-.255-.02-.383M25.09 55.877a19.9 19.9 0 0 1-1.473-7.51c0-.133.018-.263.02-.396-2.225 1.848-3.535 3.588-3.631 4.905-.041.562.143 1.02.583 1.443.822.79 2.382 1.318 4.5 1.558m.528-7.51c0 2.738.63 5.324 1.725 7.65 5.702.11 14.103-1.376 23.089-4.825 4.602-1.766 8.278-3.643 11.083-5.441-1.275-8.717-8.78-15.438-17.843-15.438-9.955 0-18.054 8.099-18.054 18.055m39.652-15.321c0-.827-.673-1.5-1.5-1.5-.828 0-1.501.673-1.501 1.5s.673 1.5 1.5 1.5c.828 0 1.5-.673 1.5-1.5m3.767 2.66c1.045 1.013 1.423 2.25 1.142 3.619-.466 2.263-2.825 4.854-6.534 7.402.043.542.083 1.086.083 1.64 0 11.058-8.997 20.054-20.055 20.054-7.584 0-14.196-4.233-17.604-10.46-3.051-.186-5.483-.874-6.864-2.201-.864-.831-1.276-1.88-1.192-3.031.205-2.792 3.25-5.583 5.876-7.491 1.509-9.573 9.793-16.926 19.784-16.926 9.737 0 17.868 6.978 19.674 16.194 2.967-2.173 4.579-4.156 4.872-5.584.143-.696-.025-1.25-.528-1.738a5.9 5.9 0 0 0-2.148-1.138c-.522.31-1.123.5-1.772.5-1.93 0-3.5-1.57-3.5-3.5s1.57-3.5 3.5-3.5a3.504 3.504 0 0 1 3.499 3.5c0 .499-.108.97-.296 1.4a8 8 0 0 1 2.063 1.26m-6.843-7.958a4.8 4.8 0 0 1 3.68.245 4.85 4.85 0 0 1 2.185 2.184l1.793-.886a6.87 6.87 0 0 0-3.091-3.091 6.77 6.77 0 0 0-5.207-.346 6.77 6.77 0 0 0-3.926 3.437l1.793.886a4.8 4.8 0 0 1 2.773-2.43m10.703-.072-1.791.89a8.27 8.27 0 0 0-3.707-3.707c-4.06-2.018-9.007-.356-11.027 3.707l-1.791-.89c2.509-5.051 8.658-7.118 13.709-4.608a10.3 10.3 0 0 1 4.607 4.608"/></g></svg>