<svg xmlns="http://www.w3.org/2000/svg" width="90" height="90" viewBox="0 0 90 90"><title>Icon-Architecture-Category/64/Internet-of-Things_64</title><g fill="none" fill-rule="evenodd"><path fill="#7aa116" d="M5 5h80v80H5z"/><path stroke="#879196" stroke-width="2" d="M1 1h88v88H1z"/><path fill="#fff" d="M64.571 51.048a6.436 6.436 0 0 1-6.429-6.429 6.435 6.435 0 0 1 6.429-6.428A6.435 6.435 0 0 1 71 44.619a6.436 6.436 0 0 1-6.429 6.429M52 64.676V46h4.265c.64 3.853 3.894 6.823 7.875 7.026A20.6 20.6 0 0 1 52 64.676m-6 1.189V33.792a8.44 8.44 0 0 0 7.373-7.427 20.76 20.76 0 0 1 10.217 9.888A8.43 8.43 0 0 0 56.174 44H51a1 1 0 0 0-1 1v20.292a20.7 20.7 0 0 1-4 .573m-6-.573V45.119c0-.544-.436-.988-.981-1l-5.192-.103a8.434 8.434 0 0 0-7.417-7.763 20.76 20.76 0 0 1 10.217-9.888A8.44 8.44 0 0 0 44 33.792v32.073a20.7 20.7 0 0 1-4-.573M25.859 53.026c3.977-.202 7.228-3.181 7.872-7.026H38v18.676a20.6 20.6 0 0 1-12.141-11.65M19 44.619a6.435 6.435 0 0 1 6.428-6.428 6.435 6.435 0 0 1 6.429 6.428 6.436 6.436 0 0 1-6.429 6.429A6.435 6.435 0 0 1 19 44.619M45 19a6.435 6.435 0 0 1 6.428 6.429A6.435 6.435 0 0 1 45 31.857a6.436 6.436 0 0 1-6.429-6.428A6.436 6.436 0 0 1 45 19m28 25.619c0-4.226-3.13-7.725-7.192-8.327-2.363-5.483-6.837-9.883-12.388-12.105l-.068.168C52.822 20.214 49.283 17 45 17s-7.823 3.214-8.353 7.355l-.067-.168c-5.552 2.222-10.026 6.622-12.389 12.105C20.13 36.894 17 40.393 17 44.619c0 4.041 2.86 7.425 6.662 8.24A22.61 22.61 0 0 0 38 66.802V73h2v-5.66c1.3.292 2.636.466 4 .525V73h2v-5.135c1.363-.059 2.7-.233 4-.525V73h2v-6.198a22.61 22.61 0 0 0 14.338-13.943C70.139 52.044 73 48.66 73 44.619"/></g></svg>