<svg xmlns="http://www.w3.org/2000/svg" width="90" height="90" fill="none" viewBox="0 0 90 90"><path fill="#e7157b" d="M5 5h80v80H5z"/><path stroke="#879196" stroke-width="2" d="M1 1h88v88H1z"/><path fill="#fff" d="M73 38.778c0 3.62-2.348 6.864-5.709 7.887l-.582-1.913c2.526-.77 4.291-3.226 4.291-5.974 0-3.385-2.543-6.114-5.79-6.212a1 1 0 0 1-.914-1.325c.138-.4.204-.77.204-1.13 0-1.838-1.426-3.333-3.179-3.333-.829 0-1.615.336-2.214.946a1 1 0 0 1-1.659-.373C56.136 23.552 52.654 21 48.786 21c-2.701 0-5.258 1.229-7.014 3.37l-1.546-1.268C42.363 20.496 45.483 19 48.786 19c4.277 0 8.16 2.54 10.035 6.44a5 5 0 0 1 2.5-.662c2.856 0 5.179 2.392 5.179 5.333q0 .29-.034.583c3.747.689 6.534 4.03 6.534 8.084m-15.73.132q.063-.428.063-.854c0-3.4-2.66-6.167-5.929-6.167-1.08 0-2.118.3-3.024.864C46.23 28.064 41.66 25 36.62 25c-7.195 0-13.049 6.114-13.049 13.63q0 .274.011.55C19.72 40.377 17 44.114 17 48.389 17 53.779 20.953 58 26 58v-2c-3.925 0-7-3.343-7-7.611 0-3.638 2.455-6.779 5.837-7.469a1 1 0 0 0 .795-1.079q-.06-.597-.06-1.212C25.571 32.217 30.526 27 36.618 27c4.638 0 8.812 3.094 10.386 7.699a1 1 0 0 0 1.664.372c.74-.762 1.71-1.182 2.735-1.182 2.166 0 3.929 1.869 3.929 4.167 0 .455-.082.916-.252 1.41a1.002 1.002 0 0 0 .916 1.324c3.927.12 7.003 3.458 7.003 7.599C63 52.657 59.925 56 56 56v2c5.047 0 9-4.222 9-9.611 0-4.799-3.309-8.745-7.73-9.48M54 50v15a1 1 0 0 1-.553.894l-12 6a1 1 0 0 1-.894 0l-12-6a1 1 0 0 1-.553-.894v-15a1 1 0 0 1 .553-.895l12-6c.281-.14.613-.14.894 0l12 6a1 1 0 0 1 .553.895m-22.842.04L41 55.416l9.842-5.377L41 45.12zM30 64.382l10 5V57.149l-10-5.462zm22 0V51.687l-10 5.462v12.234z"/></svg>