<svg xmlns="http://www.w3.org/2000/svg" width="90" height="90" viewBox="0 0 90 90"><title>Icon-Architecture-Category/64/Containers_64</title><g fill="none" fill-rule="evenodd"><path fill="#ed7100" d="M5 5h80v80H5z"/><path stroke="#879196" stroke-width="2" d="M1 1h88v88H1z"/><path fill="#fff" d="M21 65h48V46H21zm-2 5h52v-3H19zm52-24v19h1a1 1 0 0 1 1 1v5a1 1 0 0 1-1 1H18a1 1 0 0 1-1-1v-5a1 1 0 0 1 1-1h1V46h-1a1 1 0 0 1-1-1v-5c0-.522.404-.938.915-.983L38.47 26.152l1.06 1.696L21.712 39H54v2H19v3h52v-3H57v-2h11.288L50.47 27.848l1.06-1.696 20.555 12.865A.99.99 0 0 1 73 40v5a1 1 0 0 1-1 1zM45 28c2.206 0 4-1.794 4-4h-2c0 1.103-.897 2-2 2s-2-.897-2-2 .897-2 2-2a1 1 0 0 0 1-1v-5h-2v4.126A4.01 4.01 0 0 0 41 24c0 2.206 1.794 4 4 4M26 62h2V49h-2zm6 0h2V49h-2zm6 0h2V49.143h-2zm24 0h2V49.143h-2zm-6 0h2V49.143h-2zm-6 0h2V49.143h-2zm-6 0h2V49h-2z"/></g></svg>