<svg xmlns="http://www.w3.org/2000/svg" width="90" height="90" viewBox="0 0 90 90"><title>Icon-Architecture-Category/64/Games_64</title><g fill="none" fill-rule="evenodd"><path fill="#8c4fff" d="M5 5h80v80H5z"/><path stroke="#879196" stroke-width="2" d="M1 1h88v88H1z"/><path fill="#fff" d="M63.001 42c0 1.103-.897 2-2 2s-2-.897-2-2 .897-2 2-2 2 .897 2 2m-4.004-8.001c0-1.103.898-2 2-2 1.103 0 1.999.897 1.999 2a2 2 0 0 1-1.999 1.999c-1.102 0-2-.897-2-1.999M63 37.998c0-1.103.897-2 2-2s2 .897 2 2-.897 2-2 2-2-.897-2-2m-8.001.004c0-1.102.897-1.999 1.999-1.999a2 2 0 0 1 1.999 1.999 2 2 0 0 1-1.999 1.999 2 2 0 0 1-1.999-1.999m-27 .998h-4.001v-2h4.001v-4.001h2V37H34v2h-4.001v4.001h-2zm43 18.388C70.919 62.842 66.383 63 65.866 63c-4.344 0-8.165-8.614-10.738-14.545A11.9 11.9 0 0 0 60.999 50c4.172 0 7.849-2.142 10-5.381zM24.133 63c-.517 0-5.053-.158-5.133-5.6V44.619C21.151 47.858 24.828 50 29 50a11.9 11.9 0 0 0 5.871-1.545C32.298 54.386 28.478 63 24.133 63M29 28c5.514 0 10 4.486 10 10s-4.486 10-10 10-10-4.486-10-10 4.486-10 10-10m21.622 15.999H39.377A11.9 11.9 0 0 0 41 38c0-3.075-1.172-5.874-3.081-8H52.08a11.94 11.94 0 0 0-3.081 8c0 2.186.597 4.232 1.623 5.999M70.999 38c0 5.514-4.486 10-10 10s-10-4.486-10-10 4.486-10 10-10 10 4.486 10 10m1.975-.5C72.709 31.116 67.447 26 60.999 26c-2.446 0-4.72.739-6.619 2H35.619A11.93 11.93 0 0 0 29 26c-6.448 0-11.71 5.116-11.975 11.5H17v19.909C17.024 60.035 18.546 65 24.133 65c5.744 0 9.782-9.311 12.729-16.109.456-1.049.88-2.026 1.278-2.892h13.72c.397.866.821 1.843 1.277 2.892C56.084 55.689 60.122 65 65.866 65c5.587 0 7.109-4.965 7.133-7.6V37.5z"/></g></svg>