<svg xmlns="http://www.w3.org/2000/svg" width="90" height="90" viewBox="0 0 90 90"><title>Icon-Architecture-Category/64/Cloud-Financial-Management_64</title><g fill="none" fill-rule="evenodd"><path fill="#7aa116" d="M5 5h80v80H5z"/><path stroke="#879196" stroke-width="2" d="M1 1h88v88H1z"/><path fill="#fff" d="M41 68h7v-2h-7zm-12 0h7v-2h-7zm12-6h7v-2h-7zm-12 0h7v-2h-7zm12-8h7v-2h-7zm-12 0h7v-2h-7zm26 12h4V54h-4zm5-14h-6a1 1 0 0 0-1 1v14a1 1 0 0 0 1 1h6a1 1 0 0 0 1-1V53a1 1 0 0 0-1-1m-30-5h29v-7H30zm-1-9a1 1 0 0 0-1 1v9a1 1 0 0 0 1 1h31a1 1 0 0 0 1-1v-9a1 1 0 0 0-1-1zm37 33H24V32h11v2a1 1 0 0 0 1 1h18a1 1 0 0 0 1-1v-2h11zM35.88 19H48c2.458 0 5 1.496 5 4v10H37V23c0-1.441-.359-2.888-1.12-4m-6.38 6v-2.041C29.5 19.47 30.764 19 32 19c2.783 0 3 3.062 3 4v2zM67 30H55v-7c0-3.756-3.56-6-7-6H32c-2.053 0-4.5 1.034-4.5 5.959V26a1 1 0 0 0 1 1H35v3H23a1 1 0 0 0-1 1v41a1 1 0 0 0 1 1h44a1 1 0 0 0 1-1V31a1 1 0 0 0-1-1"/></g></svg>