<svg xmlns="http://www.w3.org/2000/svg" width="90" height="90" viewBox="0 0 90 90"><title>Icon-Architecture-Category/64/Migration-Transfer_64</title><g fill="none" fill-rule="evenodd"><path fill="#01a88d" d="M5 5h80v80H5z"/><path stroke="#879196" stroke-width="2" d="M1 1h88v88H1z"/><path fill="#fff" d="M56.067 59.184 44.358 44.088 32.65 59.184h7.356a1 1 0 0 1 1 1v10h7v-10a1 1 0 0 1 1-1zm2.831.387a1 1 0 0 1-.79 1.613h-8.103v10a1 1 0 0 1-1 1h-9a1 1 0 0 1-1-1v-10h-8.397a1 1 0 0 1-.79-1.613l13.75-17.727c.38-.489 1.201-.489 1.58 0zm14.107-15.518c0 6.345-3.869 11.131-9 11.131h-6v-2h6c3.991 0 7-3.926 7-9.131 0-2.87-1.12-7.685-8.63-7.685a.998.998 0 0 1-.97-1.243c.603-2.42.102-4.649-1.377-6.115-1.465-1.452-3.67-1.93-6.05-1.314a.997.997 0 0 1-1.22-.721C51.081 20.383 45.255 19 40.664 19c-.489.002-12.027.228-12.027 14.921a1 1 0 0 1-1 1c-2.763 0-4.907.778-6.373 2.314-2.41 2.525-2.26 6.336-2.26 6.374.001 5.39 3.793 9.575 8.633 9.575h3.368v2h-3.368c-5.962 0-10.632-5.063-10.632-11.526-.008-.139-.203-4.631 2.798-7.789 1.672-1.76 3.973-2.739 6.85-2.918C27.18 17.186 40.526 17 40.664 17c7.107 0 11.957 3.029 13.764 8.559 2.728-.445 5.235.273 7.008 2.031 1.735 1.719 2.486 4.157 2.137 6.819 5.932.414 9.432 3.953 9.432 9.644"/></g></svg>