<svg xmlns="http://www.w3.org/2000/svg" width="90" height="90" viewBox="0 0 90 90"><title>Icon-Architecture-Category/64/Media-Services_64</title><g fill="none" fill-rule="evenodd"><path fill="#ed7100" d="M5 5h80v80H5z"/><path stroke="#879196" stroke-width="2" d="M1 1h88v88H1z"/><path fill="#fff" d="m45.875 44.854-14.262 8.577a.38.38 0 0 1-.405.02.38.38 0 0 1-.208-.348V35.999c0-.206.131-.307.209-.349a.4.4 0 0 1 .177-.045c.074 0 .164.022.266.09l14.184 8.527c.153.102.176.25.176.329 0 .078-.023.226-.137.303m1.031-2.321-14.183-8.527a2.39 2.39 0 0 0-2.458-.119A2.39 2.39 0 0 0 29 35.999v17.104a2.39 2.39 0 0 0 1.265 2.111c.359.192.753.286 1.14.286.455 0 .903-.129 1.279-.38l14.261-8.577a2.39 2.39 0 0 0 1.067-1.992c0-.802-.399-1.548-1.106-2.018M71 56.605a.395.395 0 0 1-.395.395H67V33h3.605c.218 0 .395.176.395.394zM60.535 49H55v14.21c0 .987-.837 1.79-1.865 1.79h-32.27C19.837 65 19 64.197 19 63.21V26.789c0-.987.837-1.789 1.865-1.789h32.27c1.028 0 1.865.802 1.865 1.789V41h5.535L65 34.302v21.395zm10.07-18h-5.807l-5.333 8H57V26.789C57 24.7 55.266 23 53.135 23h-32.27C18.734 23 17 24.7 17 26.789V63.21c0 2.089 1.734 3.79 3.865 3.79h32.27C55.266 67 57 65.299 57 63.21V51h2.465l5.333 8h5.807A2.4 2.4 0 0 0 73 56.605V33.394A2.397 2.397 0 0 0 70.605 31"/></g></svg>