<svg xmlns="http://www.w3.org/2000/svg" width="90" height="90" viewBox="0 0 90 90"><title>Icon-Architecture-Category/64/Networking-Content-Delivery_64</title><g fill="none" fill-rule="evenodd"><path fill="#8c4fff" d="M5 5h80v80H5z"/><path stroke="#879196" stroke-width="2" d="M1 1h88v88H1z"/><path fill="#fff" d="M21 41.23c.002-.315.156-7.714 9.162-7.714a1 1 0 0 0 1-1c0-13.302 10.183-13.514 10.613-13.516 5.306 0 8.351 2.256 9.584 7.102.076.295.281.541.559.666s.599.115.869-.024c1.496-.773 2.829.066 3.492.633 1.532 1.31 2.742 3.954 1.968 6.274a.998.998 0 0 0 .948 1.317c6.737 0 9.805 3.39 9.805 6.541 0 4.581-2.645 7.428-6.901 7.428H28.71c-4.396 0-7.71-3.315-7.71-7.707m42.313 21.207c0 1.929-1.571 3.5-3.5 3.5s-3.5-1.571-3.5-3.5 1.57-3.5 3.5-3.5 3.5 1.57 3.5 3.5m-14.501 5c0 1.929-1.57 3.5-3.5 3.5a3.505 3.505 0 0 1-3.5-3.5c0-1.93 1.571-3.5 3.5-3.5s3.5 1.57 3.5 3.5m-17.999-1.5a3.505 3.505 0 0 1-3.501-3.5c0-1.93 1.571-3.5 3.501-3.5s3.5 1.57 3.5 3.5-1.571 3.5-3.5 3.5m31.286-15c5.407 0 8.901-3.701 8.901-9.428 0-3.898-3.316-8.078-10.566-8.506.35-2.794-1.053-5.605-2.854-7.146-1.427-1.221-3.049-1.67-4.591-1.308C51.34 19.538 47.572 17 41.775 17c-.123 0-12.079.169-12.595 14.542-10.061.553-10.18 9.59-10.18 9.685 0 5.535 4.175 9.71 9.71 9.71h12.482l-7.675 6.716a5.46 5.46 0 0 0-2.704-.716 5.507 5.507 0 0 0-5.501 5.5c0 3.032 2.468 5.5 5.501 5.5 3.032 0 5.5-2.468 5.5-5.5a5.47 5.47 0 0 0-1.248-3.483l9.247-8.017v11.095c-2.555.472-4.5 2.714-4.5 5.405 0 3.032 2.468 5.5 5.5 5.5s5.5-2.468 5.5-5.5c0-2.691-1.944-4.933-4.5-5.405V50.937l9.248 8.017a5.47 5.47 0 0 0-1.247 3.483c0 3.032 2.467 5.5 5.5 5.5s5.5-2.468 5.5-5.5-2.468-5.5-5.5-5.5c-.983 0-1.905.262-2.705.716l-7.675-6.716z"/></g></svg>