<svg xmlns="http://www.w3.org/2000/svg" width="90" height="90" viewBox="0 0 90 90"><title>Icon-Architecture-Category/64/Customer-Enablement_64</title><g fill="none" fill-rule="evenodd"><path fill="#c925d1" d="M5 5h80v80H5z"/><path stroke="#879196" stroke-width="2" d="M1 1h88v88H1z"/><path fill="#fff" d="m70 59.232-9.889 5.05c-.661-8.502-5.192-15.439-11.146-17.542 3.025-1.452 5.124-4.537 5.124-8.111 0-4.962-4.037-9-9-9s-9 4.038-9 9c0 3.6 2.129 6.704 5.189 8.142-5.971 2.143-10.41 9.069-11.003 17.709L20 59.232V31.013l25-12.767 25 12.767zM45.089 45.629c-3.86 0-7-3.14-7-7s3.14-7 7-7 7 3.141 7 7-3.141 7-7 7M45 72l-12.773-6.524c.353-9.811 5.96-17.412 12.97-17.412 6.893 0 12.533 7.625 12.959 17.217zm0-56L18 29.789v30.668l27 13.789 27-13.789V29.789z"/></g></svg>