<svg xmlns="http://www.w3.org/2000/svg" width="90" height="90" viewBox="0 0 90 90"><title>Icon-Architecture-Category/64/Management-Governance_64</title><g fill="none" fill-rule="evenodd"><path fill="#e7157b" d="M5 5h80v80H5z"/><path stroke="#879196" stroke-width="2" d="M1 1h88v88H1z"/><path fill="#fff" d="M45 53H24v-2h21v-3h2v3h5v2h-5v3h-2zM30 43h-6v-2h6v-3h2v3h20v2H32v3h-2zm14-20h14v-4H44zm25.211-4H60v-1a1 1 0 0 0-1-1H43a1 1 0 0 0-1 1v1h-9.211A3.794 3.794 0 0 0 29 22.79V30h2v-7.21c0-.987.803-1.79 1.789-1.79H42v3a1 1 0 0 0 1 1h16a1 1 0 0 0 1-1v-3h9.211c.986 0 1.789.803 1.789 1.79v46.42c0 .987-.803 1.79-1.789 1.79H34.789A1.79 1.79 0 0 1 33 69.21V66h-2v3.21C31 71.3 32.7 73 34.789 73h34.422C71.3 73 73 71.3 73 69.21V22.79C73 20.7 71.3 19 69.211 19M19 62h38V34H19zm40 1V33a1 1 0 0 0-1-1H18a1 1 0 0 0-1 1v30a1 1 0 0 0 1 1h40a1 1 0 0 0 1-1"/></g></svg>