<svg xmlns="http://www.w3.org/2000/svg" width="24" height="24" fill="none" viewBox="0 0 24 24"><path fill="#8c4fff" d="M0 0h24v24H0z"/><path fill="#fff" d="M18.5 20c-1.459 0-1.887-1.483-2.17-2.464a11 11 0 0 0-.163-.535h-1.333c-.055.157-.108.343-.163.535-.283.981-.711 2.464-2.17 2.464-.785 0-1.5-.715-1.5-1.5V15c0-1.1.896-1.998 1.995-2H13c.572 0 1.065.143 1.424.412.216.161.377.364.474.589h1.221a1.5 1.5 0 0 1 .387-.485c.485-.41 1.218-.597 1.915-.48.9.148 1.579.99 1.579 1.957V18.5c0 .785-.715 1.5-1.5 1.5m-3.999-4H16.5c.186 0 .358.105.444.271.141.273.242.62.347.988.294 1.02.553 1.741 1.209 1.741.233 0 .5-.266.5-.5v-3.507c0-.483-.32-.9-.741-.97-.492-.08-.905.086-1.106.256-.105.089-.153.177-.153.222a.5.5 0 0 1-.5.5h-1.999a.5.5 0 0 1-.5-.5c0-.1-.062-.203-.176-.288-.182-.137-.475-.212-.825-.212h-.002a1 1 0 0 0-.997 1v3.5c0 .233.267.5.5.5.656 0 .915-.722 1.209-1.742.105-.368.206-.715.347-.988a.5.5 0 0 1 .444-.27m-.142-8.452c.288-.346.7-.548 1.141-.548.827 0 1.5.673 1.5 1.5l-.016.138a.5.5 0 0 0 .334.513A2.5 2.5 0 0 1 18.95 12h1c.024-.165.051-.33.051-.5a3.5 3.5 0 0 0-2.005-3.152A2.5 2.5 0 0 0 15.5 6a2.46 2.46 0 0 0-1.389.428c.131.355.21.73.248 1.12M10 14.97c0-.341.07-.664.176-.97H7.5A2.503 2.503 0 0 1 5 11.5c0-.723.31-1.37.809-1.826a4.4 4.4 0 0 1-.277-1.06A3.46 3.46 0 0 0 4 11.5C4 13.43 5.57 15 7.5 15h2.501zM7.964 10a.96.96 0 0 1-.506-.144.96.96 0 0 1-.458-.82v-4.07c0-.338.17-.644.458-.822a.96.96 0 0 1 .938-.04l4.07 2.034A.96.96 0 0 1 13 7a.96.96 0 0 1-.533.863L8.396 9.898a.96.96 0 0 1-.432.103m.02-4.986L8 9.035l4.02-2.066z"/></svg>