<svg xmlns="http://www.w3.org/2000/svg" width="80" height="80" fill="none" viewBox="0 0 80 80"><g clip-path="url(#a)"><path fill="#e7157b" d="M0 0h80v80H0z"/><path fill="#fff" d="M59 43h-2c0-7.169-5.832-13-13-13-.675 0-1.346.058-2.008.162 0-.055.008-.107.008-.162 0-.812-.083-1.606-.238-2.373A7 7 0 0 0 44 28C47.859 28 51 24.86 51 21s-3.14-7-7.001-7c-3.623 0-6.611 2.768-6.964 6.3q-.872-.634-1.853-1.106C36.021 15.094 39.656 12 44 12 48.962 12 53 16.038 53 21c0 3.284-1.774 6.154-4.408 7.726C54.622 30.67 59 36.33 59 43M34.28 57H13a1 1 0 0 1-1-1c0-6.3 3.363-12.225 8.778-15.46a18 18 0 0 1 4.293-1.85C22.047 36.968 20 33.722 20 30c0-5.514 4.485-10 9.999-10S40 24.486 40 30c0 3.717-2.043 6.96-5.06 8.684a17.91 17.91 0 0 1 12.37 12.384l-1.189-1.19a2.98 2.98 0 0 0-1.711-.838A15.94 15.94 0 0 0 30 40c-2.893 0-5.727.78-8.196 2.256A16.1 16.1 0 0 0 14.032 55h22.382zM30 38C34.411 38 38 34.411 38 30s-3.589-8-8.001-8S22 25.589 22 30s3.588 8 7.999 8M67 45H57v2h7.699L52.976 59.561l-8.269-8.268a1 1 0 0 0-1.39-.023l-16 15 1.367 1.46 15.294-14.338 8.315 8.315c.191.192.427.277.725.293.27-.005.528-.12.713-.318L66 48.537V56h2V46a1 1 0 0 0-1-1"/></g><defs><clipPath id="a"><path fill="#fff" d="M0 0h80v80H0z"/></clipPath></defs></svg>