<svg xmlns="http://www.w3.org/2000/svg" width="80" height="80" fill="none" viewBox="0 0 80 80"><path fill="#e7157b" d="M0 0h80v80H0z"/><path fill="#fff" d="M66.564 48.404a4.93 4.93 0 0 1-4.924-4.924 1 1 0 1 0-2 0 4.93 4.93 0 0 1-4.924 4.924 1 1 0 1 0 0 2 4.93 4.93 0 0 1 4.924 4.924 1 1 0 1 0 2 0 4.93 4.93 0 0 1 4.924-4.924 1 1 0 1 0 0-2m-5.924 3.343a7 7 0 0 0-2.343-2.343 7 7 0 0 0 2.343-2.343 7 7 0 0 0 2.342 2.343 7 7 0 0 0-2.342 2.343m-5.477-17.032a1 1 0 0 0 1-1c0-4.03 3.277-7.308 7.307-7.308a1 1 0 1 0 0-2c-4.03 0-7.307-3.278-7.307-7.307a1 1 0 1 0-2 0c0 4.029-3.278 7.307-7.307 7.307a1 1 0 1 0 0 2c4.029 0 7.307 3.279 7.307 7.308a1 1 0 0 0 1 1m-4.112-9.308a9.38 9.38 0 0 0 4.112-4.113 9.37 9.37 0 0 0 4.112 4.113 9.37 9.37 0 0 0-4.112 4.113 9.38 9.38 0 0 0-4.112-4.113m-4.083 26.668c-.773-.721-1.144-1.095-1.144-1.713 0-6.021-.002-23.206-11.038-26.326-.09-1.979-1.716-3.565-3.718-3.565s-3.626 1.586-3.717 3.565c-11.037 3.12-11.038 20.305-11.038 26.326 0 .618-.372.992-1.144 1.713-1.153 1.075-2.732 2.548-2.732 5.925a1 1 0 0 0 1 1h12.139a5.54 5.54 0 0 0 5.492 4.9 5.54 5.54 0 0 0 5.493-4.9H48.7a1 1 0 0 0 1-1c0-3.376-1.58-4.85-2.733-5.925m-15.9 9.825a3.53 3.53 0 0 1-3.467-2.9h6.935a3.53 3.53 0 0 1-3.468 2.9M14.5 57c.245-1.795 1.151-2.641 2.033-3.463.834-.778 1.78-1.66 1.78-3.175 0-10.654 1.322-24.817 12.755-24.817s12.756 14.164 12.756 24.817c0 1.515.946 2.397 1.78 3.175.881.822 1.788 1.668 2.033 3.463z"/></svg>