<svg xmlns="http://www.w3.org/2000/svg" width="80" height="80" viewBox="0 0 80 80"><title>Icon-Architecture/64/Arch_Amazon-Managed-Workflows-for-Apache-Airflow_64</title><g fill="none" fill-rule="evenodd"><path fill="#e7157b" d="M0 0h80v80H0z"/><path fill="#fff" d="M61.084 60.084a4.92 4.92 0 0 1-4.915-4.916 4.92 4.92 0 0 1 4.915-4.916A4.92 4.92 0 0 1 66 55.168a4.92 4.92 0 0 1-4.916 4.916m0-11.832c-3.813 0-6.915 3.103-6.915 6.916s3.102 6.916 6.915 6.916A6.924 6.924 0 0 0 68 55.168a6.924 6.924 0 0 0-6.916-6.916m0-3.168a4.92 4.92 0 0 1-4.915-4.916 4.92 4.92 0 0 1 4.915-4.916A4.92 4.92 0 0 1 66 40.168a4.92 4.92 0 0 1-4.916 4.916m0-11.832c-3.813 0-6.915 3.103-6.915 6.916s3.102 6.916 6.915 6.916A6.924 6.924 0 0 0 68 40.168a6.924 6.924 0 0 0-6.916-6.916m0-3.336A4.92 4.92 0 0 1 56.169 25a4.92 4.92 0 0 1 4.915-4.916A4.92 4.92 0 0 1 66 25a4.92 4.92 0 0 1-4.916 4.916m0-11.832c-3.813 0-6.915 3.103-6.915 6.916s3.102 6.916 6.915 6.916A6.924 6.924 0 0 0 68 25a6.924 6.924 0 0 0-6.916-6.916m6.916-6v2H50v52h18v2H49a1 1 0 0 1-1-1v-26H32.105v-2H48v-26a1 1 0 0 1 1-1zM14 46.417V33.751l11.875 6.333zm14.471-7.215-15-8a1 1 0 0 0-1.471.882v16a1 1 0 0 0 1.471.882l15-8a1 1 0 0 0 0-1.764M14 26.084h12v-12H14zm-1 2h14a1 1 0 0 0 1-1v-14a1 1 0 0 0-1-1H13a1 1 0 0 0-1 1v14a1 1 0 0 0 1 1m7.258 38A6.266 6.266 0 0 1 14 59.826a6.265 6.265 0 0 1 6.258-6.258 6.266 6.266 0 0 1 6.259 6.258 6.266 6.266 0 0 1-6.259 6.258m0-14.516c-4.554 0-8.258 3.704-8.258 8.258s3.704 8.258 8.258 8.258 8.259-3.705 8.259-8.258c0-4.554-3.705-8.258-8.259-8.258"/></g></svg>