<svg xmlns="http://www.w3.org/2000/svg" width="80" height="80" viewBox="0 0 80 80"><title>Icon-Architecture/64/Arch_AWS-B2B-Data-Interchange_64</title><g fill="none" fill-rule="evenodd"><path fill="#e7157b" d="M0 0h80v80H0z"/><path fill="#fff" d="M26 55v12a1 1 0 0 1-1 1H13a1 1 0 0 1-1-1V55a1 1 0 0 1 1-1h3v2h-2v10h10V56h-2v-2h3a1 1 0 0 1 1 1m9.587-16.999h-7.589c-4.411 0-8 3.589-8 8V62h-2V46.001c0-5.514 4.486-10 10-10h7.589l-3.293-3.293 1.414-1.414 5 5a1 1 0 0 1 0 1.414l-5 5-1.414-1.414zm20.413 4v-10H46v10h2v2h-3a1 1 0 0 1-1-1v-12a1 1 0 0 1 1-1h12a1 1 0 0 1 1 1v12a1 1 0 0 1-1 1h-3v-2zM42.003 61.999h-7.59l3.293 3.293-1.414 1.414-5-5a1 1 0 0 1 0-1.414l5-5 1.414 1.414-3.293 3.293h7.59c4.411 0 8-3.589 8-8V36.001h2v15.998c0 5.514-4.486 10-10 10m16.998-46.585L64.586 21h-5.585zm8.707 5.879-9-9a1 1 0 0 0-.707-.293h-31a1 1 0 0 0-1 1v17h2V14h29v8a1 1 0 0 0 1 1h8v42.999H45.056v2h21.945a1 1 0 0 0 1-1V22a1 1 0 0 0-.293-.707"/></g></svg>