<svg xmlns="http://www.w3.org/2000/svg" width="24" height="24" fill="none" viewBox="0 0 24 24"><path fill="#ed7100" d="M0 0h24v24H0z"/><path fill="#fff" d="M10 12V8.211l-.647.643-.706-.708 1.51-1.5c.095-.095.254-.117.355-.146a.5.5 0 0 1 .352.147l1.49 1.5-.708.706-.646-.65V12zm4 8h1v-3h-1zm-4 0h1v-4h-1zm2 0h1v-1h-1zm.5-7h-4a.5.5 0 0 0-.5.5v4a.5.5 0 0 0 .5.5H9v-4h3v4h.5a.5.5 0 0 0 .5-.5v-4a.5.5 0 0 0-.5-.5m5-4.603a2.29 2.29 0 0 0-3.059-2.12A4.41 4.41 0 0 0 10.571 4a4.434 4.434 0 0 0-4.427 4.515A3.35 3.35 0 0 0 4 11.643c0 1.729 1.318 3.14 3 3.32v-1a2.354 2.354 0 0 1-2-2.32 2.35 2.35 0 0 1 1.79-2.285.5.5 0 0 0 .377-.542 3 3 0 0 1-.024-.387A3.433 3.433 0 0 1 10.57 5c1.402 0 2.649.84 3.177 2.14a.498.498 0 0 0 .744.225 1.287 1.287 0 0 1 1.979 1.333.5.5 0 0 0 .433.603A2.352 2.352 0 0 1 18 13.564v1.144a3.36 3.36 0 0 0 2-3.065 3.35 3.35 0 0 0-2.5-3.246M16.5 11h-4a.5.5 0 0 0-.5.5v.5h4v3h-2v1h2.5a.5.5 0 0 0 .5-.5v-4a.5.5 0 0 0-.5-.5"/></svg>