<svg xmlns="http://www.w3.org/2000/svg" width="24" height="24" viewBox="0 0 24 24"><title>Icon-Architecture/16/Arch_Amazon-EC2-Image-Builder_16</title><g fill="none" fill-rule="evenodd"><path fill="#ed7100" d="M0 0h24v24H0z"/><path fill="#fff" d="m9.931 9.646-2.294 2.283 2.294 2.28.71-.708-1.583-1.572 1.584-1.576zM5.005 19h6.028V5H5.005zM4 20h8.038V4H4zm2.812-8.09a4.92 4.92 0 0 1 3.376-4.666l-.32-.949a5.92 5.92 0 0 0-4.06 5.615 5.92 5.92 0 0 0 4.06 5.613l.32-.948a4.92 4.92 0 0 1-3.376-4.665m6.231 2.6v1c1.938 0 3.517-1.57 3.517-3.5s-1.579-3.5-3.517-3.5v1a2.51 2.51 0 0 1 2.512 2.5c0 1.379-1.126 2.5-2.512 2.5M20 11.007v2.284a.79.79 0 0 1-.789.785h-.816a6 6 0 0 1-.324.777l.579.576a.783.783 0 0 1 0 1.11l-1.623 1.615a.81.81 0 0 1-1.117-.001l-.577-.574a6 6 0 0 1-.78.322v.813a.79.79 0 0 1-.79.786h-1.147v-1h.931v-1.355l.374-.099a5 5 0 0 0 1.25-.516l.334-.194.963.959 1.317-1.311-.963-.959.195-.332c.23-.395.405-.813.518-1.244l.099-.373h1.361v-1.854h-1.361l-.099-.372a5 5 0 0 0-.518-1.245l-.195-.332.964-.959-1.318-1.311-.963.959-.334-.193a5 5 0 0 0-1.25-.517l-.374-.099V5.799h-.909v-1h1.124c.435 0 .79.352.79.785v.813q.4.134.78.323l.579-.575a.81.81 0 0 1 1.116.001l1.623 1.613a.786.786 0 0 1 0 1.111l-.58.575q.192.38.325.777h.816c.435 0 .789.352.789.785"/></g></svg>