<svg xmlns="http://www.w3.org/2000/svg" width="24" height="24" viewBox="0 0 24 24"><title>Icon-Architecture/16/Arch_AWS-Local-Zones_16</title><g fill="none" fill-rule="evenodd"><path fill="#ed7100" d="M0 0h24v24H0z"/><path fill="#fff" d="M11.999 10.439a.363.363 0 0 1-.365-.361c0-.198.164-.36.365-.36s.366.162.366.36c0 .2-.165.36-.366.36m0-1.743c-.773 0-1.402.62-1.402 1.382 0 .763.63 1.383 1.402 1.383.773 0 1.403-.62 1.403-1.383 0-.217-.056-.421-.147-.604l3.903-4.282-.773-.683-3.899 4.278A1.4 1.4 0 0 0 12 8.696m1.08-2.089a3.5 3.5 0 0 0-1.078-.174c-2.003 0-3.63 1.605-3.63 3.579 0 1.216.612 2.34 1.65 3.005l.56-.859a2.54 2.54 0 0 1-1.173-2.146c0-1.401 1.162-2.556 2.593-2.556.093 0 .196.01.29.02zm2.292 2.086c.166.419.26.869.26 1.319a3.55 3.55 0 0 1-1.65 2.995l-.57-.849a2.56 2.56 0 0 0 1.182-2.146c0-.144-.01-.287-.041-.43zm1.784-1.963c.601.971.892 2.096.839 3.282-.176 3.598-5.381 9.559-5.599 9.814a.54.54 0 0 1-.394.174.52.52 0 0 1-.394-.174c-.218-.255-5.424-6.216-5.6-9.814C5.85 6.75 8.34 4.164 11.794 4h.383c.985.04 1.876.266 2.676.665l-.726.797a5.4 5.4 0 0 0-1.98-.44h-.322C8.93 5.165 6.909 7.241 7.044 9.96c.135 2.71 3.744 7.27 4.957 8.731 1.213-1.462 4.821-6.021 4.956-8.73a4.8 4.8 0 0 0-.529-2.434z"/></g></svg>