<svg xmlns="http://www.w3.org/2000/svg" width="24" height="24" fill="none" viewBox="0 0 24 24"><g clip-path="url(#a)"><path fill="#fff" d="M0 0h24v24H0z"/><path fill="#ed7100" d="M0 0h24v24H0z"/><path fill="#fff" d="M20 6.5a2.5 2.5 0 0 0-5 0c0 .24.04.47.11.69L12 10.47 8.89 7.19c.06-.22.11-.45.11-.69a2.5 2.5 0 0 0-5 0c0 .81.4 1.53 1 1.99v7.79A2 2 0 0 0 4 18c0 1.1.9 2 2 2s2-.9 2-2c0-.51-.2-.97-.51-1.32l1.83-1.93 1.1 2.04c-.26.34-.42.75-.42 1.21 0 1.1.9 2 2 2s2-.9 2-2c0-.46-.16-.87-.42-1.21l1.1-2.04 1.83 1.93c-.31.35-.51.81-.51 1.32 0 1.1.9 2 2 2s2-.9 2-2a2 2 0 0 0-1-1.72V8.49c.6-.46 1-1.17 1-1.99M17.5 5c.83 0 1.5.67 1.5 1.5S18.33 8 17.5 8 16 7.33 16 6.5 16.67 5 17.5 5m-1.89 3.11c.3.35.68.61 1.13.75l-2.27 4.2-1.77-1.87 2.92-3.08zm-4.3 3.08-1.77 1.87-2.27-4.2c.44-.14.83-.41 1.13-.75l2.92 3.08zm-4.66 4.93c-.2-.07-.42-.12-.65-.12V8.95c.06.01.12.01.19.02l2.63 4.86zm6.14.04c-.24-.1-.51-.16-.79-.16s-.54.06-.79.16l-1.17-2.17L12 11.92l1.96 2.07zM18 19c-.55 0-1-.45-1-1s.45-1 1-1 1 .45 1 1-.45 1-1 1m0-3c-.23 0-.44.05-.65.12l-2.17-2.29 2.63-4.86c.06 0 .13 0 .19-.02z"/></g><defs><clipPath id="a"><path fill="#fff" d="M0 0h24v24H0z"/></clipPath></defs></svg>