<svg xmlns="http://www.w3.org/2000/svg" width="24" height="24" viewBox="0 0 24 24"><title>Icon-Architecture/16/Arch_AWS-Wavelength_16</title><g fill="none" fill-rule="evenodd"><path fill="#ed7100" d="M0 0h24v24H0z"/><path fill="#fff" d="M12 16.913a6 6 0 0 1-.808-.06l.808-3.61.808 3.61a6 6 0 0 1-.808.06m.053-9.432c1.883.043 3.414 1.6 3.414 3.47a3.49 3.49 0 0 1-2.232 3.233l-.747-3.338a.5.5 0 0 0-.976 0l-.751 3.357a3.45 3.45 0 0 1-2.294-3.252c0-1.87 1.529-3.427 3.465-3.474zm5.564 1.372c.254.67.383 1.376.383 2.1 0 2.67-1.775 4.934-4.215 5.69l-.333-1.49c1.77-.614 3.015-2.3 3.015-4.202 0-2.406-1.97-4.407-4.334-4.458a1 1 0 0 0-.168-.01l-.111.005c-2.419.056-4.387 2.057-4.387 4.463a4.44 4.44 0 0 0 3.076 4.225l-.328 1.468C7.775 15.887 6 13.622 6 10.954c0-3.288 2.691-5.96 6-5.96 1.181 0 2.304.338 3.268.964h-.408v.993h2.32V4.646h-1v.739A6.97 6.97 0 0 0 12 4c-3.859 0-7 3.119-7 6.953 0 3.143 2.111 5.802 4.998 6.66l-.486 2.172.976.215.488-2.176c.335.048.675.082 1.024.082s.689-.034 1.024-.082L13.512 20l.976-.215-.486-2.172c2.887-.858 4.998-3.517 4.998-6.66 0-.844-.15-1.669-.447-2.45z"/></g></svg>