<svg xmlns="http://www.w3.org/2000/svg" width="24" height="24" viewBox="0 0 24 24"><title>Icon-Architecture/16/Arch_AWS-Serverless-Application-Repository_16</title><g fill="none" fill-rule="evenodd"><path fill="#ed7100" d="M0 0h24v24H0z"/><path fill="#fff" d="M16.989 16.036H8.292c-.988 0-2.082-.955-2.285-1.929h7.526a1.362 1.362 0 0 0 .535 1.255 1.4 1.4 0 0 0 1.221.231 1.36 1.36 0 0 0 .992-1.486h2.728c-.176 1.571-1.49 1.929-2.02 1.929M7.53 11.812a.483.483 0 0 0 .365-.526 3 3 0 0 1-.022-.369c0-1.099.794-2.283 1.807-2.696q.344-.139.662-.2v2.184c0 .197.12.374.306.447a.49.49 0 0 0 .532-.115.423.423 0 0 1 .624.03c.047.06.118.185.073.366a.412.412 0 0 1-.696.17.49.49 0 0 0-.533-.115.48.48 0 0 0-.306.447v1.708H6.043c.236-.885 1-1.211 1.487-1.33m3.784-3.83c.906.111 1.547.617 1.847.907.363.349.662.82.864 1.364a.487.487 0 0 0 .842.125c.197-.255.487-.403.798-.403.463 0 1.026.355 1.086 1.352a.484.484 0 0 0 .388.445c.996.198 1.602.658 1.81 1.37h-3.422a.49.49 0 0 0-.45.304.48.48 0 0 0 .115.528.41.41 0 0 1 .106.438.39.39 0 0 1-.265.25.43.43 0 0 1-.374-.066.406.406 0 0 1-.035-.622.48.48 0 0 0 .116-.528.49.49 0 0 0-.45-.303h-2.976v-.957c.204.023.42.002.629-.068a1.37 1.37 0 0 0 .625-2.145 1.39 1.39 0 0 0-1.254-.518zm6.366 2.927c-.221-1.301-1.165-1.898-2.015-1.898-.361 0-.708.098-1.01.28a4.3 4.3 0 0 0-.818-1.095C12.602 7.003 10.91 6.68 9.312 7.33c-1.374.56-2.41 2.101-2.41 3.588v.078C5.704 11.435 5 12.43 5 13.725c0 .07.003.134.007.2C5.097 15.507 6.692 17 8.292 17h8.697C18.153 17 20 16.117 20 13.748c0-1.433-.82-2.431-2.32-2.84"/></g></svg>