<svg xmlns="http://www.w3.org/2000/svg" width="24" height="24" viewBox="0 0 24 24"><title>Icon-Architecture/16/Arch_Amazon-EC2-Auto-Scaling_16</title><g fill="none" fill-rule="evenodd"><path fill="#ed7100" d="M0 0h24v24H0z"/><path fill="#fff" d="M12 6.925v1.803h1V6.925l.646.65.708-.711L12.5 5l-1.854 1.864.708.71zm8 4.82h-2.293l.647-.65-.708-.711-1.853 1.865 1.853 1.863.708-.71-.647-.65H20zm-13.354-.65.647.65H5v1.006h2.293l-.647.65.708.711 1.853-1.863-1.853-1.865zM11 13.757h3V10.74h-3zm-1 1.006h5V9.734h-5zm3.646 2.661.708.711L12.5 20l-1.854-1.865.708-.71.646.65v-2.306h1v2.306z"/></g></svg>