<svg xmlns="http://www.w3.org/2000/svg" width="24" height="24" viewBox="0 0 24 24"><title>Icon-Architecture/16/Arch_AWS-Outposts-rack_16</title><g fill="none" fill-rule="evenodd"><path fill="#ed7100" d="M0 0h24v24H0z"/><path fill="#fff" d="m16.03 8.887-4.734-.067-.065 10.11 4.733.068c.036 0 .065-.03.065-.067zm.97 0v10.044C17 19.52 16.535 20 15.964 20h-4.668c-.572 0-1.036-.48-1.036-1.07V8.888c0-.59.464-1.07 1.036-1.07h4.668c.57 0 1.036.48 1.036 1.07m-4.858 2.083h2.888V9.968h-2.888zm0 1.997h2.888v-1.003h-2.888zm-2.133-7.2c-.505.597-.663 1.37-.596 1.871a.5.5 0 0 1-.397.562c-.197.04-1.195.317-1.026 1.774.013.106.163 1.064 1.028 1.064h.691v1.003h-.691c-1.395 0-1.913-1.273-1.991-1.947-.19-1.634.681-2.445 1.4-2.752a3.7 3.7 0 0 1 .85-2.233A3.06 3.06 0 0 1 11.69 4c1.57 0 2.454.897 2.875 1.72a1.67 1.67 0 0 1 1.106-.2c.998.202 1.237 1.222 1.225 1.735l-.97-.028c0-.06-.008-.635-.442-.722-.003 0-.494-.048-.672.338a.48.48 0 0 1-.501.28.49.49 0 0 1-.414-.404c-.034-.172-.387-1.717-2.206-1.717h-.001c-.855 0-1.385.416-1.68.765"/></g></svg>