<svg xmlns="http://www.w3.org/2000/svg" width="24" height="24" viewBox="0 0 24 24"><title>Icon-Architecture/16/Arch_AWS-Elastic-Beanstalk_16</title><g fill="none" fill-rule="evenodd"><path fill="#ed7100" d="M0 0h24v24H0z"/><path fill="#fff" d="M14.999 13.643a.494.494 0 0 0-.5-.487c-.275 0-.5.218-.5.487s.225.487.5.487.5-.218.5-.487M11 9.747c0 .269.225.487.5.487s.5-.218.5-.487a.494.494 0 0 0-.5-.487c-.275 0-.5.218-.5.487m-2.998 2.922c0 .269.225.487.5.487s.5-.218.5-.487a.494.494 0 0 0-.5-.487c-.275 0-.5.218-.5.487m7.996.974c0 .634-.419 1.17-1 1.371v1.55a.494.494 0 0 1-.5.488H12V19h-1v-2.922H8.502a.494.494 0 0 1-.5-.487v-1.55c-.58-.202-1-.738-1-1.372 0-.806.673-1.461 1.5-1.461.826 0 1.499.655 1.499 1.46 0 .635-.419 1.17-1 1.372v1.064h2v-3.986c-.581-.201-1-.737-1-1.371 0-.806.673-1.461 1.5-1.461.826 0 1.499.655 1.499 1.46 0 .635-.42 1.17-1 1.372v4.96h1.999v-1.064c-.58-.201-1-.737-1-1.371 0-.806.673-1.461 1.5-1.461.826 0 1.499.655 1.499 1.46M20 12.06c0 1.746-1.103 2.88-2.95 3.03l-.083-.97c.927-.076 2.033-.495 2.033-2.06 0-1.122-.685-1.825-2.036-2.09a.49.49 0 0 1-.401-.448c-.064-1.063-.675-1.439-1.179-1.439-.337 0-.653.157-.867.432a.51.51 0 0 1-.472.187.5.5 0 0 1-.395-.314 3.8 3.8 0 0 0-.931-1.44c-.491-.465-1.84-1.462-3.741-.702-1.09.433-1.944 1.683-1.944 2.848q0 .194.024.385a.49.49 0 0 1-.375.533C6.054 10.16 5 10.627 5 12.038l.004.127c.058 1.02.928 1.847 2.024 1.953l-.097.97c-1.584-.153-2.84-1.374-2.923-2.841L4 12.037c0-1.354.753-2.395 2.036-2.852l-.001-.092c0-1.558 1.102-3.17 2.565-3.75 1.699-.677 3.499-.34 4.813.903q.526.496.885 1.164a2.1 2.1 0 0 1 1.086-.302c.902 0 1.906.625 2.135 1.989C19.122 9.521 20 10.562 20 12.059"/></g></svg>