<svg xmlns="http://www.w3.org/2000/svg" width="24" height="24" viewBox="0 0 24 24"><title>Icon-Architecture/16/Arch_AWS-App-Runner_16</title><g fill="none" fill-rule="evenodd"><path fill="#ed7100" d="M0 0h24v24H0z"/><path fill="#fff" d="M14 10h2V8h-2zm5.5-6H16v1h2.293l-2 2H13.5a.5.5 0 0 0-.5.5v3a.5.5 0 0 0 .5.5h3a.5.5 0 0 0 .5-.5V7.707l2-2V8h1V4.5a.5.5 0 0 0-.5-.5M14 16h2v-2h-2zm2.5-3h-3a.5.5 0 0 0-.5.5v3a.5.5 0 0 0 .5.5h3a.5.5 0 0 0 .5-.5v-3a.5.5 0 0 0-.5-.5M8 10h2V8H8zm2.5-3h-3a.5.5 0 0 0-.5.5v3a.5.5 0 0 0 .5.5h3a.5.5 0 0 0 .5-.5v-3a.5.5 0 0 0-.5-.5M8 16h2v-2H8zm2.5-3h-3a.5.5 0 0 0-.5.5v2.793l-2 2V16H4v3.5a.5.5 0 0 0 .5.5H8v-1H5.707l2-2H10.5a.5.5 0 0 0 .5-.5v-3a.5.5 0 0 0-.5-.5"/></g></svg>