<svg xmlns="http://www.w3.org/2000/svg" width="24" height="24" viewBox="0 0 24 24"><title>Icon-Architecture/16/Arch_Amazon-Elastic-Container-Registry_16</title><g fill="none" fill-rule="evenodd"><path fill="#ed7100" d="M0 0h24v24H0z"/><path fill="#fff" d="M11.2 11.534a.65.65 0 0 0-.322.56v6.66L6 16.03V9.37l5.789-3.337 4.823 2.379zm6.798-3.145a.67.67 0 0 0-.357-.582L11.955 5l-.4.014-6.234 3.595A.65.65 0 0 0 5 9.168v7.069c0 .23.125.446.33.564l5.573 3.112a.65.65 0 0 0 .65.001c.2-.116.325-.33.325-.561v-7.057l5.79-3.339a.66.66 0 0 0 .33-.568m.002 7.39L14 18.67v-2.144l1.958-1.386.033-.208c.006-.039.01-.039.01-.217v-2.435l2-1.095zm.625-5.63a.77.77 0 0 0-.764-.02L15.47 11.43a.88.88 0 0 0-.47.777l.003 2.385-1.705 1.206a.66.66 0 0 0-.3.547v3.004c0 .232.126.448.328.564a.6.6 0 0 0 .31.083.75.75 0 0 0 .383-.112l4.654-3.364a.65.65 0 0 0 .327-.564v-5.144a.77.77 0 0 0-.375-.663"/></g></svg>