<svg xmlns="http://www.w3.org/2000/svg" width="24" height="24" viewBox="0 0 24 24"><title>Icon-Architecture/16/Arch_Amazon-EKS-Anywhere_16</title><g fill="none" fill-rule="evenodd"><path fill="#ed7100" d="M0 0h24v24H0z"/><path fill="#fff" d="M12.992 17.03h2v-2h-2zm3 0h2v-2h-2zm-3-3h2v-2h-2zm3 0h2v-2h-2zm-4 5h7v-8h-7zM5 8.34 9.958 5.38V7.58L7.232 9.307A.5.5 0 0 0 7 9.729v4.597c0 .19.107.364.278.448l3.714 1.84v2.11L5 15.744zm10.743.982-2.791-1.73V5.395l4.975 2.946v1.69h-1.948v-.284a.5.5 0 0 0-.236-.425m3.749.71h-.565V8.055a.5.5 0 0 0-.245-.43l-5.975-3.54a.502.502 0 0 0-.755.432V7.87c0 .173.09.334.236.424l2.791 1.729v.007h-3.487a.5.5 0 0 0-.5.5v4.967L8 14.016v-4.012l2.726-1.727a.5.5 0 0 0 .232-.422V4.5a.501.501 0 0 0-.756-.43L4.244 7.627A.5.5 0 0 0 4 8.055v8a.5.5 0 0 0 .277.448L11.315 20l.003-.005c.055.02.113.035.174.035h8a.5.5 0 0 0 .5-.5v-9c0-.277-.223-.5-.5-.5"/></g></svg>