<svg xmlns="http://www.w3.org/2000/svg" width="40" height="40" fill="none" viewBox="0 0 40 40"><path fill="#8c4fff" d="M0 0h40v40H0z"/><path fill="#fff" d="M21 26h-1v-1h1v-1h1v1h1v1h-1v1h-1zm12.406 7.407c-.38.394-.9.593-1.546.593-1.647 0-2.778-2.701-3.686-4.872-.178-.425-.34-.814-.486-1.128h-3.375c-.147.314-.31.703-.487 1.128C22.918 31.298 21.787 34 20.14 34c-.646 0-1.165-.2-1.546-.593-.609-.63-.597-1.5-.594-1.597V25.5c0-1.93 1.57-3.5 3.5-3.5.95 0 1.81.384 2.442 1h4.116c.632-.616 1.492-1 2.442-1 1.93 0 3.5 1.57 3.5 3.5v6.328c.003.08.015.95-.594 1.58M28 25.5c0 1.379 1.121 2.5 2.5 2.5S33 26.88 33 25.5c0-1.378-1.121-2.5-2.5-2.5a2.503 2.503 0 0 0-2.5 2.5m-1 0c0-.538.133-1.043.351-1.5H24.65c.218.457.351.962.351 1.5a3.46 3.46 0 0 1-.351 1.5h2.702A3.46 3.46 0 0 1 27 25.5m-8 0c0 1.379 1.121 2.5 2.5 2.5S24 26.88 24 25.5c0-1.378-1.121-2.5-2.5-2.5a2.503 2.503 0 0 0-2.5 2.5m3.903 3.242.022-.052c-.436.196-.916.31-1.425.31-.98 0-1.864-.407-2.5-1.058v3.886c0 .019-.007.558.317.889.187.19.456.283.823.283.981 0 2.14-2.77 2.763-4.258M33 31.842v-3.9A3.49 3.49 0 0 1 30.5 29c-.509 0-.989-.114-1.425-.31l.022.052C29.72 30.23 30.879 33 31.86 33c.367 0 .636-.092.823-.283.324-.331.317-.87.317-.876m-2.5-5.592a.75.75 0 1 0 0-1.5.75.75 0 0 0 0 1.5M7 20.5c0-1.852 1.129-3.432 2.764-4.11a8 8 0 0 1-.378-.943A5.45 5.45 0 0 0 6 20.5c0 3.033 2.468 5.5 5.5 5.5H17v-1h-5.5A4.505 4.505 0 0 1 7 20.5M25.5 12c.573 0 1.094.201 1.516.526q.382-.34.82-.614A3.47 3.47 0 0 0 25.5 11c-.252 0-.497.041-.739.095.079.32.142.644.18.977.183-.042.369-.072.559-.072m2.5 2.5c0 .276-.052.554-.16.848a.5.5 0 0 0 .49.67l.174-.018A4.505 4.505 0 0 1 33 20.5c0 .406-.071.792-.173 1.167.31.188.602.399.857.654.2-.571.316-1.182.316-1.82a5.507 5.507 0 0 0-5.043-5.482q.042-.262.043-.519c0-.66-.194-1.27-.513-1.797a5 5 0 0 0-.811.59c.2.36.324.768.324 1.207M17 20c-3.86 0-7-3.14-7-7s3.14-7 7-7 7 3.14 7 7-3.14 7-7 7m6-7c0-3.308-2.691-6-6-6s-6 2.692-6 6c0 3.309 2.691 6 6 6s6-2.691 6-6m-2 0a.5.5 0 0 1-.276.448l-6 3A.5.5 0 0 1 14 16v-6a.5.5 0 0 1 .724-.447l6 3A.5.5 0 0 1 21 13m-1.618 0L15 10.81v4.381z"/></svg>