<svg xmlns="http://www.w3.org/2000/svg" width="40" height="40" fill="none" viewBox="0 0 40 40"><g clip-path="url(#a)"><path fill="#8c4fff" d="M0 0h40v40H0z"/><path fill="#fff" d="M20 27v-1h2v1zm4 0h2v-1h-2zm4 0h2.5a.5.5 0 0 0 .5-.5V24h-1v2h-2zm2-5h1v-3h-1zm1-7.5a.5.5 0 0 0-.5-.5H28v1h2v2h1zm-5-.5h-1.969v1H26zm-6 0v1h2v-1zm12.5-6H17v1h15.5a.5.5 0 0 1 .5.5V11H17v1h16v19H17v1h16.5a.5.5 0 0 0 .5-.5v-22c0-.827-.673-1.5-1.5-1.5M6 13.5v-7a.5.5 0 0 1 .5-.5h8a.5.5 0 0 1 .5.5v7a.5.5 0 0 1-.5.5h-8a.5.5 0 0 1-.5-.5m1-.5h7V7H7zm10 10.5a.5.5 0 0 1-.5.5h-8a.5.5 0 0 1-.5-.5v-7a.5.5 0 0 1 .5-.5h8a.5.5 0 0 1 .5.5V20h7.293l-1.146-1.146.707-.707 2 2a.5.5 0 0 1 .108.544c-.026.062-.076.104-.122.149l.014.014-2 2-.707-.707L24.293 21H17zM16 17H9v6h7zm-1 9.5v7a.5.5 0 0 1-.5.5h-8a.5.5 0 0 1-.5-.5v-7a.5.5 0 0 1 .5-.5h8a.5.5 0 0 1 .5.5m-1 .5H7v6h7z"/></g><defs><clipPath id="a"><path fill="#fff" d="M0 0h40v40H0z"/></clipPath></defs></svg>