<svg xmlns="http://www.w3.org/2000/svg" width="40" height="40" fill="none" viewBox="0 0 40 40"><g clip-path="url(#a)"><path fill="#8c4fff" d="M0 0h40v40H0z"/><path fill="#fff" d="M33.948 19.723c0 2.515-1.379 3.807-2.535 4.447l-.484-.875c1.34-.742 2.02-1.944 2.02-3.572 0-3.329-3.08-4.102-4.023-4.26a.5.5 0 0 1-.413-.566c.003-1.421-.613-2.455-1.685-2.816a2.45 2.45 0 0 0-2.703.836.5.5 0 0 1-.868-.131c-.41-1.128-1.003-2.075-1.764-2.817-.935-.913-3.508-2.876-7.136-1.382-2.09.862-3.73 3.34-3.73 5.641l.05.795a.5.5 0 0 1-.377.516c-1.24.309-3.317 1.257-3.317 4.144 0 1.221.39 2.266 1.16 3.105.306.335.665.629 1.065.872l-.521.854a6 6 0 0 1-1.282-1.05c-.943-1.03-1.422-2.302-1.422-3.781 0-3.338 2.319-4.567 3.672-5l-.026-.424c-.001-2.752 1.868-5.575 4.348-6.597 2.897-1.193 5.97-.6 8.215 1.591a8.1 8.1 0 0 1 1.708 2.468 3.42 3.42 0 0 1 3.248-.588c1.386.467 2.25 1.735 2.357 3.427 1.434.328 4.443 1.46 4.443 5.163m-5.981.764v3.5h-1v-3h-7.278c-.347.595-.985 1-1.722 1a2 2 0 0 1-1.722-1h-4.278v-1h4c0-.737.405-1.375 1-1.721v-3.779a.5.5 0 0 1 .5-.5h6a.5.5 0 0 1 .5.5v4.5h-1v-4h-5v3c1.102 0 2 .897 2 2h7.5a.5.5 0 0 1 .5.5m-9-.5a1 1 0 0 0-2 0 1 1 0 0 0 2 0m6 6h3v1h-3.278c-.175.3-.423.547-.722.722v3.778a.5.5 0 0 1-.5.5h-6a.5.5 0 0 1-.5-.5v-3.5h1v3h5v-3a2 2 0 0 1-1.722-1h-8.778a.5.5 0 0 1-.5-.5v-3.5h1v3h8c0-1.103.897-2 2-2s2 .897 2 2m-2 1a1 1 0 0 0 0-2 1 1 0 0 0 0 2"/></g><defs><clipPath id="a"><path fill="#fff" d="M0 0h40v40H0z"/></clipPath></defs></svg>