<svg xmlns="http://www.w3.org/2000/svg" width="24" height="24" viewBox="0 0 24 24"><title>Icon-Architecture/16/Arch_AWS-Amplify_16</title><g fill="none" fill-rule="evenodd"><path fill="#dd344c" d="M0 0h24v24H0z"/><path fill="#fff" d="m16.103 17.936-4.392-8.932 1-1.504 5.137 10.436zm-2.88-11.658A.5.5 0 0 0 12.807 6a.53.53 0 0 0-.449.223L10.72 8.691a.5.5 0 0 0-.03.497l4.654 9.469a.5.5 0 0 0 .448.279h2.861a.5.5 0 0 0 .448-.721zM6.381 17.936l3.535-5.913.653 1.366L9.01 15.99a.5.5 0 0 0 .43.757h2.691l.575 1.189zm6.515-1.907a.5.5 0 0 0-.45-.282h-2.124l1.243-2.075a.5.5 0 0 0 .022-.473l-1.17-2.448a.5.5 0 0 0-.429-.283.48.48 0 0 0-.452.243L5.071 18.18a.498.498 0 0 0 .428.756h8.002a.5.5 0 0 0 .451-.717z"/></g></svg>