<svg xmlns="http://www.w3.org/2000/svg" width="80" height="80" fill="none" viewBox="0 0 80 80"><g clip-path="url(#a)"><path fill="#fff" d="M0 0h80v80H0z"/><path fill="#ed7100" d="M0 0h80v80H0z"/><path fill="#fff" d="M23 28c-1.65 0-3-1.35-3-3s1.35-3 3-3 3 1.35 3 3-1.35 3-3 3m-3 25c-1.65 0-3 1.35-3 3s1.35 3 3 3 3-1.35 3-3-1.35-3-3-3m17 3c0 1.65 1.35 3 3 3s3-1.35 3-3-1.35-3-3-3-3 1.35-3 3m31 0c0 4.41-3.59 8-8 8s-8-3.59-8-8c0-2.27.95-4.31 2.47-5.77l-7.43-4.61-2.89 3.56c2.3 1.41 3.85 3.94 3.85 6.83 0 4.41-3.59 8-8 8s-8-3.59-8-8c0-2.89 1.55-5.42 3.85-6.83l-2.89-3.56-7.43 4.61A7.97 7.97 0 0 1 28 56c0 4.41-3.59 8-8 8s-8-3.59-8-8c0-3.77 2.62-6.92 6.13-7.77l2.72-14.5C16.93 32.76 14 29.22 14 25c0-4.96 4.04-9 9-9s9 4.04 9 9c0 2.78-1.26 5.26-3.25 6.91L40 38.89l11.25-6.98A9 9 0 0 1 48 25c0-4.96 4.04-9 9-9s9 4.04 9 9c0 4.22-2.92 7.76-6.85 8.73l2.72 14.5c3.51.85 6.13 4 6.13 7.77M57 32c3.86 0 7-3.14 7-7s-3.14-7-7-7-7 3.14-7 7 3.14 7 7 7m-15.1 8.07 4.7 2.92 7.65-9.42c-.39-.13-.77-.28-1.14-.46l-11.22 6.96zm.36 8.26 3.07-3.78L40 41.24l-5.33 3.31 3.07 3.78A8 8 0 0 1 40 48c.79 0 1.54.12 2.26.33M26.89 33.11c-.37.18-.74.34-1.14.46l7.65 9.42 4.7-2.92-11.22-6.96zM23 32c3.86 0 7-3.14 7-7s-3.14-7-7-7-7 3.14-7 7 3.14 7 7 7m-3 18c-3.31 0-6 2.69-6 6s2.69 6 6 6 6-2.69 6-6-2.69-6-6-6m11.69-5.95L23.5 33.97c-.17 0-.33.03-.5.03h-.17L20.2 48.02c1.29.03 2.51.37 3.58.95l7.9-4.91zM40 50c-3.31 0-6 2.69-6 6s2.69 6 6 6 6-2.69 6-6-2.69-6-6-6m16.21-1.04c1.07-.58 2.29-.91 3.58-.95l-2.63-14.02h-.17c-.17 0-.34-.02-.5-.03L48.3 44.04l7.9 4.91zM66 56c0-3.31-2.69-6-6-6s-6 2.69-6 6 2.69 6 6 6 6-2.69 6-6"/></g><defs><clipPath id="a"><path fill="#fff" d="M0 0h80v80H0z"/></clipPath></defs></svg>