<svg xmlns="http://www.w3.org/2000/svg" width="80" height="80" viewBox="0 0 80 80"><title>Icon-Architecture/64/Arch_AWS-Compute-Optimizer_64</title><g fill="none" fill-rule="evenodd"><path fill="#ed7100" d="M0 0h80v80H0z"/><path fill="#fff" d="M44 47.915v-2.026c3.942-.645 7-3.99 7-7.89 0-3.898-3.058-7.242-7-7.887v-2.026c5.043.666 9 4.93 9 9.914 0 4.985-3.957 9.249-9 9.915M32.051 65.857l-3.289-2.023 4.879-4.065-1.282-1.537-5.394 4.496L20 58.442v-7.907l5.555-3.703-1.11-1.664-5.516 3.678L14 46.382v-5.835l5.541-3.562-1.082-1.683-4.458 2.866v-4.55l5.032-2.516L25 33.66v4.86l-4.625 3.7 1.25 1.56 4.301-3.44L28 42.415V45h2v-3a1 1 0 0 0-.293-.707L27 38.586v-4.967l5.447-2.724A1 1 0 0 0 33 30v-6h-2v5.382l-5.032 2.516L20 29.34v-8.08l6-3.857V24h2v-7.881l3.088-1.986 7.913 3.517v20.276l-3.4-2.708-1.247 1.565 4.647 3.699v3.995l-12.57 8.7 1.138 1.646 11.432-7.914v15.473zm8.356-49.77-9-4a1 1 0 0 0-.947.072l-12 7.714a1 1 0 0 0-.459.842L18 29.382l-5.446 2.724a1 1 0 0 0-.553.894L12 47a1 1 0 0 0 .553.895l5.448 2.724-.001 8.38a1 1 0 0 0 .476.853l13 8a.99.99 0 0 0 .971.043l8.001-4A1 1 0 0 0 41 63V17a1 1 0 0 0-.593-.913M45.973 15H44v-2h3a1 1 0 0 1 1 1.027l-.093 3.462a21.3 21.3 0 0 1 5.176 2.132l2.099-2.358a1 1 0 0 1 1.453-.043l6.744 6.73a1 1 0 0 1-.04 1.453l-2.351 2.1a21.3 21.3 0 0 1 2.14 5.147l2.809-.178c.272-.015.545.08.747.269a1 1 0 0 1 .316.728v9.527a1 1 0 0 1-.304.729.99.99 0 0 1-.747.27l-2.799-.171a21.3 21.3 0 0 1-2.569 5.886l-1.691-1.066a19.3 19.3 0 0 0 2.512-6.088.986.986 0 0 1 1.037-.78l2.571.158-.009-7.398-2.578.163a.995.995 0 0 1-1.038-.776 19.3 19.3 0 0 0-2.527-6.076 1 1 0 0 1 .179-1.281l2.18-1.948-5.245-5.234-1.947 2.186a1 1 0 0 1-1.28.18 19.3 19.3 0 0 0-6.078-2.506 1 1 0 0 1-.781-1.002zm17.283 49H48.29c-.286 0-.499-.047-.651-.143-.701-.442-1.535-1.294-1.535-2.843 0-1.925 1.223-2.643 2.25-2.906.462-.12.777-.55.749-1.028l-.04-.632c0-1.685 1.199-3.565 2.671-4.19a4.8 4.8 0 0 1 1.873-.403c1.618 0 2.761.93 3.26 1.432.556.559.992 1.28 1.296 2.143.124.349.43.6.796.656a1 1 0 0 0 .952-.396 1.35 1.35 0 0 1 1.496-.5c.617.204.977.846.993 1.767a1 1 0 0 0 .825 1.097c.835.144 2.776.724 2.776 2.994 0 2.56-2.341 2.91-2.745 2.952m1.093-7.731c-.246-1.7-1.312-2.648-2.318-2.978a3.3 3.3 0 0 0-2.546.203 7.2 7.2 0 0 0-1.2-1.617c-2-2.015-4.74-2.562-7.332-1.46-2.196.932-3.857 3.484-3.888 6.016-1.869.776-2.961 2.438-2.961 4.58 0 2.59 1.545 3.953 2.466 4.535.475.3 1.053.45 1.719.452h15.013l.073-.002c1.6-.117 4.626-1.302 4.626-4.95 0-2.72-1.769-4.207-3.652-4.78"/></g></svg>