<svg xmlns="http://www.w3.org/2000/svg" width="80" height="80" fill="none" viewBox="0 0 80 80"><path fill="#ed7100" d="M0 0h80v80H0z"/><path fill="#fff" d="M30 42V24.44l-3.296 3.27-1.408-1.42 5.039-5c.188-.185.44-.29.704-.29h.004c.266.001.52.107.706.296l4.961 5-1.42 1.408L32 24.388V42zm16-8v-5.612l3.29 3.316 1.42-1.408-4.961-5a1 1 0 0 0-.706-.296h-.004c-.264 0-.517.105-.704.29l-5.04 5 1.41 1.42L44 28.44V34zm-3 10H27a1 1 0 0 0-1 1v16a1 1 0 0 0 1 1h7v-2h-6V46h14v14h-2v2h3a1 1 0 0 0 1-1V45a1 1 0 0 0-1-1m10-8H37a1 1 0 0 0-1 1v5h2v-4h14v14h-6v2h7a1 1 0 0 0 1-1V37a1 1 0 0 0-1-1M30 68h2v-4h-2zm12 0h2v-4h-2zm-6-2h2V56h-2zm12 0h2V56h-2zm10.898-37.824Q59 27.59 59 27c0-3.86-3.14-7-7-7-.977 0-1.937.204-2.822.596A16.01 16.01 0 0 0 35 12c-8.822 0-16 7.178-16 16q0 .364.019.744C14.789 30.376 12 34.402 12 39c0 6.065 4.935 11 11 11h1v-2h-1c-4.963 0-9-4.038-9-9a8.95 8.95 0 0 1 6.364-8.606 1 1 0 0 0 .703-1.05C21.023 28.861 21 28.422 21 28c0-7.72 6.28-14 14-14a14.01 14.01 0 0 1 12.815 8.375.998.998 0 0 0 1.461.436A5 5 0 0 1 52 22c2.757 0 5 2.243 5 5 0 .57-.102 1.14-.3 1.693a1 1 0 0 0 .877 1.337C62.3 30.33 66 34.27 66 39c0 4.962-4.037 9-9 9h-1v2h1c6.065 0 11-4.935 11-11 0-5.377-3.91-9.92-9.102-10.824"/></svg>