<svg xmlns="http://www.w3.org/2000/svg" width="40" height="40" fill="none" viewBox="0 0 40 40"><path fill="#e7157b" d="M0 0h40v40H0z"/><path fill="#fff" d="M33 24.318a2.4 2.4 0 0 1-2.4-2.4.5.5 0 1 0-1 0 2.4 2.4 0 0 1-2.398 2.4.5.5 0 1 0 0 1 2.4 2.4 0 0 1 2.399 2.399.5.5 0 1 0 1 0 2.4 2.4 0 0 1 2.399-2.4.5.5 0 1 0 0-1m-2.9 1.626a3.4 3.4 0 0 0-1.125-1.126 3.4 3.4 0 0 0 1.126-1.126c.28.458.668.845 1.126 1.126a3.4 3.4 0 0 0-1.126 1.126m-2.68-8.304a.5.5 0 0 0 .5-.5 3.57 3.57 0 0 1 3.566-3.566.5.5 0 1 0 0-1 3.57 3.57 0 0 1-3.565-3.566.5.5 0 1 0-1 0 3.57 3.57 0 0 1-3.566 3.566.5.5 0 1 0 0 1 3.57 3.57 0 0 1 3.566 3.566.5.5 0 0 0 .5.5m-1.99-4.566a4.6 4.6 0 0 0 1.99-1.99 4.6 4.6 0 0 0 1.99 1.99 4.6 4.6 0 0 0-1.99 1.99 4.6 4.6 0 0 0-1.99-1.99m-2.013 12.518c-.376-.35-.557-.532-.557-.83 0-2.968-.003-11.47-5.515-12.92a1.84 1.84 0 0 0-1.716-1.194c-.787 0-1.454.499-1.716 1.195-5.512 1.45-5.516 9.951-5.516 12.919 0 .298-.18.48-.556.83C7.275 26.12 6.5 26.843 6.5 28.5a.5.5 0 0 0 .5.5h6.043a2.71 2.71 0 0 0 2.586 1.923c1.22 0 2.243-.814 2.585-1.923h6.044a.5.5 0 0 0 .5-.5c0-1.657-.776-2.38-1.341-2.908m-7.788 4.33A1.71 1.71 0 0 1 14.115 29h3.028a1.71 1.71 0 0 1-1.514.923M7.533 28c.121-.867.562-1.277.99-1.676.41-.383.874-.816.874-1.562 0-5.21.646-12.135 6.232-12.135s6.231 6.925 6.231 12.135c0 .746.465 1.18.875 1.562.428.399.869.81.99 1.676z"/></svg>