<svg xmlns="http://www.w3.org/2000/svg" width="40" height="40" fill="none" viewBox="0 0 40 40"><g clip-path="url(#a)"><path fill="#e7157b" d="M0 0h40v40H0z"/><path fill="#fff" d="M30 21.5v.5h-1v-.5a6.507 6.507 0 0 0-7.192-6.462q.13-.531.17-1.09c.171.025.343.052.522.052 1.93 0 3.5-1.57 3.5-3.5S24.43 7 22.5 7a3.5 3.5 0 0 0-2.86 1.494 6.5 6.5 0 0 0-.818-.571A4.49 4.49 0 0 1 22.5 6c2.482 0 4.5 2.019 4.5 4.5 0 1.645-.897 3.072-2.219 3.857C27.804 15.325 30 18.16 30 21.5M18.173 28H6.5a.5.5 0 0 1-.5-.5c0-4.349 2.94-8.016 6.935-9.138A5.5 5.5 0 0 1 10 13.5c0-3.033 2.468-5.5 5.501-5.5A5.506 5.506 0 0 1 21 13.5a5.5 5.5 0 0 1-2.926 4.857 9.5 9.5 0 0 1 2.293.983 9.56 9.56 0 0 1 4.56 7.066l-1.166-1.167c-.03-.03-.07-.042-.101-.069a8.55 8.55 0 0 0-3.806-4.972A8.5 8.5 0 0 0 15.5 19c-4.519 0-8.226 3.545-8.485 8h12.408zm-2.672-10A4.505 4.505 0 0 0 20 13.5c0-2.482-2.018-4.5-4.499-4.5A4.506 4.506 0 0 0 11 13.5c0 2.482 2.02 4.5 4.501 4.5M33.5 24H29v1h3l-5.653 4.24-3.293-3.294a.5.5 0 0 0-.666-.037l-9 7.2.625.782 8.65-6.921 3.283 3.283a.5.5 0 0 0 .654.047l6.4-4.8V29h1v-4.5a.5.5 0 0 0-.5-.5"/></g><defs><clipPath id="a"><path fill="#fff" d="M0 0h40v40H0z"/></clipPath></defs></svg>