<svg xmlns="http://www.w3.org/2000/svg" width="40" height="40" fill="none" viewBox="0 0 40 40"><path fill="#01a88d" d="M0 0h40v40H0z"/><path fill="#fff" d="m17.189 12.21 2.343-5.895a.5.5 0 0 1 .93 0l3.555 8.961 5.53-5.53.708.706-6.07 6.07a.5.5 0 0 1-.818-.17l-3.37-8.498-2.038 5.126zm-4.213 9.83-5.122-2.036 8.499-3.37a.5.5 0 0 0 .168-.819l-6.069-6.07-.707.708 5.531 5.532-8.96 3.554a.5.5 0 0 0 0 .93l5.89 2.341zm20.703-2.503-5.907-2.348-.77.77 5.138 2.043-8.498 3.37a.5.5 0 0 0-.17.819l6.07 6.07.707-.708-5.531-5.532 8.96-3.554a.5.5 0 0 0 0-.93m-11.641 7.475-2.04 5.133-3.372-8.498a.502.502 0 0 0-.818-.168l-6.07 6.069.707.707 5.532-5.531 3.555 8.96a.5.5 0 0 0 .93 0l2.346-5.901z"/></svg>