<svg xmlns="http://www.w3.org/2000/svg" width="40" height="40" fill="none" viewBox="0 0 40 40"><g clip-path="url(#a)"><path fill="#01a88d" d="M0 0h40v40H0z"/><path fill="#fff" fill-rule="evenodd" d="M20 7 9 13.417v12.85l11 6.418 11-6.417V13.417zm12 6.417a1 1 0 0 0-.496-.864l-11-6.417a1 1 0 0 0-1.008 0l-11 6.417a1 1 0 0 0-.496.864v12.85a1 1 0 0 0 .496.865l11 6.416a1 1 0 0 0 1.008 0l11-6.416a1 1 0 0 0 .496-.864z" clip-rule="evenodd"/><path fill="#fff" fill-rule="evenodd" d="m20 11.99 4.314 2.426 1.02-.574-4.843-2.724a1 1 0 0 0-.981 0l-4.843 2.724 1.02.574zm8 3.303-8 4.502-8-4.453v-.047 1.147l8 4.5 7-3.937v6.752l-7 3.938-7-3.938v-3.794l-1-.563v4.358a1 1 0 0 0 .51.871l7 3.938a1 1 0 0 0 .98 0l7-3.938a1 1 0 0 0 .51-.872z" clip-rule="evenodd"/></g><defs><clipPath id="a"><path fill="#fff" d="M0 0h40v40H0z"/></clipPath></defs></svg>