<svg xmlns="http://www.w3.org/2000/svg" width="24" height="24" viewBox="0 0 24 24"><title>Icon-Architecture/16/Arch_AWS-Elemental-MediaConnect_16</title><g fill="none" fill-rule="evenodd"><path fill="#ed7100" d="M0 0h24v24H0z"/><path fill="#fff" d="m18.006 9.142-1.473-.77-1.474.77v1.921l1.474.76 1.473-.76zm-4.558-3.295-1.473-.77-1.474.77V7.77l1.474.759 1.473-.76zM8.94 9.142l-1.473-.77-1.474.77v1.921l1.474.76 1.473-.76zM19 8.832v2.544a.51.51 0 0 1-.272.453l-1.971 1.015a.49.49 0 0 1-.448 0l-1.97-1.015a.51.51 0 0 1-.273-.453v-2.36l-.249-.3-1.619.833a.49.49 0 0 1-.448 0l-1.603-.826-.213.28v2.373a.51.51 0 0 1-.272.453l-1.97 1.015a.5.5 0 0 1-.449 0l-1.97-1.015A.51.51 0 0 1 5 11.376V8.831c0-.19.105-.365.271-.451l1.97-1.03a.49.49 0 0 1 .452 0l1.602.838.212-.28V5.538c0-.191.105-.366.271-.452l1.97-1.03a.49.49 0 0 1 .452 0l1.971 1.03c.166.086.27.26.27.452v2.359l.247.3 1.619-.846a.49.49 0 0 1 .452 0l1.97 1.03c.167.086.271.26.271.451m-.813 6.37-3.399-2.017-.499.877 2.69 1.598-5.004 3.232L6.97 15.66l2.695-1.597-.499-.88-3.405 2.019a.512.512 0 0 0-.017.868l5.963 3.85a.49.49 0 0 0 .532 0l5.963-3.85a.51.51 0 0 0-.016-.867m-6.71.859v-3.287l-.672.41-.51-.869 1.424-.873a.49.49 0 0 1 .511 0l1.424.873-.51.87-.672-.411v3.287l.671-.413.511.871-1.424.872a.49.49 0 0 1-.51 0l-1.426-.872.51-.87z"/></g></svg>