<svg xmlns="http://www.w3.org/2000/svg" width="24" height="24" viewBox="0 0 24 24"><title>Icon-Architecture/16/Arch_AWS-Elemental-MediaTailor_16</title><g fill="none" fill-rule="evenodd"><path fill="#ed7100" d="M0 0h24v24H0z"/><path fill="#fff" d="M6.002 11.01H5V8.94a.5.5 0 0 1 .247-.43l3.267-1.916.51.86-3.022 1.772zm13.998 0h-1.002V9.245L15.524 7.47l.458-.89 3.745 1.917A.5.5 0 0 1 20 8.94zm-9.87 8.674L5.248 16.82A.5.5 0 0 1 5 16.39v-2.383h1.002v2.097l4.638 2.72zm4.26.01-.474-.88 5.082-2.724v-2.084H20v2.383a.5.5 0 0 1-.265.44zM11.012 9.018l1.499.93 1.438-.924V6.782l-1.437-.726-1.5.73zm-2.478 2.407 3.983 1.587 3.946-1.571-2.371-1.32-1.075.691v1.164h-1.003v-1.159l-1.211-.75zm-.044 2.99 4.026 2.028 4.012-2.02-2.106-1.094-1.405.56v1.08h-1.003v-1.08l-1.47-.587zM13.017 20h-1.003v-2.69l-4.828-2.432a.5.5 0 0 1-.015-.885l2.164-1.172-2.11-.84a.5.5 0 0 1-.073-.893l2.864-1.715a1 1 0 0 1-.006-.076V6.475a.5.5 0 0 1 .28-.449l2.005-.976a.51.51 0 0 1 .447.003l1.934.976a.5.5 0 0 1 .276.446v2.822q0 .076-.023.147l2.942 1.636a.5.5 0 0 1 .255.469.5.5 0 0 1-.315.431l-2.162.861 2.209 1.148a.499.499 0 0 1-.006.89l-4.835 2.432z"/></g></svg>