<svg xmlns="http://www.w3.org/2000/svg" width="24" height="24" viewBox="0 0 24 24"><title>Icon-Architecture/16/Arch_AWS-Thinkbox-Stoke_16</title><g fill="none" fill-rule="evenodd"><path fill="#ed7100" d="M0 0h24v24H0z"/><path fill="#fff" d="M12.363 10.649a.517.517 0 0 0-.727 0C11.529 10.763 9 13.469 9 16.493c0 .33.006.785.095 1.284C8.398 16.905 8 15.756 8 14.491c0-3.864 2.941-7.892 4-9.216 1.058 1.325 4 5.352 4 9.217 0 1.258-.395 2.397-1.084 3.266.079-.468.084-.905.084-1.267 0-3.024-2.53-5.73-2.637-5.844m1.343 9.298.736-.405 5.301-2.947A.5.5 0 0 0 20 16.16V8.38a.5.5 0 0 0-.187-.39l-3-2.415-.627.778L19 8.62v7.245l-2.654 1.473A6.44 6.44 0 0 0 17 14.493c0-5.071-4.438-10.12-4.626-10.332a.516.516 0 0 0-.748 0C11.437 4.373 7 9.42 7 14.494c0 1.034.238 2 .653 2.845L5 15.865V8.62l2.813-2.266-.627-.779-3 2.417A.5.5 0 0 0 4 8.38v7.778c0 .182.098.35.257.438l5.3 2.945.737.406.559-.808C10 18.285 10 17.206 10 16.493c0-1.982 1.338-3.901 2.001-4.73.662.826 1.999 2.742 1.999 4.73 0 .799 0 1.793-.854 2.646z"/></g></svg>