<svg xmlns="http://www.w3.org/2000/svg" width="24" height="24" viewBox="0 0 24 24"><title>Icon-Architecture/16/Arch_AWS-Thinkbox-Krakatoa_16</title><g fill="none" fill-rule="evenodd"><path fill="#ed7100" d="M0 0h24v24H0z"/><path fill="#fff" d="M19 8.5V11h-1V9.083c-3.436.638-5.819 3.166-6 6.437V16h-.001L12 17h-.001L12 19h1v-3c0-1.654 1.346-3 3-3 1.103 0 2 .897 2 2s-.897 2-2 2v-1a1.001 1.001 0 0 0 0-2c-1.103 0-2 .897-2 2v3h1v1H8v-1h1v-3c0-1.103-.897-2-2-2a1.001 1.001 0 0 0 0 2v1c-1.103 0-2-.897-2-2s.897-2 2-2c1.654 0 3 1.346 3 3v3h1v-3.5c-.177-3.249-2.562-5.778-6-6.417V11H4V8.5c0-.143.062-.279.169-.375.025-.022.059-.032.088-.049l-.006-.01 2.5-1.436.498.868-1.341.77c2.255.598 4.049 1.95 5.092 3.775v-6.7L9.101 6.433l-.498-.868 2.611-1.5a.5.5 0 0 1 .496 0l2.639 1.5-.495.87L12 5.38v6.671c1.043-1.83 2.832-3.182 5.083-3.78l-1.33-.757.494-.869 2.5 1.42-.006.01c.03.017.064.028.09.05A.5.5 0 0 1 19 8.5"/></g></svg>