<svg xmlns="http://www.w3.org/2000/svg" width="80" height="80" fill="none" viewBox="0 0 80 80"><g clip-path="url(#a)"><path fill="#01a88d" d="M0 0h80v80H0z"/><path fill="#fff" fill-rule="evenodd" d="M40 14.163 18 27.226v26.223L40 66.51l22-13.062V27.226zm24 12.493a1 1 0 0 0-.49-.86l-23-13.656a1 1 0 0 0-1.02 0l-23 13.656a1 1 0 0 0-.49.86v27.362a1 1 0 0 0 .49.86l23 13.656a1 1 0 0 0 1.02 0l23-13.656a1 1 0 0 0 .49-.86z" clip-rule="evenodd"/><path fill="#fff" fill-rule="evenodd" d="m40 40.522 15-8.751v16.742a1 1 0 0 1-.496.863l-14 8.167a1 1 0 0 1-1.008 0l-14-8.167a1 1 0 0 1-.496-.863V39.77l2 1.124v7.043l13 7.584 13-7.584V35.254l-13 7.583-15-8.75v-2.316zm-8.301-10.527 8.3-4.843 8.302 4.843 1.984-1.158-9.781-5.706a1 1 0 0 0-1.008 0l-9.782 5.706z" clip-rule="evenodd"/></g><defs><clipPath id="a"><path fill="#fff" d="M0 0h80v80H0z"/></clipPath></defs></svg>