<svg xmlns="http://www.w3.org/2000/svg" width="80" height="80" viewBox="0 0 80 80"><title>Icon-Architecture/64/Arch_Amazon-Q_64</title><g fill="none" fill-rule="evenodd"><path fill="#01a88d" d="M0 0h80v80H0z"/><path fill="#fff" d="M43 38.117v3.765l-3 1.5-3-1.5v-3.765l3-1.507zm16.968 15.948-18 10.174a4.02 4.02 0 0 1-3.936 0l-18-10.174A4 4 0 0 1 18 50.583V29.31c0-1.386.736-2.695 1.92-3.417l18.001-10.956A4 4 0 0 1 40 14.351c.719 0 1.438.196 2.08.586l18 10.956A4.03 4.03 0 0 1 62 29.31v21.273c0 .248-.031.492-.076.731L45 41.912V37.5a1 1 0 0 0-.551-.893l-4-2.01a1 1 0 0 0-.898 0l-4 2.01A1 1 0 0 0 35 37.5v5c0 .379.214.725.553.895l4 2a1 1 0 0 0 .894 0l3.529-1.764 17.099 9.499c-.306.37-.676.692-1.107.935m1.151-29.88L43.12 13.229a5.98 5.98 0 0 0-6.239 0l-18 10.956A6.04 6.04 0 0 0 16 29.31v21.273a6.01 6.01 0 0 0 3.048 5.223l18 10.174a6 6 0 0 0 2.952.772 6 6 0 0 0 2.952-.772l18-10.174A6.01 6.01 0 0 0 64 50.583V29.31a6.04 6.04 0 0 0-2.881-5.125"/></g></svg>