<svg xmlns="http://www.w3.org/2000/svg" width="80" height="80" viewBox="0 0 80 80"><title>Icon-Architecture/64/Arch_AWS-HealthImaging_64</title><g fill="none" fill-rule="evenodd"><path fill="#01a88d" d="M0 0h80v80H0z"/><path fill="#fff" d="M43.988 49.99h2v-14h-2zm-6-11h2v-9h-2zm0 15h2v-4h-2zm0-6h2v-7h-2zm-6 12h2v-3h-2zm0-6h2v-9h-2zm33 3h-4a1 1 0 0 1-1-1v-5h-4v5a1 1 0 0 1-1 1h-4v4h4a1 1 0 0 1 1 1v4h4v-4a1 1 0 0 1 1-1h4zm2-1v6a1 1 0 0 1-1 1h-4v4a1 1 0 0 1-1 1h-6a1 1 0 0 1-1-1v-4h-4a1 1 0 0 1-1-1v-6a1 1 0 0 1 1-1h4v-5a1 1 0 0 1 1-1h6a1 1 0 0 1 1 1v5h4a1 1 0 0 1 1 1m-45 9.73V39.26c0-.148.12-.27.268-.27h12.732v-2H22.256a2.27 2.27 0 0 0-2.268 2.27V65.72a2.27 2.27 0 0 0 2.268 2.269h28.732v-2H22.256a.27.27 0 0 1-.268-.27m38-18.73v-7.731a2.27 2.27 0 0 0-2.269-2.27h-8.73v2h8.73a.27.27 0 0 1 .27.27v7.73zm7.575-9.296q.001.291-.004.573c0 .087-.014 2.685-1.467 5.363l-1.757-.953c1.212-2.236 1.224-4.41 1.224-4.431.004-.196.004-.372.004-.552 0-6.484-4.402-8.005-7.714-8.584a1 1 0 0 1-.128-.032l-.338-.106a1 1 0 0 1-.689-1.096c.366-2.543-.658-4.548-2.742-5.365-1.617-.634-3.956-.454-5.265 1.44a.999.999 0 0 1-1.767-.241c-.788-2.27-1.929-4.178-3.394-5.673-1.792-1.831-6.707-5.767-13.652-2.775-4.419 1.906-7.165 5.704-7.165 9.91l.096 3.09a1 1 0 0 1-.748 1l-.247.064c-3.259.846-6.954 1.804-7.528 7.959-.02.206-.014.816.003 1.262l-1.998.075c-.002-.043-.04-1.064.003-1.524.67-7.16 5.202-8.698 8.491-9.57l-.072-2.324c0-5.05 3.21-9.551 8.374-11.778 5.602-2.416 11.537-1.216 15.873 3.21 1.332 1.362 2.425 3.009 3.261 4.912 1.741-1.404 4.195-1.79 6.465-.9 2.146.842 4.246 3 4.08 6.6 5.841 1.2 8.801 4.713 8.801 10.446"/></g></svg>