<svg xmlns="http://www.w3.org/2000/svg" width="80" height="80" viewBox="0 0 80 80"><title>Icon-Architecture/64/Arch_AWS-Deep-Learning-AMIs_64</title><g fill="none" fill-rule="evenodd"><path fill="#01a88d" d="M0 0h80v80H0z"/><path fill="#fff" d="M59.5 65.999c-1.93 0-3.5-1.57-3.5-3.5s1.57-3.5 3.5-3.5 3.5 1.57 3.5 3.5-1.57 3.5-3.5 3.5m-29.999-.001c-1.93 0-3.5-1.57-3.5-3.499s1.57-3.5 3.5-3.5S33 60.569 33 62.499a3.503 3.503 0 0 1-3.499 3.499m-8.77-21.558c.368-.268.704-.577.995-.925L29 47.366v9.658a5.5 5.5 0 0 0-1.34.299zM14 39.999c0-1.93 1.57-3.5 3.5-3.5s3.5 1.57 3.5 3.5-1.57 3.5-3.5 3.5-3.5-1.57-3.5-3.5m13.312-17.458a5.5 5.5 0 0 0 1.688.433v9.658l-7.274 3.851a5.6 5.6 0 0 0-1.259-1.108zM29.501 14C31.431 14 33 15.57 33 17.499s-1.569 3.5-3.499 3.5-3.5-1.57-3.5-3.5a3.504 3.504 0 0 1 3.5-3.499M40.8 26.385l-6.4-6.4c.309-.607.51-1.276.575-1.986h19.05c.039.432.13.848.263 1.245zM31 31.573v-8.787a5.5 5.5 0 0 0 2.171-1.203l5.78 5.781zm7.95 21.061-5.78 5.78A5.5 5.5 0 0 0 31 57.212v-8.787zm15.339 8.12a5.4 5.4 0 0 0-.264 1.245h-19.05a5.4 5.4 0 0 0-.576-1.986l6.401-6.401zM59.499 14c1.93 0 3.5 1.57 3.5 3.499s-1.57 3.5-3.5 3.5a3.503 3.503 0 0 1-3.499-3.5A3.503 3.503 0 0 1 59.499 14m.001 42.999a5.5 5.5 0 0 0-4.243 2.004l-12.978-6.87 1.427-1.427-1.414-1.414-1.862 1.862L31 46.162v-3.163h-2v2.104l-6.298-3.334q.128-.374.202-.77H40v-2H22.904a5.5 5.5 0 0 0-.202-.77L29 34.895v2.104h2v-3.163l9.431-4.992 1.862 1.862 1.414-1.414-1.428-1.427 12.978-6.87a5.49 5.49 0 0 0 4.242 2.004c3.032 0 5.5-2.467 5.5-5.5a5.506 5.506 0 0 0-5.5-5.499c-2.512 0-4.63 1.695-5.286 3.999H34.787C34.131 13.695 32.013 12 29.501 12a5.506 5.506 0 0 0-5.5 5.499c0 1.531.63 2.917 1.644 3.915l-7.039 13.197A5.506 5.506 0 0 0 12 39.999c0 3.033 2.468 5.5 5.5 5.5.494 0 .97-.071 1.426-.194l7.002 13.021a5.49 5.49 0 0 0-1.927 4.173 5.506 5.506 0 0 0 5.5 5.499c2.512 0 4.63-1.695 5.286-3.999h19.426c.655 2.305 2.775 4 5.287 4 3.032 0 5.5-2.467 5.5-5.5s-2.468-5.5-5.5-5.5M55 43.319a3.323 3.323 0 0 1-3.32-3.32 3.323 3.323 0 0 1 3.32-3.32 3.323 3.323 0 0 1 3.32 3.32 3.323 3.323 0 0 1-3.32 3.32m0-8.64a5.325 5.325 0 0 0-5.32 5.32 5.325 5.325 0 0 0 5.32 5.32 5.325 5.325 0 0 0 5.32-5.32 5.325 5.325 0 0 0-5.32-5.32m11 6.82h-1.575a1 1 0 0 0-.967.745 8.7 8.7 0 0 1-.892 2.147 1 1 0 0 0 .158 1.21l1.115 1.115-2.121 2.122-1.115-1.115a1 1 0 0 0-1.21-.158 8.7 8.7 0 0 1-2.149.892 1 1 0 0 0-.744.967v1.575h-3v-1.575a1 1 0 0 0-.744-.967 8.7 8.7 0 0 1-2.149-.892 1 1 0 0 0-1.21.158l-1.115 1.115-2.121-2.122 1.115-1.115a1 1 0 0 0 .158-1.21 8.7 8.7 0 0 1-.892-2.147 1 1 0 0 0-.967-.745H44v-3h1.575a1 1 0 0 0 .967-.745c.198-.748.498-1.47.892-2.147a1 1 0 0 0-.158-1.21l-1.115-1.116 2.121-2.121 1.115 1.115a1 1 0 0 0 1.21.158 8.7 8.7 0 0 1 2.149-.892c.438-.117.744-.514.744-.967v-1.575h3v1.575c0 .453.306.85.744.967.75.198 1.473.499 2.149.892a1 1 0 0 0 1.21-.158l1.115-1.115 2.121 2.121-1.115 1.116a1 1 0 0 0-.158 1.21c.394.677.694 1.399.892 2.147a1 1 0 0 0 .967.745H66zm.5-5h-1.335a11 11 0 0 0-.503-1.212l.944-.945a1.5 1.5 0 0 0 0-2.121l-2.828-2.828a1.5 1.5 0 0 0-2.121 0l-.944.944q-.593-.289-1.213-.504v-1.334c0-.827-.673-1.5-1.5-1.5h-4c-.827 0-1.5.673-1.5 1.5v1.334q-.62.215-1.213.504l-.944-.944a1.5 1.5 0 0 0-2.121 0l-2.828 2.828a1.5 1.5 0 0 0 0 2.121l.944.945q-.288.592-.503 1.212H43.5c-.827 0-1.5.673-1.5 1.5v4c0 .827.673 1.5 1.5 1.5h1.335q.215.62.503 1.212l-.944.945c-.284.283-.44.66-.44 1.061s.156.778.44 1.06l2.828 2.828a1.5 1.5 0 0 0 2.121 0l.944-.944q.593.289 1.213.503v1.335c0 .827.673 1.5 1.5 1.5h4c.827 0 1.5-.673 1.5-1.5v-1.335q.62-.214 1.213-.503l.944.944a1.5 1.5 0 0 0 2.121 0l2.827-2.827c.285-.283.441-.66.441-1.061s-.156-.778-.44-1.061l-.944-.945q.288-.592.503-1.212H66.5c.827 0 1.5-.673 1.5-1.5v-4c0-.827-.673-1.5-1.5-1.5"/></g></svg>