<svg xmlns="http://www.w3.org/2000/svg" width="80" height="80" viewBox="0 0 80 80"><title>Icon-Architecture/64/Arch_AWS-HealthScribe_64</title><g fill="none" fill-rule="evenodd"><path fill="#01a88d" d="M0 0h80v80H0z"/><path fill="#fff" d="M36.521 53.959c-1.055-1.379-3.707-2.163-6.514-2.313v-4.923l3.369-1.111q.07-.023.134-.056a1.07 1.07 0 0 1 1.207.171c2.096 1.909 5.85 4.982 8.887 5.579-1.651 1.019-4.876 2.448-7.083 2.653M29.007 57c-3.937 0-6-1.257-6-1.692s2.063-1.693 6-1.693 6 1.258 6 1.693-2.064 1.692-6 1.692m4 3.5c0 .529-1.519 1.5-4 1.5-2.482 0-4-.971-4-1.5s1.518-1.5 4-1.5c2.481 0 4 .971 4 1.5m-8.552-14.773c.332-.304.805-.37 1.234-.157l2.318 1.07v5.006c-2.806.15-5.458.934-6.514 2.312-2.127-.208-4.952-1.612-6.29-2.591 2.92-.374 6.598-3.223 9.252-5.64M26.007 38c0-1.654 1.346-3 3-3s3 1.346 3 3-1.346 3-3 3-3-1.346-3-3m19.701 11.585c-.29-.12-.645-.176-1.116-.176-1.793 0-4.981-1.929-8.529-5.161a3.06 3.06 0 0 0-3.376-.515l-2.68.884v-1.718a5.01 5.01 0 0 0 4-4.899c0-2.757-2.243-5-5-5s-5 2.243-5 5a5.01 5.01 0 0 0 4 4.899v1.539l-1.451-.67a3.05 3.05 0 0 0-3.448.48c-3.548 3.232-6.737 5.161-8.528 5.161-.514 0-.916.07-1.231.213-.525.24-.839.705-.839 1.245 0 2.004 5.382 4.601 8.6 5.056.333 1.083 1.531 1.888 3.135 2.402-.78.589-1.238 1.338-1.238 2.175 0 1.795 2.09 3.189 5 3.452V68h2v-4.048c2.91-.263 5-1.657 5-3.452 0-.837-.459-1.586-1.239-2.175 1.605-.514 2.804-1.32 3.137-2.404 3.284-.463 9.652-3.084 9.652-5.136 0-.533-.317-.982-.849-1.2M43.007 38h7v-2h-7zm0-13h9v-2h-9zm0 7h19v-2h-19zm6 12h13v-2h-13zm4-6h9v-2h-9zm5-22.413L64.746 23h-6.739zm9.74 7.74-10-11a1 1 0 0 0-.74-.327h-20a1 1 0 0 0-1 1v26h2V14h18v10a1 1 0 0 0 1 1h9v28h-15v2h16a1 1 0 0 0 1-1V24c0-.248-.093-.489-.26-.673"/></g></svg>