<svg xmlns="http://www.w3.org/2000/svg" width="24" height="24" viewBox="0 0 24 24"><title>Icon-Architecture/16/Arch_Amazon-Simple-Storage-Service-Glacier_16</title><g fill="none" fill-rule="evenodd"><path fill="#7aa116" d="M0 0h24v24H0z"/><path fill="#fff" d="M18.321 12 20 13.602l-.721.69-1.89-1.805h-4.006l2.003 3.31 2.582.66-.263.94-2.295-.586L14.796 19l-.986-.251.693-2.466-2.002-3.31-2.003 3.31.693 2.466-.986.251-.615-2.19-2.295.588-.262-.94 2.582-.66 2.003-3.311H7.612l-1.89 1.804L5 13.602 6.68 12 5 10.398l.721-.69 1.891 1.805h4.006l-2.003-3.31-2.582-.66.262-.94 2.295.586L10.205 5l.986.251-.693 2.466 2.003 3.31 2.002-3.31-.693-2.466.986-.251.614 2.19 2.295-.588.263.94-2.582.66-2.003 3.311h4.006l1.89-1.804.721.689z"/></g></svg>