<svg xmlns="http://www.w3.org/2000/svg" width="24" height="24" viewBox="0 0 24 24"><title>Icon-Architecture/16/Arch_Amazon-FSx-for-Lustre_16</title><g fill="none" fill-rule="evenodd"><path fill="#7aa116" d="M0 0h24v24H0z"/><path fill="#fff" d="M13.578 15.758h1.044l1.454-2.124.03-.043-.477-.674zm3.358-3.275 2.104-2.932h-1.032l-1.641 2.343-.464.643 2.247 3.221h1.089zm-.775-1.057-1.313-1.875h-1.079l1.846 2.602zm-4.235.395-1.141-.437a5.2 5.2 0 0 1-.856-.394 1.16 1.16 0 0 1-.412-.389q-.123-.213-.123-.564c0-.421.134-.735.411-.96.275-.226.682-.34 1.21-.34.549 0 1.19.127 1.903.379l.1.036v-.699l-.044-.02A5.2 5.2 0 0 0 10.982 8c-.704 0-1.282.191-1.716.568-.439.379-.662.88-.662 1.49 0 .45.136.834.403 1.142.262.303.677.566 1.234.783l1.236.479q.624.24.9.536.267.287.267.695c0 .456-.163.806-.499 1.07-.336.266-.795.4-1.365.4-.614 0-1.298-.134-2.032-.4l-.101-.037v.698l.043.02c.626.302 1.347.456 2.143.456.774 0 1.41-.204 1.887-.604.481-.405.725-.94.725-1.593 0-.448-.124-.829-.368-1.129-.242-.296-.629-.549-1.151-.753M4 8.181h4.297v.716H4.779v2.674h2.974v.715H4.779v3.432H4z"/></g></svg>