<svg xmlns="http://www.w3.org/2000/svg" width="24" height="24" viewBox="0 0 24 24"><title>Icon-Architecture/16/Arch_Amazon-FSx-for-OpenZFS_16</title><g fill="none" fill-rule="evenodd"><path fill="#7aa116" d="M0 0h24v24H0z"/><path fill="#fff" d="M14.056 16.145h1.096l1.527-2.23.032-.045-.502-.708zm3.526-3.438 2.209-3.079h-1.084l-1.723 2.46-.487.676 2.36 3.381H20zm-.814-1.11-1.379-1.969h-1.132l1.938 2.732zm-4.447.415-1.197-.459a5.5 5.5 0 0 1-.9-.414 1.2 1.2 0 0 1-.431-.408q-.129-.224-.129-.593c0-.442.14-.771.43-1.008.289-.237.717-.356 1.271-.356.577 0 1.249.133 1.998.398l.106.037v-.734l-.048-.021A5.4 5.4 0 0 0 11.331 8c-.74 0-1.347.2-1.803.596-.46.398-.694.924-.694 1.564 0 .473.143.876.423 1.199.275.318.711.595 1.296.822l1.298.504q.654.252.944.562.28.301.281.729c0 .479-.171.847-.524 1.125s-.835.419-1.434.419c-.644 0-1.362-.141-2.133-.42l-.106-.038v.732l.045.021c.658.318 1.414.479 2.25.479.813 0 1.48-.214 1.981-.634.505-.425.762-.987.762-1.672 0-.471-.131-.871-.387-1.186-.254-.311-.66-.577-1.209-.79M4 8.19h4.511v.751H4.818v2.808H7.94v.751H4.818v3.603H4z"/></g></svg>