<svg xmlns="http://www.w3.org/2000/svg" width="24" height="24" viewBox="0 0 24 24"><title>Icon-Architecture/16/Arch_Amazon-FSx_16</title><g fill="none" fill-rule="evenodd"><path fill="#7aa116" d="M0 0h24v24H0z"/><path fill="#fff" d="m16.307 13.295-2.027 2.809h.914l1.525-2.228zm2.729 2.809H20l-2.396-3.41 2.182-3.043h-.902l-1.724 2.463-.462.639zm-2.259-4.536-1.343-1.917h-.951l1.813 2.557zm-6.179.519q-.875-.34-1.283-.812-.41-.47-.409-1.164 0-.942.675-1.526.676-.586 1.778-.585.499 0 1.05.119a5.4 5.4 0 0 1 1.039.335v.579q-1.158-.41-2.055-.409-.875 0-1.34.38-.466.381-.466 1.085 0 .397.142.642.142.244.466.442.324.2.925.426l1.215.466q.818.317 1.193.777.374.46.374 1.153 0 1.011-.743 1.635-.745.624-1.959.624-1.26 0-2.248-.477v-.579q1.191.432 2.191.432.943 0 1.504-.443.562-.442.562-1.204 0-.465-.306-.794-.306-.33-.989-.591zM4 16.062v-7.87h4.417v.603H4.67v3.008h3.168v.602H4.67v3.657z"/></g></svg>