<svg xmlns="http://www.w3.org/2000/svg" width="24" height="24" viewBox="0 0 24 24"><title>Icon-Architecture/16/Arch_AWS-Backup_16</title><g fill="none" fill-rule="evenodd"><path fill="#7aa116" d="M0 0h24v24H0z"/><path fill="#fff" d="M11.969 9.345a3.21 3.21 0 0 1 3.207 3.21 3.21 3.21 0 0 1-3.207 3.207 3.22 3.22 0 0 1-3.009-2.094l.933-.347a2.22 2.22 0 0 0 2.076 1.445c1.22 0 2.212-.992 2.212-2.212s-.993-2.213-2.212-2.213c-.59 0-1.126.248-1.531.644h1.53v.996h-2.49a.5.5 0 0 1-.497-.498V9.015h.996v1.034a3.2 3.2 0 0 1 1.992-.704m4.123 8.66H7.908L6.06 10.662l5.909-4.537 5.97 4.57zm2.712-7.9-6.533-5.002a.5.5 0 0 0-.606 0l-6.471 4.97a.5.5 0 0 0-.18.516l2.023 8.035A.5.5 0 0 0 7.52 19h8.96a.5.5 0 0 0 .482-.376l2.022-8.002a.5.5 0 0 0-.18-.518"/></g></svg>