<svg xmlns="http://www.w3.org/2000/svg" width="40" height="40" fill="none" viewBox="0 0 40 40"><path fill="#c925d1" d="M0 0h40v40H0z"/><path fill="#fff" d="M21 32.81c-1.052.118-2.218.19-3.5.19-5.886 0-9.5-1.456-9.5-2.5v-5.423C9.772 26.343 13.65 27 17.5 27c1.187 0 2.37-.07 3.5-.194v-.997c-1.052.119-2.218.191-3.5.191-5.886 0-9.5-1.456-9.5-2.5v-5.423C9.772 19.343 13.65 20 17.5 20c1.187 0 2.37-.07 3.5-.194v-.997c-1.052.119-2.218.191-3.5.191-5.886 0-9.5-1.456-9.5-2.5v-5.423C9.772 12.344 13.65 13 17.5 13s7.727-.656 9.5-1.923V13h1V9.5C28 7.202 22.718 6 17.5 6S7 7.202 7 9.5v21c0 2.298 5.282 3.5 10.5 3.5 1.185 0 2.37-.065 3.5-.188zM17.5 7C23.386 7 27 8.456 27 9.5S23.386 12 17.5 12 8 10.544 8 9.5 11.614 7 17.5 7m15 27h-10a.5.5 0 0 1-.5-.5v-19a.5.5 0 0 1 .5-.5h10a.5.5 0 0 1 .5.5v19a.5.5 0 0 1-.5.5M23 33h9V15h-9zm5-16h-4v-1h4zm3 2h-7v-1h7zm0 13h-1.14l-2.36-4.43L25.14 32H24l2.93-5.5L24 21h1.14l2.36 4.43L29.86 21H31l-2.93 5.5z"/></svg>