<svg xmlns="http://www.w3.org/2000/svg" width="24" height="24" viewBox="0 0 24 24"><title>Icon-Architecture/16/Arch_AWS-Site-to-Site-VPN_16</title><g fill="none" fill-rule="evenodd"><path fill="#8c4fff" d="M0 0h24v24H0z"/><path fill="#fff" d="M9.007 8h-1c0-2.206 1.794-4 4-4s4 1.794 4 4h-1c0-1.654-1.346-3-3-3s-3 1.346-3 3m-2.354 3.854L4.3 9.5l2.353-2.354.708.708L6.214 9H17.8l-1.147-1.146.708-.708L19.714 9.5l-2.353 2.354-.708-.708L17.8 10H6.214l1.147 1.146zM7.007 19h10v-5h-10zm10.5-6h-1.5v-2h-1v2h-6v-2h-1v2h-1.5a.5.5 0 0 0-.5.5v6a.5.5 0 0 0 .5.5h11a.5.5 0 0 0 .5-.5v-6a.5.5 0 0 0-.5-.5"/></g></svg>