<svg xmlns="http://www.w3.org/2000/svg" width="24" height="24" fill="none" viewBox="0 0 24 24"><g clip-path="url(#a)"><path fill="#8c4fff" d="M0 0h24v24H0z"/><path fill="#fff" d="M12 15h1v1h-1zm2 1h1v-1h-1zm2.02 0h1.48a.5.5 0 0 0 .5-.5v-1.479h-1V15h-.98zm.98-3h1v-.959h-1zm1-3.5a.5.5 0 0 0-.5-.5h-1.48v1H17v1h1zM15 9h-.98v1H15zm-2 0h-1v1h1zm6-4h-9v1h9v1h-9v1h9v10h-9v1h9a1 1 0 0 0 1-1V6c0-.551-.448-1-1-1M9 16.5v3a.5.5 0 0 1-.5.5h-4a.5.5 0 0 1-.5-.5v-3a.5.5 0 0 1 .5-.5h4a.5.5 0 0 1 .5.5M8 17H5v2h3zM4 7.5v-3a.5.5 0 0 1 .5-.5h4a.5.5 0 0 1 .5.5v3a.5.5 0 0 1-.5.5h-4a.5.5 0 0 1-.5-.5M5 7h3V5H5zm6 3.5V12h2.293l-.646-.646.707-.707 1.5 1.5a.5.5 0 0 1 .108.544c-.026.062-.076.103-.122.149l.014.014-1.5 1.5-.707-.707.646-.647H11v.5a.5.5 0 0 1-.5.5h-4a.5.5 0 0 1-.5-.5v-3a.5.5 0 0 1 .5-.5h4a.5.5 0 0 1 .5.5m-1 .5H7v2h3z"/></g><defs><clipPath id="a"><path fill="#fff" d="M0 0h24v24H0z"/></clipPath></defs></svg>