<svg xmlns="http://www.w3.org/2000/svg" width="24" height="24" fill="none" viewBox="0 0 24 24"><g clip-path="url(#a)"><path fill="#8c4fff" d="M0 0h24v24H0z"/><path fill="#fff" d="M19.915 11.073h-1c0-1.572-1.424-1.974-2.036-2.074a.503.503 0 0 1-.413-.577c-.002-.61-.281-1.087-.767-1.254a1.15 1.15 0 0 0-1.266.371.5.5 0 0 1-.863-.132 3.8 3.8 0 0 0-.919-1.434c-.487-.464-1.825-1.462-3.714-.702-1.06.427-1.921 1.698-1.921 2.834l.027.414a.5.5 0 0 1-.38.518C6.04 9.187 5 9.65 5 11.05H4c0-1.362.747-2.407 2.02-2.865l-.003-.05C6.016 6.546 7.11 4.929 8.563 4.345c1.684-.679 3.472-.34 4.778.904q.521.498.877 1.166a2.14 2.14 0 0 1 1.805-.192c.795.273 1.308.96 1.418 1.875 1.26.328 2.474 1.249 2.474 2.976m-5.04 4.914h2.092v1h-2.092a1.5 1.5 0 0 1-.908.908v1.592a.5.5 0 0 1-.5.5h-4a.5.5 0 0 1-.5-.5v-1.5h1v1h3v-1.092a1.5 1.5 0 0 1-.908-.908H6.467a.5.5 0 0 1-.5-.5v-2.5h1v2h5.092c.207-.58.757-1 1.408-1s1.2.42 1.408 1m-1.908.5a.5.5 0 1 0 1.001-.001.5.5 0 0 0-1.001.001m4-4v2.5h-1v-2h-5.092c-.207.581-.757 1-1.408 1s-1.201-.419-1.408-1H5.967v-1h2.092c.151-.423.484-.757.908-.908V9.487a.5.5 0 0 1 .5-.5h4a.5.5 0 0 1 .5.5v1.5h-1v-1h-3v1.092c.423.151.757.485.908.908h5.592a.5.5 0 0 1 .5.5m-7 0a.5.5 0 1 0-1.001.001.5.5 0 0 0 1 0"/></g><defs><clipPath id="a"><path fill="#fff" d="M0 0h24v24H0z"/></clipPath></defs></svg>