<svg xmlns="http://www.w3.org/2000/svg" id="standard_product_icon" viewBox="0 0 512 512"><defs><style>.st1{fill:#4285f4}.st2{fill:#34a853}.st3{fill:#fbbc04}.st4{fill:#ea4335}</style></defs><path id="bounding_box" d="M0 0h512v512H0z" style="fill:none"/><g id="art"><path d="M349 458c-29.1 0-56.5-11.3-77.1-31.9l-186-186C65.3 219.5 54 192.1 54 163s11.3-56.5 31.9-77.1S133.9 54 163 54s56.5 11.3 77.1 31.9l186 186c20.6 20.6 31.9 48 31.9 77.1s-11.3 56.5-31.9 77.1-48 31.9-77.1 31.9M163 86c-19.7 0-39.4 7.5-54.4 22.5-30 30-30 78.9 0 108.9l186 186c30 30 78.9 30 108.9 0s30-78.9 0-108.9L217.4 108.6c-15-15-34.7-22.5-54.4-22.5Z" class="st3"/><path d="M163 458c-29.1 0-56.5-11.3-77.1-31.9S54 378.1 54 349s11.3-56.5 31.9-77.1l186-186C292.5 65.3 319.9 54 349 54s56.5 11.3 77.1 31.9 31.9 48 31.9 77.1-11.3 56.5-31.9 77.1l-186 186c-20.6 20.6-48 31.9-77.1 31.9M349 86c-19.7 0-39.4 7.5-54.5 22.5l-186 186c-30 30-30 78.9 0 108.9s78.9 30 108.9 0l186-186c30-30 30-78.9 0-108.9-15-15-34.7-22.5-54.5-22.5Z" class="st1"/><path d="m310.5 201.6-93-93c-30-30-78.9-30-108.9 0L86 86c42.5-42.5 111.6-42.5 154.1 0l93 93z" class="st4"/><path d="M201.6 201.6 179 179l93-93c42.5-42.5 111.6-42.5 154.1 0l-22.6 22.6c-30-30-78.9-30-108.9 0z" class="st4"/><path d="M163 458c-27.9 0-55.8-10.6-77.1-31.9l22.6-22.6c30 30 78.9 30 108.9 0l93-93 22.6 22.6-93 93c-21.2 21.2-49.2 31.9-77.1 31.9Z" class="st2"/><path d="M349 458c-27.9 0-55.8-10.6-77.1-31.9l-93-93 22.6-22.6 93 93c30 30 78.9 30 108.9 0l22.6 22.6c-21.2 21.2-49.2 31.9-77.1 31.9Z" class="st2"/><path d="m426.1 426.1-22.6-22.6c30-30 30-78.9 0-108.9l-93-93 22.6-22.6 93 93c42.5 42.5 42.5 111.6 0 154.1" class="st1"/><path d="M256 365c-29.1 0-56.5-11.3-77.1-31.9-42.5-42.5-42.5-111.6 0-154.1s48-31.9 77.1-31.9 56.5 11.3 77.1 31.9 31.9 48 31.9 77.1-11.3 56.5-31.9 77.1-48 31.9-77.1 31.9Zm0-186c-20.6 0-39.9 8-54.4 22.6-30 30-30 78.9 0 108.9C216.1 325 235.5 333 256 333s39.9-8 54.5-22.5 22.5-33.9 22.5-54.4-8-39.9-22.5-54.4-33.9-22.6-54.5-22.6Z" class="st1"/><path d="M310.5 201.6C296 187.1 276.6 179 256 179s-39.9 8-54.4 22.6L179 179c20.6-20.6 48-31.9 77.1-31.9s56.5 11.3 77.1 31.9l-22.6 22.6Z" class="st4"/><path d="M256 365c-29.1 0-56.5-11.3-77.1-31.9l22.6-22.6C216 325 235.4 333 256 333s39.9-8 54.5-22.5l22.6 22.6c-20.6 20.6-48 31.9-77.1 31.9" class="st2"/><path d="M85.9 426.1c-42.5-42.5-42.5-111.6 0-154.1l93-93 22.6 22.6-93 93c-30 30-30 78.9 0 108.9z" class="st3"/><path d="M178.9 333.1c-42.5-42.5-42.5-111.6 0-154.1l22.6 22.6c-30 30-30 78.9 0 108.9z" class="st3"/><path d="m178.9 333.1-93-93c-42.5-42.5-42.5-111.6 0-154.1l22.6 22.6c-30 30-30 78.9 0 108.9l93 93z" class="st3"/></g></svg>