<svg xmlns="http://www.w3.org/2000/svg" width="80" height="80" fill="none" viewBox="0 0 80 80"><g clip-path="url(#a)"><path fill="#01a88d" d="M0 0h80v80H0z"/><path fill="#fff" d="M37 29.863v-6.449l-2.293 2.293-1.414-1.414 4-4a1 1 0 0 1 1.414 0l4 4-1.414 1.414L39 23.414v5.903c-.679.139-1.348.315-2 .546M42 31a13 13 0 0 0-3 .363q-.023.006-.047.012A13.02 13.02 0 0 0 31 37.105v-8.69l2.293 2.293 1.414-1.414-4-4a1 1 0 0 0-1.414 0l-4 4 1.414 1.414L29 28.414V44c0 .323.024.659.058 1h2.017A9 9 0 0 1 31 44c0-6.065 4.935-11 11-11s11 4.935 11 11c0 6.402-8.37 17.908-11 21.366-1.82-2.392-6.372-8.628-9.01-14.366h-2.182c3.304 7.682 10.035 16.155 10.41 16.624a1.002 1.002 0 0 0 1.563 0C43.281 67.002 55 52.256 55 44c0-7.169-5.832-13-13-13m16.997-3.815Q59 27.092 59 27c0-3.86-3.14-7-7-7-1.494 0-2.93.477-4.117 1.342C45.607 15.772 40.105 12 34 12c-8.271 0-15 6.729-15 15q0 .37.019.744C14.789 29.377 12 33.402 12 38c0 6.065 4.935 11 11 11h19c2.757 0 5-2.243 5-5s-2.243-5-5-5a5.006 5.006 0 0 0-4.899 6h2.083A3 3 0 0 1 39 44c0-1.654 1.346-3 3-3s3 1.346 3 3-1.346 3-3 3H23c-4.963 0-9-4.038-9-9a8.95 8.95 0 0 1 6.365-8.606 1 1 0 0 0 .703-1.057A13 13 0 0 1 21 27c0-7.169 5.832-13 13-13 5.75 0 10.88 3.859 12.478 9.384a1.002 1.002 0 0 0 1.721.372A5 5 0 0 1 52 22c2.757 0 5 2.243 5 5 0 .274-.026.56-.082.873a1.003 1.003 0 0 0 .896 1.168A8.946 8.946 0 0 1 66 38c0 4.962-4.037 9-9 9h-.393q-.231.975-.578 2H57c6.065 0 11-4.935 11-11 0-5.39-3.805-9.874-9.003-10.815"/></g><defs><clipPath id="a"><path fill="#fff" d="M0 0h80v80H0z"/></clipPath></defs></svg>