<svg xmlns="http://www.w3.org/2000/svg" width="80" height="80" fill="none" viewBox="0 0 80 80"><g clip-path="url(#a)"><path fill="#01a88d" d="M0 0h80v80H0z"/><path fill="#fff" d="M62.996 29.57a1.97 1.97 0 0 0-2.004.006l-9.496 5.541a1 1 0 0 0-.496.864v6.382l-3.447 1.723a1 1 0 0 0-.553.895v3.5l-3 2.25-3-2.25v-17l3-2.25 3 2.25v3.9l2-1.15v-3.25a1 1 0 0 0-.4-.8l-4-3a1 1 0 0 0-1.2 0l-3.4 2.55-3.4-2.55a1 1 0 0 0-1.13-.048l-4 2.5c-.292.183-.47.503-.47.848v3.882l-3.447 1.723a1 1 0 0 0-.553.895v6.406l-9 4.91V28.79c0-1.386.736-2.696 1.92-3.417l17.808-10.84a4 4 0 0 1 4.375.14L56.829 24.98H52v2h8a1 1 0 0 0 1-1v-8h-2v6.08L43.25 13.034a6 6 0 0 0-6.56-.21L18.88 23.667A6.04 6.04 0 0 0 16 28.791v19.505c0 .713.366 1.356.979 1.72.317.189.669.283 1.02.283.328 0 .656-.082.958-.247l9.522-5.193A1 1 0 0 0 29 43.98v-6.382l3.447-1.723A1 1 0 0 0 33 34.98v-3.946l2.948-1.843L39 31.48v17.001l-3 2.25-3-2.25v-3.9l-2 1.1v3.3c0 .315.148.611.4.8l4 3a1 1 0 0 0 1.2 0l3.4-2.55 3.4 2.55a1 1 0 0 0 1.2 0l4-3a1 1 0 0 0 .4-.8v-3.382l3.447-1.723A1 1 0 0 0 53 42.98v-6.426l9-5.251V51.17a4.03 4.03 0 0 1-1.92 3.417l-17.808 10.84a4 4 0 0 1-4.375-.14L23.172 54.981H28v-2h-8a1 1 0 0 0-1 1v8h2v-6.08l15.75 11.026a6 6 0 0 0 6.56.21l17.81-10.841A6.03 6.03 0 0 0 64 51.17V31.304c0-.725-.375-1.374-1.004-1.735"/></g><defs><clipPath id="a"><path fill="#fff" d="M0 0h80v80H0z"/></clipPath></defs></svg>