<svg xmlns="http://www.w3.org/2000/svg" width="40" height="40" fill="none" viewBox="0 0 40 40"><g clip-path="url(#a)"><path fill="#01a88d" d="M0 0h40v40H0z"/><path fill="#fff" d="M27 12.951h2.818L21.31 7.403a2.51 2.51 0 0 0-2.666-.042l-8.445 5.14c-.74.452-1.2 1.27-1.2 2.136v6.842l6-4.285V14.45c0-.176.092-.338.243-.429l2.5-1.5a.5.5 0 0 1 .48-.018l1.777.888 1.776-.888a.5.5 0 0 1 .48.018l2.5 1.5c.152.09.244.253.244.43v1.69l1.724.862a.5.5 0 0 1 .276.447v1.35l-1 .7v-1.74l-1.724-.863a.5.5 0 0 1-.276-.447v-1.717l-2.021-1.213-1.479.74v11.381l1.479.74L24 25.167V22.45a.5.5 0 0 1 .209-.407l6.209-4.435a.99.99 0 0 1 1.039-.076 1 1 0 0 1 .543.89v6.403a3.49 3.49 0 0 1-1.588 2.932l-8.5 5.543a3.5 3.5 0 0 1-3.824 0L9 27.374v3.577H8v-4.5a.5.5 0 0 1 .5-.5H13v1h-2.818l8.453 5.512a2.5 2.5 0 0 0 2.73 0l8.5-5.543A2.49 2.49 0 0 0 31 24.826v-6.403l-6 4.285v2.743a.5.5 0 0 1-.243.429l-2.5 1.5a.5.5 0 0 1-.48.018L20 26.51l-1.776.888a.5.5 0 0 1-.48-.018l-2.5-1.5A.5.5 0 0 1 15 25.45v-1.69l-1.724-.863a.5.5 0 0 1-.276-.447v-1.35l1-.7v1.741l1.724.862a.5.5 0 0 1 .276.447v1.717l2.021 1.213 1.479-.739V14.26l-1.479-.74L16 14.735v2.717a.5.5 0 0 1-.209.407l-6.209 4.435A1 1 0 0 1 8 21.479v-6.842a3.52 3.52 0 0 1 1.68-2.99l8.445-5.14a3.52 3.52 0 0 1 3.732.058L31 12.528V8.95h1v4.5a.5.5 0 0 1-.5.5H27z"/></g><defs><clipPath id="a"><path fill="#fff" d="M0 0h40v40H0z"/></clipPath></defs></svg>