<svg xmlns="http://www.w3.org/2000/svg" width="40" height="40" fill="none" viewBox="0 0 40 40"><g clip-path="url(#a)"><path fill="#01a88d" d="M0 0h40v40H0z"/><path fill="#fff" d="M34 19.5c0 3.033-2.468 5.5-5.5 5.5h-2.103q.173-.511.301-1H28.5c2.482 0 4.5-2.019 4.5-4.5 0-2.36-1.855-4.324-4.225-4.47a.5.5 0 0 1-.437-.673 2.4 2.4 0 0 0 .162-.857c0-1.378-1.121-2.5-2.5-2.5-.892 0-1.697.468-2.152 1.252a.499.499 0 0 1-.927-.175A5.96 5.96 0 0 0 17 7c-3.309 0-6 2.691-6 6 0 .471.063.962.187 1.46a.5.5 0 0 1-.406.614A4.47 4.47 0 0 0 7 19.5c0 2.482 2.019 4.5 4.5 4.5H20c1.102 0 2-.897 2-2s-.898-2-2-2-2 .897-2 2c0 .366.106.705.278 1h-1.094A3 3 0 0 1 17 22c0-1.654 1.346-3 3-3s3 1.346 3 3-1.346 3-3 3h-8.5A5.507 5.507 0 0 1 6 19.5c0-2.528 1.7-4.682 4.108-5.306A7 7 0 0 1 10 13c0-3.86 3.14-7 7-7a6.95 6.95 0 0 1 6.673 4.9c.634-.57 1.46-.9 2.327-.9 1.93 0 3.5 1.57 3.5 3.5q0 .3-.057.602c2.6.452 4.557 2.715 4.557 5.398M20 16a6 6 0 0 0-5 2.69v-3.483l1.146 1.146.707-.707-2-2a.5.5 0 0 0-.707 0l-2 2 .707.707L14 15.208V23h1.094A6.4 6.4 0 0 1 15 22c0-2.757 2.243-5 5-5s5 2.243 5 5c0 3.585-3.758 8.982-5 10.669-.827-1.123-2.763-3.888-3.967-6.669h-1.08c1.552 3.82 4.486 7.595 4.653 7.81a.5.5 0 0 0 .787 0C20.624 33.517 26 26.62 26 22c0-3.309-2.691-6-6-6m-1.079-5.286-.067-.068a.5.5 0 0 0-.707 0l-.068.068H18v.079l-1.854 1.854.707.707L18 12.207v3.097c.327-.098.66-.176 1-.224v-2.873l1.146 1.146.707-.707L19 10.794v-.079z"/></g><defs><clipPath id="a"><path fill="#fff" d="M0 0h40v40H0z"/></clipPath></defs></svg>