<svg xmlns="http://www.w3.org/2000/svg" width="40" height="40" fill="none" viewBox="0 0 40 40"><path fill="#dd344c" d="M0 0h40v40H0z"/><path fill="#fff" d="M12.294 10.312c-4.15 3.411-5.606 9.3-3.538 14.323l-.924.38c-2.234-5.424-.66-11.788 3.827-15.476C16.014 5.96 22.12 5.471 26.773 8.157l-.743-1.77.922-.387 1.39 3.31a.5.5 0 0 1-.407.69l-3.52.372-.106-.995 2.176-.23c-4.323-2.62-10.091-2.204-14.191 1.165m19.904 4.131-.924.381c2.06 5.001.606 10.872-3.537 14.277-4.114 3.38-9.088 3.804-13.258 1.222l2.235-.207-.092-.996-3.598.333a.5.5 0 0 0-.412.7l1.468 3.335.916-.402-.768-1.745c4.486 2.636 9.768 2.128 14.144-1.468 4.479-3.681 6.053-10.026 3.826-15.43m-6.497.49a.5.5 0 0 1 .3.459v5.815c0 .059-.062 5.851-5.5 5.851s-5.5-5.808-5.5-5.867v-5.8a.5.5 0 0 1 .302-.458l5-2.167a.5.5 0 0 1 .398 0zm-5.7 11.092V13.987l-4 1.733v5.471c.002.19.074 4.489 4 4.834m5-10.305-4-1.733v12.038c3.926-.344 4-4.629 4-4.819z"/></svg>