<svg xmlns="http://www.w3.org/2000/svg" width="18" height="18" fill="none" viewBox="0 0 18 18"><path fill="url(#a)" d="M7.787 1.065c.67-.67 1.756-.67 2.426 0l6.722 6.722c.67.67.67 1.756 0 2.426l-6.722 6.722c-.67.67-1.756.67-2.426 0l-6.722-6.722a1.715 1.715 0 0 1 0-2.426z"/><path fill="url(#b)" d="M8.362 1.67a.9.9 0 0 1 1.276 0l6.692 6.692a.9.9 0 0 1 0 1.276L9.638 16.33a.9.9 0 0 1-1.276 0L1.67 9.638a.9.9 0 0 1 0-1.276z"/><path fill="url(#c)" d="M6.476 5.432a.654.654 0 0 1 .008-.924l2.079-2.043a.654.654 0 0 1 .916 0l2.079 2.043a.654.654 0 0 1-.916.932l-.968-.95v3.915h3.986l-.94-.922a.654.654 0 0 1 .917-.933l2.079 2.043a.654.654 0 0 1 0 .932l-2.079 2.043a.654.654 0 1 1-.916-.933l.939-.922H4.382l.939.922a.654.654 0 1 1-.916.933l-2.08-2.043a.654.654 0 0 1 0-.932l2.08-2.043a.654.654 0 1 1 .916.933l-.94.922h3.986V4.49l-.967.95a.654.654 0 0 1-.924-.008"/><path fill="#d9d9d9" d="M9.712 11.727a2.6 2.6 0 1 0-1.3 0v1.54a1.298 1.298 0 1 0 1.3 0z"/><path fill="#fff" d="M9.712 11.727a2.6 2.6 0 1 0-1.3 0v1.54a1.298 1.298 0 1 0 1.3 0z"/><circle cx="9.063" cy="9.21" r="1.299" fill="#0078d4"/><defs><linearGradient id="a" x1="9" x2="9" y1=".563" y2="17.438" gradientUnits="userSpaceOnUse"><stop stop-color="#0094f0"/><stop offset="1" stop-color="#2052cb"/></linearGradient><linearGradient id="b" x1="10.898" x2="4.426" y1="2.097" y2="15.03" gradientUnits="userSpaceOnUse"><stop stop-color="#0fafff"/><stop offset="1" stop-color="#2764e7"/></linearGradient><radialGradient id="c" cx="0" cy="0" r="1" gradientTransform="matrix(0 5.2888 -4.19702 0 9.02 9.118)" gradientUnits="userSpaceOnUse"><stop stop-color="#d8f7ff" stop-opacity=".5"/><stop offset="1" stop-color="#d8f7ff"/></radialGradient></defs></svg>